<?xml version="1.0" standalone="no"?>
<!DOCTYPE svg PUBLIC "-//W3C//DTD SVG 1.1//EN" "http://www.w3.org/Graphics/SVG/1.1/DTD/svg11.dtd" >
<svg xmlns="http://www.w3.org/2000/svg">
<metadata>
This is a custom SVG webfont generated by Font Squirrel.
</metadata>
<defs>
<font id="webfontZ49wbuX0" horiz-adv-x="708" >
<font-face units-per-em="2048" ascent="1638" descent="-410" />
<missing-glyph horiz-adv-x="614" />
<glyph unicode=" "  horiz-adv-x="614" />
<glyph unicode="&#x09;" horiz-adv-x="614" />
<glyph unicode="&#xa0;" horiz-adv-x="614" />
<glyph unicode="!" horiz-adv-x="536" d="M-6 1434h493l-43 -1334h-194l-31 1184zM236 -47h208v-293h-208v293zM291 762l61 -98l64 98l-62 485zM352 535l-59 -78l59 -80l64 80z" />
<glyph unicode="&#x22;" horiz-adv-x="425" d="M145 1438l-43 -355h-69l-33 355h145zM381 1438l-43 -355h-70l-32 355h145z" />
<glyph unicode="#" horiz-adv-x="1224" d="M158 1057h274l135 377h117l-133 -377h262l137 377h117l-135 -377h252l-41 -111h-248l-92 -258h258l-33 -106h-266l-135 -379h-115l135 379h-262l-135 -379h-119l133 379h-264l33 106h266l96 258h-280zM688 688l88 258h-262l-94 -258h268z" />
<glyph unicode="$" horiz-adv-x="1196" d="M1118 913q4 -31 12.5 -63.5t11.5 -65t-3 -64.5t-31 -58l-273 -312q-136 -156 -282 -301q-37 -4 -72 -2t-67.5 8l-64.5 11.5t-58 7.5q-27 2 -60 6l-63 8q-31 4 -54.5 8t-29.5 8q-27 16 -32 44t-9 53q-4 55 -9 107t-14 106q-4 49 -13 96t-7 98q16 31 39.5 58.5t44.5 58.5 l139 157l139 158l80 96l88 105q10 14 27.5 20.5t36 8.5t35 2t22.5 2q90 10 181.5 10t181.5 10q14 -2 24.5 -10t12.5 -18q6 -35 10 -69t12 -69l25 -116zM195 770l-32 -40q-17 -22 -28 -44q23 -10 45.5 2t36.5 23q72 59 132 130l120 136q8 12 13 26.5t16 26.5q4 20 4 45 t-10 39q-70 -88 -150.5 -169t-146.5 -175zM84 279q12 -16 30.5 -5t35.5 27q4 8 17 26.5t11 53.5q4 29 -3 51.5t-32 40.5q-6 0 -16 5t-21.5 7t-20.5 -1t-13 -15q16 -90 12 -190zM502 111q0 31 -2 65.5t-13 65.5q-16 6 -33.5 15t-33.5 13q-31 4 -60.5 6.5t-56.5 12.5 q-37 -29 -70.5 -60.5t-66.5 -66.5v-12q31 -14 60.5 -18.5t60 -5.5t62.5 -1t69 -4q35 -4 52.5 -12t31.5 2zM854 705q18 18 25.5 42.5t8.5 49t-2 47t-3 35.5q-2 16 -11.5 53t-17.5 65q-12 4 -40 5.5t-52 -1.5q-41 4 -77 -4t-71 -18q-72 -57 -127 -124l-112 -134 q-14 -20 -32.5 -38.5t-36 -38t-31 -40t-17.5 -45.5q4 -37 5 -58.5t9 -45.5q4 -23 5.5 -39.5t5.5 -32.5q6 -27 36.5 -38t47.5 -15q18 -4 36.5 -10.5t39 -10.5t39 -3t36.5 11q37 51 80 99l87 95l88 95q44 48 81 99zM838 1063q33 43 69.5 83t59.5 85q-84 8 -149.5 -3 t-149.5 -14h-35q-4 0 -11.5 1.5t-11.5 -3.5q0 -29 4 -46t9 -42q4 -20 6 -43.5t12 -40.5q29 -4 55.5 -2t59.5 4q23 4 43.5 2.5t38.5 18.5zM707 934q43 2 76.5 -25.5t54.5 -62.5q6 -20 -5.5 -48t-30 -57.5t-40.5 -55.5l-37 -42q-53 -57 -99 -116.5t-106 -112.5 q-23 -18 -52.5 -33.5t-64.5 0.5q-47 25 -60 60.5t-24 74.5q-8 29 -0.5 47.5t17.5 30.5l131 141l133 137l51 34q27 18 56 28zM791 788q12 16 9 36t-14 36q-16 14 -32.5 25.5t-40.5 7.5q-23 -10 -40 -22l-34 -21q-16 -12 -40 -36l-47 -48l-44 -45q-20 -20 -29 -27 q-4 -6 -20 -22l-36 -37q-19 -20 -36.5 -43t-24.5 -39q-4 -10 -4 -29.5t4.5 -40t14.5 -39t26 -30.5q29 -10 51.5 -3t40 22.5t33 33.5t27.5 35l53 59l64 68l30 39l36 45l32 43t21 32z" />
<glyph unicode="%" horiz-adv-x="2062" d="M1989 72l57 -35v-17l-148 -22l-8 8l-96 -14l-197 57l-45 19l-51 12l-196 59h-13l-28 -39l-4 -28l-19 -17l-43 4l-10 -30l-29 -70l-137 -145l39 -39l37 -17l53 -61v-21l8 -2l-8 -6l8 -6l-8 -6l12 -18l-125 -5l-106 15l-105 41l-112 30l-6 -6l-19 6h-12v9l22 12l-2 6l2 29 l68 80l37 39l14 61l19 22l4 39l8 4l-43 25l-41 10l-37 -18l-31 -31l-63 -37l-70 -24l-20 -19l8 -121l-10 -18l2 -8l-17 -29l17 -10h8l-18 -12l-7 8l-14 -8l-25 8l-6 -8l-96 12l-49 -27l-107 6l-6 5l-4 -5l-8 5h-12v12l6 4l-37 63l-10 66l2 8l-8 23l-91 67l-30 246l-13 129 h-2v23h2v-7l9 -6l-9 -4l21 -74l4 23l-27 268l2 8l-2 2v15h2l9 6l4 -6h8l4 6l-4 4l4 4l-4 8h-8l8 4l129 27l14 21l17 43l51 47v22l70 55l-19 72l-123 6l-18 13h-60l-8 4l-2 -4l-8 4h-4v8l35 8l16 16l-25 15l68 37l33 34l76 62l4 8v6l-4 8l20 43l39 64l20 14l11 31l53 55 l63 64l64 22l65 2l7 7l135 -7l39 -14l90 -61l72 -80l38 -84l48 -56l4 -124l-21 -115l-37 -66l-14 -16v-14l29 -39v-52l-9 -8l13 -59l10 -31l8 -31l17 -71l55 -70l69 -67v-23l17 -14l37 -9v-6l-51 15l-3 2l-30 -47l-13 -15l-38 -24h-9l-8 -4l8 -17l70 -53h29l8 2l26 -10 l-16 8h-6l-12 -12l18 -19l33 8l14 15l8 55l17 41v25l-29 24l-2 6l43 -22h2l45 80l6 10l31 -8l8 -15l-24 -75v-9l36 -16l148 -35l252 -61l102 -29l39 -27h10zM1329 352l-31 -61l31 51l31 10l6 6l-12 13h-19zM377 1268l-4 -19l110 37l6 -6h25l29 6l2 -6h12l78 -12l12 -11 l43 -12l51 -26l88 -91l37 -73v22l4 6l11 -14v-20l-4 -70l28 65l15 56l8 51l-31 39l-20 51l4 4l59 -88l6 -57l10 20h5l8 -4l-8 -2v-20l-41 -90l12 -11v-20l-4 -8l-19 -78l9 -4l73 -37l8 22l13 35l10 19l14 104l-6 4l6 8l2 31l-2 8l2 6v11l-2 6l2 6l-55 78l-37 78l-88 90h-8 l-23 24l-59 33l-59 12l-39 -8l-127 -14l-43 -13zM870 745l11 -12l-4 -59l41 51l53 98l-15 21l-51 14l-47 -74l-53 -39v-32l-25 -58l-43 -43l-8 4l8 39l-8 11l-29 -54l-43 -67h-18l-43 30l-6 -2l-10 -290l6 -2h4l131 53l16 -4l43 22v13l-4 -7h-10l-6 7v6l55 61l27 53l-4 9 l4 30l-4 37l4 39l16 131zM838 381l-9 22h-10l-12 -18zM748 319l-27 -16l27 10v6zM586 240l-6 4v8h-7v-23h7l55 15l55 37l8 16h-8l-12 -23l-43 -22zM608 262h2l60 29h-13zM653 238l-80 -29l7 -39l45 20l96 91zM377 823l-12 -82l8 -28l30 -33l23 65l-25 107l-24 45l2 -33z M362 821l3 37l-23 39l-20 6l4 -57l28 -31zM444 741l-18 -67l37 -10l59 2l-39 47zM453 756l69 -43l64 -27l135 47l16 21l11 -13l-7 -8l7 -59l12 -23l20 39l11 154l28 59l-4 39l-16 45l-31 29v-17l39 -73l-19 -68l-8 6l8 70l-12 14l-39 6l-12 -6l35 -26v-13l-8 -6l-4 6l-11 17 l-28 8l6 -8v-23l-17 -16h-20l-14 16l-25 19l-4 -9h-25l-10 13h-14l-19 -4l-2 4v8l-20 -25h-2v-12l-8 -8l-7 8l-14 -14h-14l-17 4l-8 22h-22l-15 -6l6 -20l-6 -9l-6 9l-8 20l2 6l-2 4l-31 -10l10 -20zM500 913l14 -4v4h-14zM760 979l-8 8v29l-27 -29h16zM729 973h-14l-45 -25 zM852 831l-33 -34h-12v-29l8 8h4l47 45l23 47l8 54h-16l-11 -9l-4 -39zM819 821l10 10h9l12 43zM893 936l4 -2v2l12 37h-4l-16 -15l-51 -49l-31 -63h8v6l51 74zM543 680v-6l14 -19l29 -14l4 -29l41 -39l22 -8l56 99l20 43l-8 18l-35 -23l-86 -36l-14 -2zM297 1139l-2 -19 l2 -4l37 12l4 -8l39 19l78 6l90 -10l102 -21l78 -37l94 -98l10 -57l21 14l2 80l-14 61l-23 39l-67 74l-33 20l-45 19l-39 12l-13 8l-141 13l-84 -21l-45 -22zM315 922l97 26l4 -6l-4 -6v-2h4l47 8l110 45l7 -8v-2l-13 -12l-61 -29l22 6l68 23l90 61l4 -2v-14l-12 -11 l-39 -34l31 8l67 43l11 22l-23 17l-55 28l-127 33l-164 4l-37 -20h-16l-29 -6l-100 -90h4l6 -5v-6l-10 -14h-4l-23 -31l-35 -12h19l6 -2l71 2l21 -10v-4h63zM315 807l-43 -43l11 -23l55 -67l35 -8v14l-19 27l-12 47l6 39l-14 14h-19zM221 702l-24 -47h16l18 9l80 10l-24 33 l-27 26l-12 -2zM63 178l7 -6l14 -166l10 -24v8l12 8h9l8 -16l-8 -13l8 -14h12l25 -25l20 17l4 -2v-6l-10 -19l47 -26l23 10l4 -4v-6l-4 -17l43 -37h10v8l18 17l11 -10l-11 -27l33 12l25 17h-11l-8 8v12l11 10h12l10 -10l-8 -8h8l45 39h-6l-2 8v10l8 13l21 -19l14 19l22 28 h-6l-8 10l8 13l17 -8v8l14 172l-8 287l8 6l-8 4v16l-10 125h-19l-10 12l8 4l-8 7l-35 12l-16 -8l8 -4v-7l-12 -12h-9l-10 12v7l10 12h-55l-22 -12l8 -7l8 -16l6 -176h17l38 -4l9 4h4l80 -4l4 -137l-11 -15l-65 -10l-8 4l-78 -10v-221l10 -23l-6 -2l6 -39l-6 -37l-117 -10 l-4 6l-8 21l-12 59l6 2l-6 8v15l-4 155l-13 54l-112 -11l-9 11l7 125l-7 16l17 14l74 8l30 15v172l23 10l-10 16l-66 -12l4 -20l-4 -9h-14l-2 9v20l-52 -8v-6l7 -17l-7 -8h-18l-4 8v11h-12l22 -226l-6 -6l10 -139l15 -27zM272 600l-71 -16v-181l-8 -10l-76 -8l-37 -12 l4 -129h22l29 8l66 10l6 -4v-6l14 -74l-8 -6l12 -205l11 -22h24l66 2l-4 311l12 10h4l115 15l14 -2l10 10l-2 119h-22l-76 -7l-43 7l-8 163l8 2l-8 9l-4 16h-50zM221 623l10 -19l72 12v11h-31zM90 -31v11h-10v-11h10zM160 -92l61 -39l-127 90zM377 -242l16 6l45 41l37 74h-8 l-23 -22l-90 -60l-28 -8l-152 80v-43l39 -76l47 -26h74l31 16v10l8 8h4zM543 -152l-8 17l8 4l-8 8v43h-13l-16 -12l-29 -53h6l31 39l4 -7v-8l-18 -31l-37 -43l-39 -41v-14h51l25 17l28 38zM543 238l-8 2l10 88l-2 2l2 4l-2 8l2 16l-2 7l2 6l-2 2v20l2 2l-2 8v7l2 8l-2 2v12 l2 141l-2 2v9l2 6l-2 6v27l-21 18l-16 -6l-23 8l-80 8h-2h-4l-86 4l-14 -12l-2 8l-135 -16l-109 -31h4l39 12l8 -4l4 4l56 11l8 -4l4 4h6l51 14l166 10h6l86 -10l29 -29l4 -37l-4 -2l4 -8l13 -192l-7 -164l7 -8l-7 -4l7 -7l-13 -159l6 -2l-14 -62l-61 -67l-99 -74l-39 -12 h23l41 22l88 68l47 41l14 24l15 240l-8 4l8 4v6l-8 6zM545 80l8 -31l-8 -80l12 68l-4 8v4v6l4 41l-4 4l4 6v21l-4 6l4 6l-4 8l4 3v20l8 59l-8 9l10 45l-2 8l2 16l-2 6l2 6l13 285l-13 31h-14l4 -12l-4 -7l4 -4v-37zM698 20l199 224l23 14l59 25l-8 8l-39 16l-62 35l-4 -8 l-47 18v6l8 7h-20l-19 -46l-47 -61l-12 10l-43 -51l-78 -59l-28 -8l-13 -95l6 -6v-18l-6 -2l6 -9l-6 -4v-26l-10 -35l82 35zM721 -264v4h-6v-4h6zM870 -315h11l-23 10l-20 12l-50 6l31 -6l39 -12zM1135 -45l14 12l-8 2l-8 -12l2 -2h-2l-31 -16l-55 -19l-64 6l-51 21l-74 61 l12 -31l-4 -8h-8l-8 13l-8 -5l16 -30l-8 -8l-12 8l-11 -8l-12 -62l-24 -22l-66 -68l-4 -37l31 -14l86 -8l28 -21l95 -31l75 -8l15 6l8 -6l31 -6l51 6v17l-6 4l-27 39l-49 39l-8 -3l-4 3v8l-39 14l-60 -14l-43 14v8l4 6l37 -6l2 6l8 -6l5 6h10l67 52l-55 -7l-35 9l-2 -2l-6 2 l-35 20l-39 31l-8 22l8 9l15 -19l39 -33l36 -10l52 -8l53 18l72 68h2zM1174 29l6 26l-6 27l-50 76l-26 14v14l-17 15h-8l-35 28l-16 15l8 8h31l22 10l7 -4l8 4l14 6l37 35l10 49l-86 90l-37 60l-37 121l-6 122l-22 33l-39 -53l-39 -84h4l8 2l35 64l6 -5v-8l-26 -53l-54 -68 v-20l-8 -78l-16 -57l8 -23l43 -47l39 -18l67 -47l19 -25l-6 -6l-51 10l-33 -10v-8l-10 -6h-9l-67 -68l-74 -102l121 -39l20 -23l-4 -8l13 -16l51 -35l67 -2l66 10l26 22v13zM1192 100l10 27l-4 6h-10l-29 6l12 -20l21 -23v4zM1241 72l74 157l39 101h-19l-30 -68l-45 -84v-20 l-15 -11l-31 -59v-16h5l6 -4zM1343 252l-22 -43h8zM1802 6v2l-37 60l-198 51v4l8 4l82 -21l96 -18l12 -8l9 8l90 35l-4 4l-74 20l-262 66l-164 39l-25 -55l70 -25l162 -45v-4l-4 -4l-234 59l-14 -28l82 -27zM1819 8l206 23l-24 18l-117 70l-98 -39l10 -43zM4 604h14l2 8 l-16 -22l14 -166l2 -29v-22l-16 137l-2 63zM567 858l6 -6l-8 -55l2 -4h6v-9l-16 9l-12 22zM741 754l39 104l-32 -104h-7zM596 778h14l-43 -14zM625 778l-7 -2l-8 2h15zM590 741l6 -8l-10 8h4z" />
<glyph unicode="&#x26;" horiz-adv-x="1574" d="M965 631h575l-235 -146q-18 -92 -50 -188q-27 -82 -67.5 -179.5t-100.5 -185.5l78 -135l287 -135h-477l-51 98q-80 -53 -182.5 -85.5t-231.5 -36.5q-139 -4 -237.5 45t-160 123.5t-88 163.5t-20.5 163q4 51 19.5 116.5t59.5 135.5t127 140.5t222 133.5l-20 41 q-39 70 -66 144q-25 61 -42 136t-13 144q4 68 36.5 129.5t87 106.5t130.5 70.5t166 25.5q111 0 179 -35t106 -88t52.5 -119.5t14.5 -130.5q0 -74 -33 -141.5t-83 -125.5t-112.5 -106t-119.5 -83l305 -574q23 37 48.5 85t47 103.5t33.5 118t10 125.5zM586 -213q43 0 78.5 9 t67.5 22.5t63 30.5l63 36l-360 658q-47 -23 -94.5 -55.5t-85 -75.5t-63.5 -99.5t-32 -126.5q-6 -66 12.5 -135t62.5 -128.5t115 -97.5t173 -38zM535 1106q0 -41 11 -86t26.5 -89t33 -85t33.5 -74l18 -31q125 82 195 161t70 192q0 70 -17.5 113.5t-45.5 68t-63.5 34 t-74.5 9.5q-59 -2 -95 -23.5t-56.5 -52.5t-27.5 -67.5t-7 -69.5zM1026 -186l-176 438l-94 57l-6 -112zM729 473l-86 47l-18 -98l88 -43zM424 1204q-18 -27 -25.5 -62.5t-7.5 -75.5t4 -81t11 -78q10 -57 37.5 -117.5t64.5 -132.5l94 -63l10 115q-23 23 -45 53 q-20 27 -43.5 63.5t-44.5 83.5q-4 8 -14 35t-21.5 67t-17.5 89t-2 104zM109 287l-54 -152l58 -164l65 164z" />
<glyph unicode="'" horiz-adv-x="190" d="M145 1438l-43 -355h-69l-33 355h145z" />
<glyph unicode="(" horiz-adv-x="606" d="M580 1507q-47 -39 -95 -90q-41 -43 -86 -103.5t-82 -137.5q-51 -104 -84.5 -250t-35.5 -332q-4 -195 28.5 -353.5t81.5 -279.5q37 -104 84 -177t88 -120q49 -55 96 -94l-30 -51q-57 45 -119 100q-53 47 -114.5 114.5t-118.5 151.5q-88 129 -140.5 286t-52.5 374 q0 129 21.5 239.5t58.5 203.5t84 170t98 136q51 63 101.5 111.5t91.5 80.5t66 49l26 17z" />
<glyph unicode=")" horiz-adv-x="620" d="M31 1552l25 -17q26 -17 67 -49t91 -80t101 -112q51 -59 98.5 -136t84.5 -170t58.5 -203.5t21.5 -239.5q0 -217 -52.5 -374t-140.5 -286q-57 -84 -118.5 -151.5t-114.5 -114.5q-61 -55 -119 -100l-31 51q47 39 96 94q41 47 87 120t85 177q49 121 82 279.5t29 353.5 q-2 186 -36 331.5t-85 250.5q-37 78 -82 138t-86 103q-47 51 -94 90z" />
<glyph unicode="*" horiz-adv-x="1662" d="M0 0l831 1438l797 -1438h-1628zM416 709l407 -701l406 701h-813z" />
<glyph unicode="+" horiz-adv-x="1120" d="M102 623v106h406v399h106v-399h400v-106h-400v-412h-106v412h-406z" />
<glyph unicode="," horiz-adv-x="352" d="M82 176h170v-176q-2 -66 -23.5 -109t-48.5 -69q-31 -31 -71 -49l-27 32q25 18 43 48q16 23 28.5 59.5t8.5 87.5h-80v176z" />
<glyph unicode="-" d="M119 598l510 -2v-166h-510v168z" />
<glyph unicode="." horiz-adv-x="348" d="M82 176h170v-176h-170v176z" />
<glyph unicode="/" horiz-adv-x="851" d="M721 1436h96l-719 -1774h-96z" />
<glyph unicode="0" horiz-adv-x="1214" d="M1049 1090q53 -111 80.5 -253.5t27.5 -297.5q0 -90 -11 -181.5t-32.5 -177.5t-51.5 -161.5t-67 -135.5q-78 -125 -185.5 -176t-229.5 -51q-123 0 -240 64.5t-197 187.5q-82 119 -112.5 284.5t-30.5 346.5q0 164 25.5 310t91.5 263q80 147 202.5 233.5t260.5 86.5 q143 0 264 -91t205 -251zM575 -242q61 0 120 61.5t105 168t73.5 249t27.5 302.5q0 162 -28.5 308t-74.5 254.5t-104.5 173t-120.5 64.5q-59 0 -118.5 -64.5t-106.5 -173t-75.5 -255t-28.5 -307.5q0 -160 29.5 -302.5t76.5 -249t106.5 -168t118.5 -61.5zM373 1286 q-72 -43 -114 -98l-75 -101q-12 -18 -27.5 -45.5t-29.5 -60.5t-24.5 -64.5t-12.5 -58.5l53 -98l64 98q8 68 15 118t20 85q8 25 21 55.5t30.5 61t37 59.5t42.5 49zM72 586l55 -80l59 80l-59 78zM397 -231q-23 20 -49 54t-51 75t-45.5 84t-28.5 79q-14 63 -20 126t-6 116 l-64 98l-53 -98q6 -53 25.5 -126t52.5 -136q51 -100 109 -164.5t130 -107.5zM776 1286q20 -20 41 -49t38 -59.5t30.5 -61.5t21.5 -55q12 -35 19.5 -85t15.5 -118l64 -98l53 98q-4 27 -13.5 58.5t-23.5 64.5t-29.5 60.5t-27.5 45.5l-75 101q-42 55 -114 98zM1022 664l-59 -78 l59 -80l55 80zM752 -231q72 43 130 107.5t109 164.5q33 63 52.5 136t25.5 126l-53 98l-64 -98q0 -53 -6 -115.5t-20 -126.5q-8 -37 -28.5 -79.5t-45.5 -83.5t-52.5 -75t-47.5 -54z" />
<glyph unicode="1" horiz-adv-x="1024" d="M4 1069l387 363h174v-1594l281 -176h-795l275 164v1339zM391 283l60 -486l61 486l-59 96zM387 782l62 -98l63 98l-61 473zM449 614l-60 -77l60 -80l63 80z" />
<glyph unicode="2" horiz-adv-x="1226" d="M168 1311q39 41 98 73q51 29 131 51.5t197 26.5q127 2 207 -44t126 -116.5t63.5 -154.5t21.5 -160q4 -111 -22.5 -209t-64.5 -178t-78 -137t-61 -84l-145 -191l-125 -157l-123 -150h492l303 219l-174 -436h-989q51 45 120 121l147 167q87 101 202 251 q100 129 158.5 238.5t89 196.5t41 150.5t10.5 100.5q2 57 -8.5 119.5t-36 117t-71.5 90t-116 37.5q-51 2 -88 -8t-59 -20q-29 -14 -47 -31l-189 -170l-68 -63l-59 -55l-40 -38q-15 -14 -13 -14t15.5 33t31.5 83l40 109l40 110l31 85q12 35 12 37zM379 -168l-123 -61l123 -60 l512 62zM434 1341q74 4 145.5 -1t127.5 -42q45 -29 67.5 -71.5t46.5 -98.5l94 -65l7 102q-14 31 -37 61.5t-48.5 56.5t-51 44.5t-46.5 26.5q-53 18 -133 21t-172 -34zM905 981l-59 -78l59 -80l64 80z" />
<glyph unicode="3" horiz-adv-x="1116" d="M115 1247q37 53 96 96q51 37 129 69t195 36q115 4 201.5 -25.5t144 -83t86 -124t26.5 -150.5q-4 -135 -51 -219t-102 -131q-66 -55 -148 -84q100 -31 180 -92q33 -27 66 -62t57.5 -80t39 -102t14.5 -127q-2 -162 -53.5 -263.5t-127 -159.5t-165 -78.5t-168.5 -18.5 q-104 2 -179 15t-129 30q-61 18 -104 43l-121 352l320 -276l63 -17q29 -6 65.5 -11t77.5 -3q41 0 91.5 23.5t94.5 68.5t73.5 113.5t29.5 160.5q0 88 -20.5 154t-54 112t-76.5 75.5t-88 46.5q-106 39 -240 28q6 27 14 49q4 10 6 19l4 16l5 17q37 0 99 9t124.5 45t111 104.5 t58.5 187.5q8 61 -6.5 115.5t-45 96.5t-74.5 68.5t-95 32.5q-66 4 -104 -4t-58 -21q-23 -14 -31 -34l-332 -365zM870 1204l-53 -151l57 -164l66 164zM926 311l-54 -151l58 -164l65 164z" />
<glyph unicode="4" horiz-adv-x="1302" d="M991 1434v-1182h172l-7 -23q-7 -23 -17.5 -50l-19.5 -50t-11 -23h-117v-301l248 -143h-758l275 148v296h-754v117l766 1211h223zM188 254h568v917zM821 283l60 -486l61 486l-59 96zM817 782l62 -98l63 98l-61 473zM879 614l-60 -77l60 -80l63 80z" />
<glyph unicode="5" horiz-adv-x="1138" d="M891 1434l186 -469l-350 256h-547v-500q33 39 84 72q41 29 105.5 50t150.5 21q135 0 238.5 -51t174.5 -132t108.5 -182.5t43.5 -203.5q10 -172 -31.5 -294t-113.5 -199.5t-163 -114.5t-177 -39q-127 -4 -219 10t-154 33q-72 23 -123 51l-104 362l324 -299q25 -16 57 -26 q29 -10 66.5 -17.5t87.5 -3.5q68 4 126 34t101 86t68.5 139t27.5 198q2 141 -28.5 239.5t-83 161t-121 91t-140.5 28.5q-80 0 -139 -34.5t-99 -77.5t-60.5 -79t-22.5 -36q-16 23 -37 33t-39 16q-23 6 -43 8v869h846zM961 432l-54 -151l58 -164l65 164zM279 1389l-99 -62 l99 -59l509 61z" />
<glyph unicode="6" horiz-adv-x="1269" d="M735 985l107 252q-18 27 -43 47q-23 16 -57.5 30.5t-88.5 16.5q-53 0 -116.5 -25.5t-119 -96t-91 -194.5t-31.5 -321q-2 -2 12.5 10.5t43 32t67.5 43t85 43t98 31.5t108 10q94 -4 186 -45t163.5 -114.5t116 -178t44.5 -233.5q0 -145 -45.5 -266t-123 -207t-181 -134 t-222.5 -44q-117 2 -232.5 49t-207.5 154.5t-148.5 283.5t-56.5 438q0 180 44 341t127 281t203 191.5t271 77.5q94 2 166 -18.5t123 -56t86 -81t57 -90.5zM295 242q0 -94 29.5 -182.5t79 -157t109.5 -109.5t122 -41q63 0 124.5 41t111 109.5t79 158t29.5 183.5t-32 183 t-82 158.5t-112.5 112.5t-123.5 43q-63 0 -123 -43t-107 -113.5t-75.5 -160.5t-28.5 -182zM438 1321q-43 -23 -79.5 -51.5t-68.5 -60t-56.5 -61.5t-38.5 -54q-12 -18 -27.5 -50t-29 -68t-25 -71t-15.5 -61l47 -99l76 99q4 33 5 56.5t3 47t7.5 50t19.5 69.5q8 25 28.5 59.5 t46 71.5t54 70t53.5 53zM63 575l64 -81l63 81l-63 78zM416 -231q-51 41 -100.5 122.5t-84.5 165.5q-23 59 -21.5 121t1.5 115l-72 98l-53 -98q4 -27 12 -63.5t21.5 -76.5t30 -80t36.5 -71q45 -72 95.5 -131t134.5 -102zM1085 436l-63 -151l68 -164l77 164z" />
<glyph unicode="7" horiz-adv-x="1384" d="M49 -336l955 1655h-656l-348 -315l174 430h1155l-1007 -1774zM776 815l-6 -113l107 48l202 491zM639 578l4 -103l92 35v104zM274 -170l320 440l-6 111l-90 -45z" />
<glyph unicode="8" horiz-adv-x="1232" d="M-6 158q0 78 21.5 150.5t65.5 133t112.5 105.5t164.5 67q-131 45 -208.5 145.5t-77.5 246.5q0 98 31.5 180t96 142.5t163 95t231.5 36.5q106 2 200.5 -26.5t164 -85t110.5 -142.5t41 -200q0 -143 -73.5 -245t-194.5 -149q80 -23 145.5 -66.5t110.5 -104t69.5 -133 t24.5 -150.5q0 -109 -42 -202t-120 -162.5t-188.5 -109.5t-247.5 -40q-145 0 -257 41t-188.5 109.5t-115.5 161.5t-39 202zM219 150q0 -90 34 -168t87 -133.5t121.5 -85t136.5 -25.5q68 2 132.5 37t116.5 92t84 130t32 153t-32 152.5t-84 125.5t-116.5 85t-132.5 32 q-72 0 -139.5 -31t-120.5 -84t-86 -124.5t-33 -155.5zM295 995q0 -68 21.5 -129t61.5 -107t96 -71.5t124 -25.5q61 0 115.5 26.5t93.5 72.5t61.5 106.5t22.5 127.5q0 70 -22.5 134.5t-62.5 114.5t-93.5 81t-116.5 31q-70 0 -126 -31t-95 -81t-59.5 -114.5t-20.5 -134.5z M1067 311l-53 -151l57 -164l66 164zM104 311l-63 -151l68 -164l65 164zM993 1161l-53 -151l57 -164l66 164zM174 1165l-53 -151l57 -164l66 164z" />
<glyph unicode="9" horiz-adv-x="1269" d="M319 113l-106 -252q27 -33 70 -58q37 -23 95 -40t144 -13q63 2 134 31t131.5 101.5t98.5 198.5t36 322q2 2 -31 -24.5t-91.5 -60t-134 -61.5t-157.5 -24q-96 2 -187.5 44t-163 116t-115.5 178.5t-44 233.5q0 143 45 265t123 208t181.5 133t221.5 45q117 -2 231.5 -49 t207 -154.5t149.5 -284.5t57 -438q0 -182 -50 -341.5t-140 -279.5t-215 -191.5t-277 -77.5q-96 -4 -186 17t-165 57t-129 81t-77 90zM922 856q0 94 -30 182t-79 157t-109.5 110t-121.5 41q-63 0 -125 -41t-111 -110t-78.5 -158t-29.5 -183t31.5 -183t81.5 -159t112.5 -113 t124.5 -43q63 0 122.5 43t106.5 114t76 161t29 182zM778 -223q43 20 80 50t68.5 61.5t55.5 61.5t40 54q12 18 27.5 50t29 68t24.5 70.5t15 61.5l-47 98l-76 -98q-4 -35 -5 -57.5t-3 -46t-7 -50t-19 -69.5q-8 -25 -29 -59.5t-46.5 -71.5t-54 -70t-53.5 -53zM1153 522l-63 82 l-64 -82l64 -78zM801 1329q51 -41 100 -123t84 -166q23 -59 22 -120.5t-1 -114.5l71 -98l53 98q-4 27 -12 63.5t-21.5 76.5t-29.5 80t-37 71q-45 72 -95 131t-134 102zM131 662l64 151l-68 164l-78 -164z" />
<glyph unicode=":" horiz-adv-x="378" d="M98 176h170v-176h-170v176zM98 944h170v-176h-170v176z" />
<glyph unicode=";" horiz-adv-x="356" d="M86 176h170v-176q-2 -66 -23.5 -109t-48.5 -69q-31 -31 -71 -49l-27 32q25 18 43 48q16 23 28.5 59.5t8.5 87.5h-80v176zM86 942h170v-176h-170v176z" />
<glyph unicode="&#x3c;" horiz-adv-x="1196" d="M1079 1001l-837 -335l837 -340v-113l-954 397v109l954 391v-109z" />
<glyph unicode="=" horiz-adv-x="1083" d="M119 598h882v-96h-882v96zM119 940h882v-96h-882v96z" />
<glyph unicode="&#x3e;" horiz-adv-x="1200" d="M121 1110l954 -391v-109l-954 -397v113l837 340l-837 335v109z" />
<glyph unicode="?" horiz-adv-x="1083" d="M121 1352q29 33 88 55q51 20 137 36.5t221 16.5q137 -2 224.5 -48t138.5 -108.5t72.5 -128t25.5 -108.5q6 -61 -11.5 -127t-55 -130.5t-97 -121.5t-137.5 -102q-158 -92 -251 -175t-95 -137q-2 -27 6 -47t19 -37q10 -18 26 -34l-65 -43l-45 -30q-20 -13 -21 -11 q-55 59 -71.5 119.5t8 126t92 141.5t182.5 166q100 80 156.5 132t84 95t37 86t13.5 104q2 43 -16.5 97.5t-55.5 102.5t-90 81t-119 31q-66 -4 -108.5 -15.5t-67.5 -25.5q-29 -16 -43 -35l-311 -299zM303 -47h209v-293h-209v293zM907 1214l-53 -151l57 -164l66 164z" />
<glyph unicode="@" horiz-adv-x="1476" d="M244 -215q-47 -53 -106.5 -98t-129.5 -66q-4 68 27 135.5t65 126.5l379 475l109 131l266 332q10 14 28.5 17.5t32.5 13.5q51 45 93 96l79 105q-29 4 -36 30.5t-21 49.5q-23 -2 -42 -18.5t-23 -14.5l-70 63q18 18 39.5 23.5t45.5 5.5t48.5 -4t46.5 -4l66 -64l20 33 q4 -10 11.5 -7t11.5 1l101 125q48 59 97 133q10 2 22.5 9t18.5 16q12 4 21.5 -2.5t11.5 -18.5q-16 -4 -14 -22.5t-6 -30.5h-13l-182 -223v-13q-4 2 -5 0t-3 -4q16 -35 -23 -49l80 -55q16 -41 28.5 -87t-3.5 -94q-2 2 -28.5 18.5t-51.5 37.5q4 16 10 32.5t2 36.5 q-10 8 -24 10l-29 2q-14 1 -25.5 7t-13.5 22q-23 -35 -52.5 -66.5t-55 -64t-43 -69.5t-17.5 -82l-166 -209zM244 31q-31 -41 -67 -80t-63.5 -78t-39 -78t9.5 -78q31 2 58.5 11.5t52.5 25.5l626 778l154 195q6 4 7 15.5t-1 15.5q0 33 24.5 70.5t54.5 73.5l57 68q28 32 36 54 l-39 -14q-12 10 -3 19t3 24l-106 -133q-37 -37 -63.5 -57.5t-43 -30t-26 -13.5t-11.5 -8z" />
<glyph unicode="A" horiz-adv-x="1634" d="M934 -338l192 152l-153 673h-406l-178 -684l207 -141h-598l246 145l409 1481l-305 146h625l426 -1620l235 -152h-700zM946 602l-162 662l-180 -662h342zM1087 287l170 -459l-57 487l-78 80zM965 770l84 -80l32 109l-174 444zM1065 623l-39 -91l76 -63l35 90z" />
<glyph unicode="B" horiz-adv-x="1325" d="M776 575q137 -10 246 -61q45 -23 89 -54.5t77 -75.5t52 -104q18 -55 18 -122q0 -7 -1 -15q-4 -111 -36.5 -190.5t-94.5 -136.5q-66 -59 -164 -91t-192 -47q-111 -16 -227 -16h-543l256 135v1491l-242 146h639q29 0 76 -6.5t100.5 -22.5t106.5 -45t98 -76t74 -114.5 t33 -161.5v-18q0 -61 -13 -109q-14 -55 -38.5 -99.5t-57.5 -77t-67 -55.5q-83 -54 -189 -74zM498 641h25q112 0 200 33q43 14 82 39.5t69.5 64.5t47.5 93q15 48 14 112v16q-4 63 -23.5 110.5t-51.5 82.5t-70.5 58.5t-79.5 37.5q-96 35 -213 35v-682zM1034 162 q-8 104 -65.5 175t-143.5 126q-43 25 -99 34t-110 11q-15 1 -30 0q-46 0 -94 -4v-723q15 -1 30 -1l92 5q53 4 109.5 13t99.5 32q45 23 86 51.5t71 67.5t45 89q11 36 11 80q0 18 -2 38v6zM319 297l54 -485l63 485l-57 96zM315 797l62 -99l59 99l-61 473zM377 629l-60 -78 l60 -80l55 80zM1026 1149l-53 -152l57 -163l66 163zM1133 324l-54 -177l58 -198l65 198z" />
<glyph unicode="C" horiz-adv-x="1300" d="M1245 96l-123 -334q-45 -31 -110 -55q-55 -23 -136 -40t-190 -17q-72 0 -144.5 16.5t-141 48t-130 80.5t-108.5 113q-90 117 -126 285.5t-36 353.5q0 166 30.5 312.5t102.5 266.5q45 74 108.5 133.5t135.5 100.5t150.5 63.5t158.5 26.5q30 1 58 1q96 0 162 -11 q85 -14 132 -35q55 -23 84 -53l129 -222l-344 183q-25 12 -77 16q-35 3 -64 3q-15 0 -29 -1q-76 -2 -158.5 -42t-153.5 -131t-117 -240.5t-46 -370.5v-18q0 -192 42 -336q44 -152 113.5 -251.5t157.5 -146.5q78 -42 155 -41h20q23 2 48 7.5t49.5 13.5t44 17t32.5 20z M418 1286q-72 -43 -127 -98t-88 -101q-12 -18 -28.5 -45.5t-32 -60.5t-28 -64.5t-14.5 -58.5l54 -98l63 98q8 68 19.5 118t23.5 85q8 25 25.5 55.5t40 61l46 59.5t46.5 49zM82 586l55 -80l60 80l-60 78zM406 -178q-43 41 -91.5 114.5t-72.5 145.5q-25 72 -30 120t-5 101 l-64 98l-53 -98q6 -53 34 -123.5t66 -130.5q41 -63 92.5 -123.5t123.5 -103.5z" />
<glyph unicode="D" horiz-adv-x="1251" d="M1210 629q2 -44 3 -86q0 -217 -62 -396q-31 -90 -86 -177t-141 -155.5t-208 -110.5t-288 -42h-420l156 127v1514l-164 131h397q221 0 398 -82q76 -35 148.5 -92.5t129.5 -144.5t95 -206.5t42 -279.5zM682 -176q37 20 89 62t100.5 127t80.5 225q28 117 28 288q0 32 -1 66 q0 168 -39 311q-16 61 -44 121.5t-70 115t-100 95.5t-136 63q-14 4 -41 6.5t-54.5 3.5t-54.5 1h-41v-1516q21 -1 42 -1q41 0 77 3q47 4 94 9.5t70 19.5zM219 297l53 -485l64 485l-57 96zM215 797l61 -99l60 99l-62 473zM276 629l-59 -78l59 -80l56 80zM819 1257 q20 -20 45 -48.5t47.5 -59.5t40 -61.5t25.5 -55.5q12 -35 23.5 -85t19.5 -118l63 -98l54 98q-4 27 -15.5 59t-27 64.5t-31.5 60t-29 46.5q-33 45 -88 100t-127 98zM1098 662l-60 -78l60 -80l55 80zM829 -158q72 43 123.5 103.5t91.5 124.5q39 59 67 129.5t34 124.5l-53 98 l-64 -98q0 -53 -5 -101.5t-30 -120.5t-73 -145.5t-91 -114.5z" />
<glyph unicode="E" horiz-adv-x="1325" d="M0 1434h1169l113 -420l-291 305h-538v-717h362l141 275v-658l-137 268h-366v-692h553l278 279l-115 -412h-1165l205 139v1487zM272 305l54 -485l63 485l-57 96zM268 805l62 -98l59 98l-61 473zM330 637l-60 -78l60 -80l55 80z" />
<glyph unicode="F" horiz-adv-x="1259" d="M0 1434h1169l86 -420l-264 305h-538v-717h362l141 275v-658l-137 268h-366v-692l198 -133h-647l205 139v1487zM272 305l54 -485l63 485l-57 96zM268 805l62 -98l59 98l-61 473zM330 637l-60 -78l60 -80l55 80z" />
<glyph unicode="G" horiz-adv-x="1562" d="M1538 496l-242 -140v-577q-51 -39 -129 -70q-66 -27 -168 -47t-243 -20q-203 0 -347.5 72.5t-234.5 195.5t-132 287.5t-42 349.5q0 178 47 339t141.5 285.5t236.5 200.5t331 86q42 2 80 2q88 0 148 -10q87 -14 138 -35q59 -23 88 -57l90 -369l-352 344q-14 6 -38.5 9.5 t-53.5 4.5t-58.5 1t-52.5 -2q-111 -6 -197.5 -70t-147 -170.5t-93.5 -249.5t-33 -309t32 -307.5t91.5 -247t147.5 -169t203 -71.5q53 -4 89 -5h10q30 0 57 5q32 6 68 22.5t89 51.5v528l-252 142h729zM430 1268q-72 -43 -127 -98.5t-88 -100.5q-12 -18 -28.5 -46t-32 -60.5 t-27.5 -64.5t-14 -58l53 -99l63 99q8 68 19.5 118t23.5 84q8 25 25.5 55.5t40 61.5t46 60t46.5 49zM82 571l55 -79l60 79l-60 78zM418 -190q-43 41 -91 114.5t-73 145.5t-30 120t-5 101l-63 98l-54 -98q6 -53 34 -124t67 -130q41 -63 92 -123.5t123 -103.5zM1116 -72l62 -98 l59 98l-61 473z" />
<glyph unicode="H" horiz-adv-x="1583" d="M1366 1288v-1458l217 -168h-659l215 164v661h-660v-677l234 -148h-715l244 148v1478l-244 146h713l-232 -146v-686h660v686l-217 146h659zM307 283l53 -486l64 486l-57 96zM303 782l62 -98l59 98l-62 473zM365 614l-60 -77l60 -80l55 80zM1194 283l53 -486l64 486l-58 96 zM1190 782l61 -98l60 98l-62 473zM1251 614l-59 -77l59 -80l56 80z" />
<glyph unicode="I" horiz-adv-x="727" d="M492 -190l233 -148h-727l244 148v1478l-244 146h725l-231 -146v-1478zM307 283l60 -486l61 486l-59 96zM303 782l62 -98l63 98l-61 473zM365 614l-60 -77l60 -80l63 80z" />
<glyph unicode="J" horiz-adv-x="1056" d="M4 -162q-7 29 -7 54q0 44 20 77q32 53 110 56q27 0 50.5 -11.5t41 -32t23.5 -47t-4 -57.5q-8 -26 -8 -47q0 -23 9 -40q17 -34 87 -36q31 0 56.5 14.5t44.5 40t33.5 58.5t24.5 67q23 82 35 185v1186l-231 129h741l-252 -134v-1140v-13q0 -138 -43 -245q-18 -49 -50 -95.5 t-81 -82t-116.5 -58t-157.5 -22.5q-80 0 -136.5 20.5t-95.5 50t-61.5 63t-32.5 60.5zM498 -223q55 35 100 94t74 129q23 53 33 114.5t10 143.5l-58 98l-59 -98q0 -53 5 -107q2 -21 2 -42q0 -34 -5 -68q-10 -74 -32.5 -140.5t-69.5 -123.5zM655 1253l-61 -473l59 -98l62 98z M598 535l55 -80l60 80l-60 77z" />
<glyph unicode="K" horiz-adv-x="1464" d="M381 -199l192 -139h-634l208 148v1507l-190 121h600l-176 -121v-625l504 625l-140 121h504l-211 -121l-499 -629l690 -883l198 -143h-669l194 129l-571 721v-711zM211 297l53 -485l64 485l-58 96zM207 797l61 -99l60 99l-62 473zM268 629l-59 -78l59 -80l56 80zM506 457 l536 -586l-444 657l-131 74z" />
<glyph unicode="L" horiz-adv-x="1259" d="M2 -338l217 109v1517l-217 146h635l-184 -146v-1511h465l339 307l-133 -422h-1122zM281 283l59 -486l61 486l-59 96zM276 782l62 -98l63 98l-61 473zM338 614l-59 -77l59 -80l63 80z" />
<glyph unicode="M" horiz-adv-x="1959" d="M-4 -338l205 125v1522l-207 125h420l549 -1274l550 1274h412l-223 -125v-1530l211 -117h-651l194 117v1159l-579 -1276l-517 1276v-1147l185 -129h-549zM1528 283l59 -486l62 486l-60 96zM1524 782l61 -98l64 98l-62 473zM1585 614l-59 -77l59 -80l64 80zM678 352 l237 -430l-129 471l-88 70zM483 811l97 -70l16 113l-242 414zM606 678l-26 -94l86 -52l20 93z" />
<glyph unicode="N" horiz-adv-x="1505" d="M35 -338l254 154v1470l-285 148h410l784 -1123v977l-197 146h500l-170 -146v-1679l-895 1386v-1181l205 -152h-606zM932 375l315 -375l-217 440l-100 49zM655 788l105 -47l-4 115l-314 361zM799 684l-6 -98l92 -35l2 96z" />
<glyph unicode="O" horiz-adv-x="1554" d="M1311 1106q66 -111 102.5 -255t36.5 -304q0 -90 -14.5 -183.5t-41 -180.5t-64.5 -164.5t-83 -137.5q-98 -129 -234 -181t-288 -52q-154 0 -299 66.5t-250 191.5q-98 121 -137 287.5t-39 353.5q0 166 33 315.5t114 265.5q49 76 113 136.5t138.5 103.5t157.5 65.5t169 22.5 q178 0 331 -93t255 -257zM723 -242q117 2 203 64.5t143 169t86 249t29 306.5q0 166 -31 311.5t-91.5 255t-147.5 171.5q-84 60 -190 61h-7q-104 -2 -189.5 -65.5t-144.5 -171.5t-92 -252t-33 -310q0 -164 32 -307.5t91 -251t146 -169.5q84 -60 189 -61h7zM416 1268 q-72 -43 -127.5 -98.5t-87.5 -100.5q-12 -18 -28.5 -46t-32 -60.5t-28 -64.5t-14.5 -58l54 -99l63 99q8 68 19.5 118t23.5 84q8 25 25.5 55.5t40 61.5t46 60t46.5 49zM68 571l55 -79l59 79l-59 78zM403 -190q-43 41 -91 114.5t-72 145.5q-25 72 -30 120t-5 101l-64 98 l-53 -98q6 -53 34 -124t66 -130q41 -63 92 -123.5t123 -103.5zM1026 1268q20 -20 45 -49t47.5 -60t40 -61.5t25.5 -55.5q12 -35 23.5 -85t19.5 -117l63 -99l53 99q-4 27 -15 58.5t-26.5 64t-32 60.5t-28.5 46q-33 45 -88 100.5t-127 98.5zM1319 649l-59 -78l59 -79l55 79z M1038 -190q72 43 123 103t92 124q39 59 67 130t34 124l-54 98l-63 -98q0 -53 -5 -101.5t-30 -119.5q-25 -72 -73 -145.5t-91 -114.5z" />
<glyph unicode="P" horiz-adv-x="1153" d="M461 627q135 0 241 39q45 16 88.5 42.5t75 66.5t49.5 94q17 49 17 114v14q-4 63 -25.5 111.5t-55.5 83.5t-76 58.5t-85 37.5q-102 35 -229 35v-696zM-2 -338l223 127v1514l-225 131h588q29 0 80 -6.5t111.5 -22.5t121.5 -45t111.5 -76t83 -114.5t34.5 -161.5q0 -12 1 -24 q0 -107 -34 -183q-38 -84 -98.5 -139.5t-136.5 -86t-150.5 -45t-141.5 -16.5q-33 -1 -60 -1t-47 1v-725l225 -127h-686zM281 307l59 -485l61 485l-59 96zM276 807l62 -98l63 98l-61 473zM338 639l-59 -78l59 -80l63 80zM1022 1141l-53 -152l57 -164l66 164z" />
<glyph unicode="Q" horiz-adv-x="1587" d="M-25 -596q39 78 90.5 135.5t109.5 96t118.5 59t118.5 26.5q-66 35 -126.5 80t-109.5 105q-98 121 -137 287.5t-39 353.5q0 166 33 315.5t114 265.5q49 76 113 136.5t138.5 103.5t157.5 65.5t169 22.5q178 0 330.5 -93t255.5 -257q66 -111 102.5 -255t36.5 -304 q0 -90 -14.5 -183.5t-41 -180.5t-64.5 -164.5t-83 -137.5q-61 -80 -127.5 -126t-156.5 -70q49 -10 83 -29l74 -41q33 -16 66 -24.5t61 -10.5q33 -4 62 0l266 215l-70 -147l-58 -129l-50 -117q-41 -5 -78 -5q-55 0 -98 11q-74 18 -142 50l-141 70q-74 38 -176 64 q-86 22 -180 22h-24q-108 -3 -212 -30.5t-196.5 -77t-159.5 -114.5zM723 -242q117 2 203 64.5t143 169t86 249t29 306.5q0 166 -31 311.5t-91.5 255t-147.5 171.5q-84 60 -190 61h-7q-104 -2 -189.5 -65.5t-144.5 -171.5t-92 -252t-33 -310q0 -164 32 -307.5t91 -251 t146 -169.5q84 -60 189 -61h7zM1038 -190q72 43 123 103t92 124q39 59 67 130t34 124l-54 98l-63 -98q0 -53 -5 -101.5t-30 -119.5q-25 -72 -73 -145.5t-91 -114.5zM403 -190q-43 41 -91 114.5t-72 145.5q-25 72 -30 120t-5 101l-64 98l-53 -98q6 -53 34 -124t66 -130 q41 -63 92 -123.5t123 -103.5zM416 1268q-72 -43 -127.5 -98.5t-87.5 -100.5q-12 -18 -28.5 -46t-32 -60.5t-28 -64.5t-14.5 -58l54 -99l63 99q8 68 19.5 118t23.5 84q8 25 25.5 55.5t40 61.5t46 60t46.5 49zM1026 1268q20 -20 45 -49t47.5 -60t40 -61.5t25.5 -55.5 q12 -35 23.5 -85t19.5 -117l63 -99l53 99q-4 27 -15 58.5t-26.5 64t-32 60.5t-28.5 46q-33 45 -88 100.5t-127 98.5zM68 571l55 -79l59 79l-59 78zM1319 649l-59 -78l59 -79l55 79z" />
<glyph unicode="R" horiz-adv-x="1552" d="M8 -338l232 133v1483l-244 156h692q29 0 76 -6.5t100.5 -22.5t108.5 -45t99 -76t73 -114.5t33 -161.5q1 -13 0 -26q0 -87 -25 -152q-29 -75 -77 -126t-106.5 -83.5t-114.5 -50t-103 -23.5t-72 -6l584 -740l260 -139h-477l-572 766v-633l232 -133h-699zM483 641h29 q126 0 225 33q47 14 91 39.5t78 64.5t52 92q15 44 16 101q0 13 -1 26q-4 70 -27.5 122t-59.5 88t-79 59.5t-88 36.5q-78 23 -172 23q-31 0 -64 -3v-682zM303 307l59 -485l62 485l-59 96zM299 807l61 -98l64 98l-62 473zM360 639l-59 -78l59 -80l64 80zM588 377l510 -553 l-416 625l-131 69zM1063 1141l-53 -152l57 -164l66 164z" />
<glyph unicode="S" horiz-adv-x="1120" d="M745 1307q-80 18 -153 26q-27 3 -55 3q-37 0 -73 -5q-65 -8 -104 -43q-69 -65 -68 -131q0 -9 1 -17q10 -75 73.5 -155t161.5 -166l199 -180q113 -104 179.5 -192.5t102 -165t45 -143t9.5 -126.5q-2 -125 -60.5 -200.5t-140.5 -116.5t-170 -54.5t-149 -13.5h-28 q-117 0 -196 16q-88 17 -141 38q-61 23 -94 53l-143 405l346 -329q37 -27 84 -43q41 -14 94 -22q20 -3 40 -3q36 0 75 8q57 12 104 30.5t82 52.5t53.5 87t18.5 135q0 55 -37 120t-89.5 129.5t-111.5 122.5t-104 97l-153 122q-81 62 -151.5 133t-117.5 154q-49 87 -50 195 q0 69 36 130q38 65 105.5 113t161 76t203.5 28q111 0 192 -14.5t134 -33.5q61 -23 102 -49l107 -364zM150 1219q2 -84 20 -161t41 -126q8 -20 24.5 -49t37 -57.5t43 -55.5t44.5 -43l111 -2l-53 102q-55 41 -93 77t-63 63q-16 20 -34.5 51t-34 65.5t-26.5 70.5t-17 65z M549 653l16 -96l99 -14l-19 96zM954 -109q13 57 13 113q0 25 -2 49q-8 80 -25 152q-16 70 -48 138.5t-67 109.5l-106 30l26 -114q37 -37 69 -75t67 -104q16 -35 30.5 -74.5t23.5 -79.5t14 -78t5 -67z" />
<glyph unicode="T" horiz-adv-x="1699" d="M6 1032l199 402h1321l174 -402l-361 285h-356v-1518l205 -137h-660l215 133v1522h-376zM807 326l53 -486l64 486l-58 96zM803 825l61 -98l60 98l-62 473zM864 657l-59 -77l59 -80l56 80z" />
<glyph unicode="U" horiz-adv-x="1497" d="M664 1438l-195 -119v-1184q2 -98 39 -174q14 -33 38.5 -64.5t61.5 -56t88.5 -39t118.5 -14.5q61 0 107.5 15.5t79 41t54 58t36.5 67.5q33 82 32 185v1161l-172 123h510l-184 -119v-1151v-20q0 -129 -49 -234q-23 -47 -58.5 -93t-91 -81t-131.5 -56.5t-176 -21.5 q-115 0 -200 22.5t-146 58.5t-103 82t-67 95q-59 113 -59 256v1137l-199 125h666zM274 827l62 -98l59 98l-61 473zM336 659l-60 -77l60 -80l55 80zM492 -176q-47 57 -70 123.5t-33 140.5q-5 34 -5 68q0 21 2 42q5 54 5 107l-59 98l-58 -98q0 -82 10.5 -143.5t32.5 -114.5 q29 -70 74.5 -129t100.5 -94z" />
<glyph unicode="V" horiz-adv-x="1538" d="M-6 1438l672 -2l-203 -123l389 -1217l287 1215l-215 127h596l-232 -129l-405 -1647h-135l-539 1645zM596 332l207 -445l-96 482l-84 73zM434 803l90 -74l23 113l-209 428zM545 664l-31 -93l82 -57l27 92z" />
<glyph unicode="W" horiz-adv-x="2334" d="M-53 1434h706l-241 -119l374 -1204l314 1204l-207 119h637l-217 -119l370 -1161l295 1163l-219 117h617l-240 -119l-446 -1653h-140l-393 1335l-354 -1335h-148l-497 1653zM520 332l191 -453l-80 486l-80 75zM375 807l88 -76l26 111l-194 436zM481 664l-35 -91l80 -59 l29 90zM1432 332l190 -453l-80 486l-80 75zM1286 807l88 -76l27 111l-195 436zM1393 664l-35 -91l80 -59l28 90z" />
<glyph unicode="X" horiz-adv-x="1574" d="M12 1438h619l-158 -121l272 -496l269 498l-150 115h504l-217 -115l-336 -623l481 -905l252 -129h-755l229 123l-324 676l-321 -658l215 -141h-600l244 141l389 766l-394 746zM840 301l323 -491l-221 546l-96 58zM602 737l100 -57l3 115l-334 483zM733 618l-14 -96l90 -43 l10 96z" />
<glyph unicode="Y" horiz-adv-x="1357" d="M506 1438l-152 -119l342 -594l322 594l-160 119h473l-176 -119l-399 -725v-791l186 -141h-618l208 148v776l-407 733l-182 119h563zM588 309l69 -555l52 555l-60 97zM471 786l98 -61l6 113l-321 450zM645 649l-59 -78l59 -79l64 79z" />
<glyph unicode="Z" horiz-adv-x="1472" d="M403 -215h756l318 278l-158 -401l-1266 2l1053 1655h-723l-383 -315l193 430h1271zM1190 1241l-334 -426l-8 -113l117 48zM809 614l-104 -36l4 -103l100 35v104zM549 336l-246 -506l350 440l-6 111z" />
<glyph unicode="[" horiz-adv-x="514" d="M-2 1561h463v-91h-281v-1853h281v-94h-463v2038z" />
<glyph unicode="\" horiz-adv-x="862" d="M817 -338h-96l-719 1774h96z" />
<glyph unicode="]" horiz-adv-x="524" d="M461 -477h-463v94h281v1853h-281v91h463v-2038z" />
<glyph unicode="^" horiz-adv-x="1615" d="M1559 961l10 -29l-66 24l-106 7l-56 -7l-45 -16l-39 -29l-22 -20l-12 -8l-47 -70l-29 -51l-8 -6l-11 -19l-12 -22l-67 -68v-4l22 -8l-80 -47l-2 -4v-6l17 -27l2 -33l12 -47l-21 -53l-12 -21l-37 -8l-10 -4l-16 10l-37 -6l-10 -14v-10l-41 -58l-17 -69l-20 -33v-4l18 -25 l2 -29l8 -34l52 -9l79 -14l41 -4l140 -20l8 -3l4 -14l31 -22l16 -13l12 -20l37 -41l62 -117l14 -43l27 -49l-4 -14l10 -27l-4 -2v-6l4 -2l22 2l4 -4l-4 -8h-20l-2 -2l2 -21l-2 -4l-10 25l-170 -27l-7 -6l-71 -6l-86 -7l-11 -2l-43 2h-8l-12 9l-25 8l-36 24l-11 5l-20 -5 l-129 105l-84 65l-10 9l-35 -9l-72 4l-22 9l-31 32l-10 23l-23 25l-18 4l-15 14l-2 16l-6 13l-6 4l-8 6h-8l-103 -96l-14 -6l-29 -7l-31 -14l-45 -8l-82 -25l-4 -4l-8 6l-41 -10l-2 2l4 10l6 33l15 29l16 24l37 43v7l90 67l17 10l53 78l47 92l-17 33v6v2h-8l-16 -22l-23 -56 l-43 -63l-69 -27l-6 -6l-19 -4l-26 -10l-15 -4h-2l4 41l23 78l6 16v14l-6 6l-10 13l-9 10l2 25l17 45v41v6l14 6l72 76l8 12v12l61 35l117 45l4 8l15 6l57 47l6 13l25 39l22 69v2l-47 7l-27 -9h-10l-4 2l25 47l6 13l24 24h9h2v4l-2 2l-66 -6h-10h-4l-17 33l-2 21l-8 4 l-12 47l-4 51l-8 43v6l-3 2l17 96l49 129l68 162l12 15l8 2l41 -2l70 -15l4 -6l28 -2l70 -37l49 -37l6 -4h7l4 2l63 -78l2 -12l10 -12l-2 -16l-10 -25l-8 -12v-4l2 -2l43 10l47 2l55 6l70 -2l55 2l19 -6l90 -12l82 -29l35 -21h4l2 4l-13 15l21 -4l33 -21h16l107 -67l24 -19 l4 -8v-10zM432 842l68 8v16h-4l-2 -4l-11 4l-10 -6l-27 -2l-26 -8l-33 4l-4 6l-12 49l-13 60l-6 43l2 24l-2 11l2 22l8 55l35 101l2 12l9 16l22 62l35 69v11l8 6h8l66 -6l78 -31l63 -37l94 -82v-10l-20 -49l-17 -31h3l14 8l16 2v17l6 4l25 47l-12 24l-23 33l-33 29l-30 24 l-68 48l-49 10l-51 10l-60 8l-16 4l-8 -8l-25 -65l-28 -66l-35 -110l-29 -95l-2 -18l-4 -72l16 -63l13 -31l2 -18l6 -9l-2 -8l4 -18h12l27 4zM500 1073l-23 4l-4 -4l-2 -22l2 -4l23 10l4 6v10zM481 1102h6v4h-6v-4zM489 1130l33 33l21 13l-29 14l-14 -16l-11 2l-18 -13 l-8 -14l-6 -25h6l4 15l22 20l5 -6l-5 -8l-6 -21h6v4v2zM444 1040l-4 7v6l6 8l7 18l-7 2h-12l-14 -41l4 -4l18 -16l4 4v12zM471 879l18 41l-8 6l-24 14l-31 -70h14zM496 907l-7 -14l-6 -14l17 2v8l6 12l-2 8l-8 2v-4zM430 903l14 45l-2 2l-24 6l-4 -14l-8 -12l-9 -29l-8 -12 v-12l4 -9h10l5 2zM389 1010l-16 -33h2l28 22l-8 11h-6zM371 991l6 27l-12 6zM406 961l-31 2l8 -45l4 -11zM399 1020l27 -10v8l-18 18l4 23h-6l-9 10l-26 10l-4 -8l-2 -29l6 -6h12zM393 1118l-10 -16v-10l23 -13l8 27l-11 12l5 4l4 43l18 21l2 16l10 19l21 -4l4 14l6 18 l-27 11l-10 -27l-6 -29l-16 -22l-11 -27zM385 1139l35 86l22 41l-12 6l-33 -88zM434 1149l19 6l2 16l-21 3l-2 -3l-2 -18l2 -4h2zM442 1139h-10l-6 -21l4 -4h4l8 6v19zM444 1186l27 -4l2 2v6l-10 10h-8l-11 -4v-10zM420 1081l-2 -4l2 2v2zM440 1094l19 10v6h-4l-9 -6h-10 v-10h4zM565 1233v10l-2 -6l-10 12l-2 4l-27 2l-10 -6l-25 -59h11v2l24 39l27 4l4 -4h8zM569 1196l-4 -14l8 -17h5l4 6l2 -6h12l4 6v13zM559 1204l-16 13h-8l-3 -17l21 -10l2 2zM489 1231l5 6l-5 6h-6l-2 -12l-6 -8h6zM516 1139l-6 -49l2 -3l23 -24l43 8l18 6l20 2l19 8l8 7 l12 8v4h-2l-37 14l-22 19l-27 14l-20 6l-12 -4zM606 1159l4 -4l31 -10l2 4l4 12h-2l-2 2l-8 8l-21 5zM653 1143l2 -4l33 -11v2l-18 19h-15zM657 1171l31 -16l23 -12h6l10 16v15l-16 16l-45 22l-23 15l-47 22l-31 15l-55 26l-4 -4l-6 4l-54 29l-2 -4l-8 -29h10l17 -12l41 -19 l8 9l20 4l21 -4l14 -15l2 4l6 -6l3 -12l-5 -4v-8h2l13 -11l45 -20zM651 1274l17 45h-6l-5 4l-20 8v-6l-33 -65l6 -5l25 -8zM676 1300l-19 -28l-12 -29l31 -16l24 45l5 18l-5 6l-16 11h-8v-7zM625 1327v10h-2l-13 9l-10 4l-6 -9l-21 -47l-8 -14l4 -8h6l21 -4l10 28zM555 1286 l33 72l-37 16l-35 -74l39 -16v2zM510 1315l27 59l-11 10h-14l-12 -6v-4l-6 -14l-5 -19l-12 -14v-8h4l25 -8zM467 1325l22 59l-12 2l-22 -55zM721 1208l22 35l2 10l-24 27h-10l-4 -20l-19 -27l-2 -16h2l6 -5l23 -12l4 2v6zM735 1208l-8 -18l10 -4v4l19 31l2 16h-6zM412 758 l77 10l21 10v6l-4 -2h-6l-4 6l30 41l33 25v6h-4l-10 -12l-56 -19l-47 -22l-16 -23zM516 858l25 4l6 8l-2 9h-4l-4 2l-5 10h-10zM352 369v-43l10 -15l33 -16l41 2l17 18v11l-13 12l-16 31h-12l-25 -2l-4 -9l-6 -28l12 -2l23 -4v6l-13 12l-2 -4l-4 -10h-4l-2 2l-2 8l12 16h6 l27 -28l-12 -19l-4 4h-39l-10 15l8 45l4 6l20 2l-2 4h-30zM489 205l-43 -21l-6 -10l-4 -18l8 -11l11 -8l28 4l6 6v3l78 63l-53 10l-4 -4zM467 231l4 -4l2 4h-6zM434 207l-8 -6h6l8 6h-6zM418 205l8 8l16 12l2 -2h2v4l-34 9l-17 -5h2l17 -12zM211 487v-4l53 -24l33 -23v-10 l6 -25l-2 -2v-2l10 -20l-10 -117l23 -29l22 -30l6 16l23 31h10l2 -2l31 8l16 -8v2l-4 12l-4 4l-29 4l-2 -2l-28 10l-21 21l-12 57l-10 17v14l-13 23v10l-8 88l16 22h-4l-32 -12l-43 -14zM354 166h-2v-6h2v6zM129 123l16 4l-2 4l-8 2l-53 33l-19 -76h3l34 14zM186 150l31 55 h-4l-16 -15l-17 -6l-4 -6l-18 -10v-10l-15 -4l-26 10l53 -31l4 4zM111 184l8 -6l-2 6h-6zM287 326l6 45l-12 35l-29 26l-25 10l-37 11l-26 -15l-45 -49l-6 -18l-13 -27l-8 -33l-6 -16v-47l33 -17l16 -4l35 -14l59 61l21 11zM70 -145l6 10l-4 6l-13 39l-12 -16l-12 -21l4 -8 l-6 -6l-2 -15h8l4 6h10l6 5h11zM186 -94v6l-22 16l-4 15l-6 30l4 23h-8l-9 -2l-22 -19l-15 5l-38 -41v-9l10 -24l10 -29l12 -12v2l-18 45l2 2l-2 16l6 13l6 -6l10 -43l9 -13l39 6l8 7h4l10 -3l8 15h6zM356 4v4l-8 8l-8 11l2 4v12l-6 6l-4 47l2 8l6 29l-4 4l-4 8l2 31l-4 8 l-17 11h-12l-84 -140l-18 -18l-19 -17l-8 -14l-2 -51l29 -37l71 12zM365 205l-9 -29l2 -2h4l9 4l-6 17l18 24l4 -6v-6l-10 -6l-2 -11h8h2l12 11l6 16h-4l-2 2l-22 4zM412 160l-9 16h-6l-22 -10v-6l-2 -2l-11 -4l-4 -21h7l8 8zM377 57l53 70l-6 14h-6l-19 -6l-28 -16l-6 -15 l-7 -77l7 -7h2l18 -14v10l-2 4zM459 100l4 17l-21 2l-8 -15l-35 -41l7 -36l14 -41l6 -29l14 86zM477 -35l12 8h-8l-6 4zM477 6l12 10l-8 4v5l-6 -21v-18zM530 -123h33l-12 4l-14 13h-5l-10 -7v-6h2zM584 -127l4 4h-10v-4h6zM588 -109v9l-19 12l-10 2l-8 -4v-6l12 -13h25z M578 -72h4v2h-4v-2zM616 84l31 29l23 4l18 18l33 6l27 -6v6l-25 9l-41 4l-47 -13l-21 -14l-4 -10l-37 -45l-18 -19v-10v-8l4 -62l-4 62l8 8h2l19 4v2zM635 43l20 -12l-10 12h-10zM737 -37v2h-2zM766 -215v22l-8 25l-4 82l2 -74l-2 -45l8 -10h4zM807 -244l8 -4l-4 21l-8 59z M862 -279v11l-6 24l-14 154l-6 10h-2l4 -16l-2 -2l16 -150l4 -31h6zM862 -109v13v-13zM1341 -307v4h-8l-73 -16zM1323 -297l10 6l-10 4l-18 8l-7 5l-51 16l-69 35l-23 18l-43 17l-31 6l-10 6v8l-74 27l4 -6l-4 -7l-2 4l-20 5v-5l2 -26l-2 -6h-4l-2 2l-11 45l-18 6v-4l16 -74 l-6 -8h-2l-12 18l-16 78l-7 6h-8v-10l8 -6l5 -53l6 -31v-61l-4 -5l-7 5l-8 47l-10 45l-10 84h-6l8 -99l8 -106l33 -16l59 -15l57 4l195 23l39 8zM1210 -223l25 -15l33 -12l-33 21zM887 80l-139 10l-31 10h-31l-61 -37v-6h4l39 -20l6 -10l108 -41l17 -13l80 -43l49 -18 l153 -70l54 -24l82 -33l81 -41l25 -14h4v2l-39 90l-49 88l-90 104l-47 29h-31l-27 6l-94 19l-26 -2zM803 154l-37 36l-29 27l-14 6l-6 -6h-10l-15 -6l-24 -6l-58 -10l-10 -9l-35 -12l-39 -41l-32 -67l-13 -41l2 2l11 4h2h4h4v16l18 53l19 27h4l20 20l56 39l4 -8l-11 -10 l-14 -8l-45 -37l-18 -27l-11 -28l-12 -58h2v15l10 6h6l9 4l-4 18l8 15l71 82l27 10l2 -2l49 8l41 -2l21 -10v4l-8 8l-37 24v5l6 6l4 -4l14 -7l17 -16l26 -27l8 -10v-4l11 -10h6l8 -4v4l-2 18zM827 315l19 43l-8 19l-17 22l-55 31l-49 8l-6 -2l-11 -10v-18l-38 -43l-9 -21 l-88 -96v-4h4l4 2l37 8l6 -8l-22 -13l12 -2l39 17l17 6l45 -6l36 -12l15 2l20 -19h8v4l9 8l2 11l20 34zM897 406l8 2l-2 28v-10l-8 -8l-2 -12h4zM913 510l5 16h-5v-4l-8 -4l-10 -6l-16 4l-2 -4l-5 4h-10l-59 -4l-27 -4l-59 -19l-35 -18l-25 -18l-90 -11l-12 -4l-2 4h-2 l-6 -6h-8l-5 6h3l2 11l14 49l12 63l-4 31l4 18l-8 7l-4 16h-6l-10 18l-3 17l-8 24l2 70h-4l-10 -8l-16 -6l-23 -62l21 19l2 -2v-7l-21 -22l-4 -19l-25 -34l-51 -60h-12l-21 -18l-6 -47l2 -11l-2 -2l6 -41l25 -47l19 -4l20 -8l16 -12v-10l25 -35l4 -29h4l25 -10l6 -8l59 -7 l51 58l35 41l6 35l-2 8l7 6l61 33l43 -4l55 -15l35 -22l12 -41l13 67l4 43l8 11l6 -9v-4zM588 584v-6l-4 -7h-2v-10l-4 -12l4 -10l34 -45l27 -17h10l17 6v4l8 9l8 6l-39 20l-31 27l-12 18zM655 557l2 -2l-2 -4v-6l21 -8l18 -11l13 -10h4v2l-11 10v11l-22 18l-2 8l-14 2z M684 590l2 -2h21l28 -15l19 -2l4 7l-10 6h-13l-10 6l-33 6zM614 477l-39 43l-8 -33l-16 -38l45 16l29 6zM975 408v4l-10 12l-7 18l-8 7l-2 10l-10 51l2 2v10l-2 4l2 2v11h-4l-16 -70l4 -31l14 -30l12 -7zM995 547l-12 24l8 -43l6 -69l-6 -21h-2l-10 8l-8 23l-6 49l2 43l-2 4 l-4 -59l8 -49l14 -37h6l2 4l6 25l9 20zM997 602l41 23h-26l-11 -11zM1090 741l4 54l-9 41l-6 4l6 14l5 41l-41 94l-37 43l-21 8l-33 13l-86 18l-4 -2l-6 4l-92 8l-16 -2l45 -6l12 -12l-2 -2l-92 -2l-2 2l-160 -17l-61 -18l-17 -6l-6 -10l-25 -9l-20 -22h6l43 -10l47 -31 l51 -64l15 5l12 12l29 14l41 33l30 20l7 -6l-2 -2l-29 -22l12 4l29 18l6 -6l-2 -2v-4h4l2 4l31 6l37 4l16 -4v-4l-2 -2l-27 -4l-100 -23l-66 -36v-5l35 5l11 -11l22 -63l23 -41l34 -70l7 6l6 -6l-6 -4l-13 -10l-4 2l-16 20l-8 2l4 -14l-4 -4l-2 4l-19 33h-8l-8 -6l-8 -8 l-19 -5l-20 7l-9 10l-4 6l-4 23l17 22l2 14l-43 7l-7 4l7 6l28 6l25 -4v4l-10 12l-15 35l-16 6l-64 -61l2 -4h9l2 4l8 -8v-3l22 -4l11 -8v-8l-2 -2h-4l-3 2l-30 4v-2l-8 -49l6 -37l24 -49l70 -76h6v2l8 21l2 20l4 6l37 2l49 -12l27 -10l14 -15l-8 -8l-22 -10l-31 -37h8l4 2 l58 19l49 6l10 -6l25 2l26 14l53 80l33 49v6l8 8l9 11l12 73h-6l-33 -20l-59 -21l-48 -4l-10 -6l-84 -6l-51 6l-16 27l6 4l61 -6l140 10l26 10l62 17l61 16l2 -2v-4l-12 -10l-27 -5l-6 -81l-6 -7h-6l-11 -18v-14l-6 -11l-41 -79h4l29 32l31 49l16 21l4 -2v-8l-4 -8l-6 -19h2 l10 12l31 45zM1513 973v8l-26 27v10l-12 12l-45 33l-37 18l-13 9l-20 4l-10 -4l-17 12h-10l-47 20l-53 21l-78 18l-80 10l-117 3l-14 -9l-6 -4h-33l-119 -22l-14 -11l-19 -10l-59 -35h10l33 4l8 5h10l168 -9l31 -10l55 -26l25 -5l35 -32l47 -78l6 -21l-4 -2l-6 -51l-8 -12 v-15l14 -18v-4l4 -8l-4 -8l4 -5v-10v-2v-18l6 4l23 37l18 22l27 47l71 68l62 25l39 16l69 10l62 -6zM610 702l-22 29l-6 25h2l16 -31l16 -23l50 -10h2l2 -2l-2 -2l-35 4zM995 737l2 -18v-4l-6 -6l-26 -2l-31 -9v-6l16 -22v-8l-16 16h-6l-25 -29l-18 -18l-23 -10l-20 4l-6 10 l6 27l-4 4l-19 -7l-12 -8l-4 4l18 13l-22 4v6l53 14l72 33l53 27l10 -2zM862 602l-43 16l-16 17v6l18 -16l31 -11l41 4l2 3l2 -3zM752 614h-9l-6 4l4 7h11l4 -7z" />
<glyph unicode="_" horiz-adv-x="1093" d="M2 -311h1022v-97h-1022v97z" />
<glyph unicode="a" horiz-adv-x="1069" d="M1051 0h-467l92 106l-66 320h-256l-84 -328l109 -98h-381l143 106l285 1033l-129 102h319l316 -1151zM375 502h215l-109 434z" />
<glyph unicode="b" horiz-adv-x="860" d="M500 639q96 -8 172 -43q33 -14 63.5 -36.5t53 -54.5t36.5 -74q13 -37 13 -82v-13q-6 -152 -93 -230q-45 -43 -114.5 -64.5t-134.5 -31.5q-78 -10 -160 -10h-336l137 82v1065l-114 92h391q31 0 87 -10t111.5 -41t97.5 -89.5t46 -156.5q2 -100 -37 -158.5t-88 -91.5 q-57 -37 -131 -53zM346 684h11q65 0 114 23q23 10 45.5 27.5t38.5 45t26 65.5q8 31 7 71v18q-4 90 -42 136t-83 67q-53 23 -117 24v-477zM623 353q0 68 -29 111q-31 46 -68 75q-33 23 -65.5 33t-59.5 14q-20 3 -40 2h-19v-506q8 -1 15 -1q15 0 32 3q23 4 48.5 10t54.5 23 q47 27 88 81q43 57 43 155z" />
<glyph unicode="c" horiz-adv-x="722" d="M684 539v-482q-41 -23 -84 -41q-37 -16 -83 -27.5t-91 -11.5q-92 0 -177 46.5t-145 138.5q-59 86 -81.5 205.5t-22.5 253.5q0 121 19.5 225t66.5 190q59 106 148.5 167t191.5 67q23 1 43 1q51 0 87 -7q50 -10 79 -25q33 -18 49 -41v-424l-182 393q-19 12 -53 12 q-13 0 -27 -1q-45 -4 -84 -48.5t-68.5 -118t-46 -173t-16.5 -217.5q0 -117 17.5 -218.5t47 -176t68.5 -116.5t84 -42q18 0 40.5 9t37.5 23z" />
<glyph unicode="d" horiz-adv-x="829" d="M803 678q2 -34 2 -66q0 -155 -41 -280q-20 -66 -56 -126.5t-91.5 -107.5t-133.5 -74q-68 -24 -155 -25q-13 0 -27 1h-295l109 88v1063l-115 92h279q143 0 256 -57q49 -25 95 -65t83 -101.5t61.5 -145t28.5 -196.5zM416 113q25 14 59.5 43.5t65 89t50.5 156.5 q18 88 17 221v28l2 49q0 89 -18 166q-10 43 -25.5 86t-40 81t-60.5 69t-83 47q-20 6 -31 6h-30v-1063q8 -1 16 -1l16 1q33 5 62 21z" />
<glyph unicode="e" horiz-adv-x="768" d="M2 1239h719v-438l-150 370h-243v-495h145l98 147v-370l-94 137h-149v-496h252l141 463v-557h-719l90 78v1081z" />
<glyph unicode="f" horiz-adv-x="768" d="M2 1239h719v-438l-150 370h-243v-495h145l98 147v-370l-94 137h-149v-506l98 -84h-424l90 78v1081z" />
<glyph unicode="g" horiz-adv-x="796" d="M762 567l-78 -86v-424q-41 -23 -84 -41q-37 -16 -83 -27.5t-91 -11.5q-92 0 -177 46.5t-145 138.5q-59 86 -81.5 205.5t-22.5 253.5q0 121 19.5 225t66.5 190q59 106 148.5 167t191.5 67q23 1 43 1q51 0 87 -7q50 -10 79 -25q33 -18 49 -41v-397l-182 366q-19 12 -53 12 q-13 0 -27 -1q-45 -4 -84 -48.5t-68.5 -118t-46 -173t-16.5 -217.5q0 -117 17.5 -218.5t47 -176t68.5 -116.5t84 -42q18 0 40.5 9t37.5 23v379l-80 88h340z" />
<glyph unicode="h" horiz-adv-x="894" d="M782 1167v-1075l80 -92h-389l96 92v481h-266v-487l90 -86h-383l82 86v1071l-92 82h379l-76 -88v-487h266v493l-84 82h385z" />
<glyph unicode="i" horiz-adv-x="473" d="M2 1239h428l-86 -61v-1090l88 -88h-422l88 84v1087z" />
<glyph unicode="j" horiz-adv-x="622" d="M606 1239l-94 -82v-799q0 -100 -31 -180q-14 -35 -35.5 -66.5t-55.5 -57t-80 -40t-109 -14.5q-59 0 -98.5 16.5t-61.5 34.5q-27 23 -41 49l49 54q8 -14 25 -23q14 -8 37.5 -14t58.5 -2q45 4 68.5 36.5t33.5 73.5q10 47 11 105v831l-99 78h422z" />
<glyph unicode="k" horiz-adv-x="958" d="M311 82l88 -82h-399l102 86v1083l-98 70h395l-88 -70v-401l264 403l-57 68h279l-97 -68l-292 -456l417 -631l119 -84h-479l108 74l-262 413v-405z" />
<glyph unicode="l" horiz-adv-x="659" d="M631 0h-631l100 76v1081l-100 82h442l-98 -70v-1089h141l146 455v-535z" />
<glyph unicode="m" horiz-adv-x="1222" d="M0 0l102 86v1067l-102 86h334l262 -709l285 709h311l-107 -86v-1071l99 -82h-434l108 82v809l-313 -891l-303 891v-801l88 -90h-330z" />
<glyph unicode="n" horiz-adv-x="837" d="M0 0l102 86v1067l-102 86h242l374 -702v632l-86 70h285l-65 -61v-1178h-134l-374 756v-666l88 -90h-330z" />
<glyph unicode="o" horiz-adv-x="880" d="M770 1020q41 -80 61.5 -183.5t20.5 -215.5q0 -66 -8 -132.5t-23.5 -129t-38 -118t-49.5 -98.5q-57 -92 -137 -129t-170 -37t-176 47.5t-146 137.5q-59 86 -81.5 205.5t-22.5 253.5q0 119 19.5 224t66.5 191q59 109 148.5 171.5t191.5 62.5q104 0 194.5 -66.5 t149.5 -183.5zM424 68q45 0 83 43t65.5 116.5t44 175t16.5 218.5q0 119 -16.5 220t-45 177t-66.5 119t-83 43q-43 0 -83 -43t-68.5 -119t-46 -177.5t-17.5 -219.5q0 -117 17.5 -218.5t47 -175t69.5 -116.5t83 -43z" />
<glyph unicode="p" horiz-adv-x="776" d="M346 684h11q65 0 114 23q23 10 45.5 27.5t38.5 45t26 65.5q8 31 7 71v18q-4 90 -42 136t-83 67q-53 23 -117 24v-477zM0 0l137 82v1065l-114 92h391q31 0 88 -10t112.5 -41t97.5 -89.5t44 -156.5v-14q0 -77 -21 -131q-23 -59 -58.5 -98.5t-82.5 -61t-93 -30.5t-88 -11 q-21 -1 -39 -1t-32 1v-514l135 -82h-477z" />
<glyph unicode="q" horiz-adv-x="1024" d="M-43 -98q4 41 27.5 72.5t55.5 53t69.5 33t72.5 13.5q-23 18 -42 39.5t-36 48.5q-59 86 -81.5 205.5t-22.5 253.5q0 119 19.5 224t66.5 191q59 109 148.5 171.5t191.5 62.5q104 0 194.5 -66.5t149.5 -183.5q41 -80 61.5 -183.5t20.5 -215.5q0 -66 -8 -132.5t-23.5 -129 t-38 -118t-49.5 -98.5q-29 -47 -65.5 -78.5t-77.5 -52.5q29 -31 65.5 -53t71.5 -37q37 -18 78 -28l330 77l-301 -247q-29 -5 -55 -5h-17q-33 2 -58.5 9.5t-44 16.5t-28.5 15q-59 37 -102.5 78t-89.5 75t-103 54q-48 17 -116 17h-27q-59 -4 -120 -29t-89 -90zM207 621 q0 -98 12 -185.5t33.5 -158t51.5 -121t65 -72.5q41 -2 82 -12q39 12 72.5 59t58 120t38 167t13.5 203q0 119 -16.5 220t-45 177t-66.5 119t-83 43q-43 0 -83 -43t-68.5 -119t-46 -177t-17.5 -220z" />
<glyph unicode="r" horiz-adv-x="954" d="M0 0l137 82v1065l-114 92h391q31 0 88 -10t112.5 -41t97.5 -89.5t44 -156.5v-14q0 -85 -24 -145q-26 -65 -61.5 -104.5t-75.5 -58t-65 -18.5l279 -518l109 -84h-316l-260 537v-455l135 -82h-477zM346 684h11q65 0 114 23q23 10 45.5 27.5t38.5 45t26 65.5q8 31 7 71v18 q-4 90 -42 136t-83 67q-53 23 -117 24v-477z" />
<glyph unicode="s" horiz-adv-x="737" d="M473 1130q-41 18 -80 27l-26 2q-23 0 -46 -5q-38 -7 -71 -44q-42 -47 -42 -90q0 -6 1 -11q6 -48 45 -99.5t101 -105.5l130 -118q76 -72 120 -127t63.5 -103t22.5 -95q2 -28 2 -58q0 -21 -1 -43q-4 -86 -41 -137t-88 -79t-105.5 -37t-95.5 -9h-27q-74 0 -126 9 q-61 11 -96 26q-41 16 -64 37v473l160 -416q23 -20 51 -31q25 -10 58 -15q11 -2 24 -2q24 0 51 7q39 8 61.5 29.5t33.5 51.5q10 27 11 59q0 36 -10 77q-16 72 -70 125t-116 107l-89 76q-40 36 -72.5 71t-55.5 69.5t-35 75.5q-19 61 -18 117q0 29 5 56q15 79 60 134.5t113 86 t143 30.5q76 0 130.5 -9t88.5 -21q41 -14 70 -33v-422z" />
<glyph unicode="t" horiz-adv-x="727" d="M0 811v428h713v-432l-142 338h-96v-1061l90 -84h-413l92 80v1065h-109z" />
<glyph unicode="u" horiz-adv-x="821" d="M406 1239l-82 -78v-831q0 -61 10 -109q10 -41 32.5 -73.5t69.5 -32.5q55 0 83 34.5t38 77.5q12 51 12 115v817l-75 80h303l-82 -78v-809v-12q0 -91 -29 -164q-12 -33 -34.5 -64.5t-56.5 -56t-80 -40t-109 -15.5t-110.5 15.5t-81.5 40t-56.5 56t-34.5 66.5q-29 71 -29 158 v22v799l-94 82h406z" />
<glyph unicode="v" horiz-adv-x="935" d="M0 1239h414l-92 -84l184 -672l158 674l-115 82h362l-118 -84l-283 -1155h-94l-316 1155z" />
<glyph unicode="w" horiz-adv-x="1501" d="M0 1239h414l-92 -84l184 -672l158 672l-115 84h428l-92 -84l184 -672l158 674l-115 82h363l-119 -84l-283 -1155h-94l-248 905l-221 -905h-94l-316 1155z" />
<glyph unicode="x" horiz-adv-x="995" d="M-20 1239h387l-56 -63l170 -342l164 337l-57 68h286l-96 -68l-231 -466l315 -621l119 -84h-473l108 74l-194 401l-172 -391l88 -84h-338l117 84l239 528l-272 549z" />
<glyph unicode="y" horiz-adv-x="851" d="M-6 1239h371l-62 -84l156 -350l151 350l-69 84h258l-72 -84l-203 -483v-584l74 -88h-385l82 94v572l-209 489z" />
<glyph unicode="z" horiz-adv-x="731" d="M535 86l153 475v-561h-688l428 1159h-258l-170 -360v440h688l-432 -1153h279z" />
<glyph unicode="{" horiz-adv-x="667" d="M590 1495q4 -16 6 -28.5t2 -8.5q-88 0 -136 -19.5t-69.5 -55t-20.5 -85t11 -109.5l23 -128q12 -68 16 -139q4 -109 -33 -178.5t-82 -109.5t-83 -53.5t-36 -11.5q0 2 37 -11t81 -53t80 -113t36 -189q0 -96 -12 -176l-23 -144q-10 -63 -12 -111t16.5 -81t65.5 -49.5 t137 -16.5q2 -25 4 -43q2 -16 3 -28.5t-3 -10.5q-137 -4 -218 21.5t-122 71t-50 107.5t-2 136t21.5 154t20.5 160q4 57 -4 103t-24.5 80t-39 58.5t-47.5 40.5q-57 37 -135 49v35v23q0 10 2 10q119 35 170 97.5t63.5 146.5t-2 187t-28.5 218q-10 94 23.5 150.5t80.5 83.5 q57 35 107.5 46t87.5 13t58.5 -1t21.5 3z" />
<glyph unicode="|" horiz-adv-x="378" d="M145 1436h97v-1774h-97v1774z" />
<glyph unicode="}" horiz-adv-x="649" d="M20 1536q0 -6 21.5 -3t58.5 1t87.5 -13.5t107.5 -45.5q47 -27 81 -83.5t23 -150.5q-14 -115 -28.5 -218t-2 -187t63.5 -146.5t170 -97.5v-10q0 -4 1 -10.5t1 -12.5v-35q-78 -12 -135 -49q-25 -16 -47.5 -40.5t-39.5 -58.5t-25.5 -80t-2.5 -103q6 -80 20.5 -160t21.5 -154 t-2 -136t-50 -107.5t-122 -71t-218 -21.5q-4 -2 -4 10.5t2 28.5q2 18 6 43q88 0 136.5 16.5t66.5 49.5t16 81t-12 111l-22 144q-12 80 -13 176q0 117 36 189.5t80 112.5t81 53t37 11q2 -2 -36 11.5t-83 53.5t-82 109.5t-33 178.5q2 72 15.5 139t23.5 127.5t11 110t-20.5 85 t-69.5 55t-136 19.5q-2 -4 1 8l7 29z" />
<glyph unicode="&#xaa;" horiz-adv-x="1069" d="M1051 0h-467l92 106l-66 320h-256l-84 -328l109 -98h-381l143 106l285 1033l-129 102h319l316 -1151zM375 502h215l-109 434z" />
<glyph unicode="&#xad;" d="M119 598l510 -2v-166h-510v168z" />
<glyph unicode="&#xb2;" horiz-adv-x="1226" d="M168 1311q39 41 98 73q51 29 131 51.5t197 26.5q127 2 207 -44t126 -116.5t63.5 -154.5t21.5 -160q4 -111 -22.5 -209t-64.5 -178t-78 -137t-61 -84l-145 -191l-125 -157l-123 -150h492l303 219l-174 -436h-989q51 45 120 121l147 167q87 101 202 251 q100 129 158.5 238.5t89 196.5t41 150.5t10.5 100.5q2 57 -8.5 119.5t-36 117t-71.5 90t-116 37.5q-51 2 -88 -8t-59 -20q-29 -14 -47 -31l-189 -170l-68 -63l-59 -55l-40 -38q-15 -14 -13 -14t15.5 33t31.5 83l40 109l40 110l31 85q12 35 12 37zM379 -168l-123 -61l123 -60 l512 62zM434 1341q74 4 145.5 -1t127.5 -42q45 -29 67.5 -71.5t46.5 -98.5l94 -65l7 102q-14 31 -37 61.5t-48.5 56.5t-51 44.5t-46.5 26.5q-53 18 -133 21t-172 -34zM905 981l-59 -78l59 -80l64 80z" />
<glyph unicode="&#xb3;" horiz-adv-x="1116" d="M115 1247q37 53 96 96q51 37 129 69t195 36q115 4 201.5 -25.5t144 -83t86 -124t26.5 -150.5q-4 -135 -51 -219t-102 -131q-66 -55 -148 -84q100 -31 180 -92q33 -27 66 -62t57.5 -80t39 -102t14.5 -127q-2 -162 -53.5 -263.5t-127 -159.5t-165 -78.5t-168.5 -18.5 q-104 2 -179 15t-129 30q-61 18 -104 43l-121 352l320 -276l63 -17q29 -6 65.5 -11t77.5 -3q41 0 91.5 23.5t94.5 68.5t73.5 113.5t29.5 160.5q0 88 -20.5 154t-54 112t-76.5 75.5t-88 46.5q-106 39 -240 28q6 27 14 49q4 10 6 19l4 16l5 17q37 0 99 9t124.5 45t111 104.5 t58.5 187.5q8 61 -6.5 115.5t-45 96.5t-74.5 68.5t-95 32.5q-66 4 -104 -4t-58 -21q-23 -14 -31 -34l-332 -365zM870 1204l-53 -151l57 -164l66 164zM926 311l-54 -151l58 -164l65 164z" />
<glyph unicode="&#xb9;" horiz-adv-x="1024" d="M4 1069l387 363h174v-1594l281 -176h-795l275 164v1339zM391 283l60 -486l61 486l-59 96zM387 782l62 -98l63 98l-61 473zM449 614l-60 -77l60 -80l63 80z" />
<glyph unicode="&#xba;" horiz-adv-x="880" d="M770 1020q41 -80 61.5 -183.5t20.5 -215.5q0 -66 -8 -132.5t-23.5 -129t-38 -118t-49.5 -98.5q-57 -92 -137 -129t-170 -37t-176 47.5t-146 137.5q-59 86 -81.5 205.5t-22.5 253.5q0 119 19.5 224t66.5 191q59 109 148.5 171.5t191.5 62.5q104 0 194.5 -66.5 t149.5 -183.5zM424 68q45 0 83 43t65.5 116.5t44 175t16.5 218.5q0 119 -16.5 220t-45 177t-66.5 119t-83 43q-43 0 -83 -43t-68.5 -119t-46 -177.5t-17.5 -219.5q0 -117 17.5 -218.5t47 -175t69.5 -116.5t83 -43z" />
<glyph unicode="&#xc2;" horiz-adv-x="1634" d="M1432 2907l10 -29l-66 24l-106 7l-56 -7l-45 -16l-39 -29l-22 -20l-12 -8l-47 -70l-29 -51l-8 -6l-11 -19l-12 -22l-67 -68v-4l22 -8l-80 -47l-2 -4v-6l17 -27l2 -33l12 -47l-21 -53l-12 -21l-37 -8l-10 -4l-16 10l-37 -6l-10 -14v-10l-41 -58l-17 -69l-20 -33v-4l18 -25 l2 -29l8 -34l52 -9l79 -14l41 -4l140 -20l8 -3l4 -14l31 -22l16 -13l12 -20l37 -41l62 -117l14 -43l27 -49l-4 -14l10 -27l-4 -2v-6l4 -2l22 2l4 -4l-4 -8h-20l-2 -2l2 -21l-2 -4l-10 25l-170 -27l-7 -6l-71 -6l-86 -7l-11 -2l-43 2h-8l-12 9l-25 8l-36 24l-11 5l-20 -5 l-129 105l-84 65l-10 9l-35 -9l-72 4l-22 9l-31 32l-10 23l-23 25l-18 4l-15 14l-2 16l-6 13l-6 4l-8 6h-8l-103 -96l-14 -6l-29 -7l-31 -14l-45 -8l-82 -25l-4 -4l-8 6l-41 -10l-2 2l4 10l6 33l15 29l16 24l37 43v7l90 67l17 10l53 78l47 92l-17 33v6v2h-8l-16 -22l-23 -56 l-43 -63l-69 -27l-6 -6l-19 -4l-26 -10l-15 -4h-2l4 41l23 78l6 16v14l-6 6l-10 13l-9 10l2 25l17 45v41v6l14 6l72 76l8 12v12l61 35l117 45l4 8l15 6l57 47l6 13l25 39l22 69v2l-47 7l-27 -9h-10l-4 2l25 47l6 13l24 24h9h2v4l-2 2l-66 -6h-10h-4l-17 33l-2 21l-8 4 l-12 47l-4 51l-8 43v6l-3 2l17 96l49 129l68 162l12 15l8 2l41 -2l70 -15l4 -6l28 -2l70 -37l49 -37l6 -4h7l4 2l63 -78l2 -12l10 -12l-2 -16l-10 -25l-8 -12v-4l2 -2l43 10l47 2l55 6l70 -2l55 2l19 -6l90 -12l82 -29l35 -21h4l2 4l-13 15l21 -4l33 -21h16l107 -67l24 -19 l4 -8v-10zM305 2788l68 8v16h-4l-2 -4l-11 4l-10 -6l-27 -2l-26 -8l-33 4l-4 6l-12 49l-13 60l-6 43l2 24l-2 11l2 22l8 55l35 101l2 12l9 16l22 62l35 69v11l8 6h8l66 -6l78 -31l63 -37l94 -82v-10l-20 -49l-17 -31h3l14 8l16 2v17l6 4l25 47l-12 24l-23 33l-33 29l-30 24 l-68 48l-49 10l-51 10l-60 8l-16 4l-8 -8l-25 -65l-28 -66l-35 -110l-29 -95l-2 -18l-4 -72l16 -63l13 -31l2 -18l6 -9l-2 -8l4 -18h12l27 4zM373 3019l-23 4l-4 -4l-2 -22l2 -4l23 10l4 6v10zM354 3048h6v4h-6v-4zM362 3076l33 33l21 13l-29 14l-14 -16l-11 2l-18 -13 l-8 -14l-6 -25h6l4 15l22 20l5 -6l-5 -8l-6 -21h6v4v2zM317 2986l-4 7v6l6 8l7 18l-7 2h-12l-14 -41l4 -4l18 -16l4 4v12zM344 2825l18 41l-8 6l-24 14l-31 -70h14zM369 2853l-7 -14l-6 -14l17 2v8l6 12l-2 8l-8 2v-4zM303 2849l14 45l-2 2l-24 6l-4 -14l-8 -12l-9 -29 l-8 -12v-12l4 -9h10l5 2zM262 2956l-16 -33h2l28 22l-8 11h-6zM244 2937l6 27l-12 6zM279 2907l-31 2l8 -45l4 -11zM272 2966l27 -10v8l-18 18l4 23h-6l-9 10l-26 10l-4 -8l-2 -29l6 -6h12zM266 3064l-10 -16v-10l23 -13l8 27l-11 12l5 4l4 43l18 21l2 16l10 19l21 -4l4 14 l6 18l-27 11l-10 -27l-6 -29l-16 -22l-11 -27zM258 3085l35 86l22 41l-12 6l-33 -88zM307 3095l19 6l2 16l-21 3l-2 -3l-2 -18l2 -4h2zM315 3085h-10l-6 -21l4 -4h4l8 6v19zM317 3132l27 -4l2 2v6l-10 10h-8l-11 -4v-10zM293 3027l-2 -4l2 2v2zM313 3040l19 10v6h-4l-9 -6 h-10v-10h4zM438 3179v10l-2 -6l-10 12l-2 4l-27 2l-10 -6l-25 -59h11v2l24 39l27 4l4 -4h8zM442 3142l-4 -14l8 -17h5l4 6l2 -6h12l4 6v13zM432 3150l-16 13h-8l-3 -17l21 -10l2 2zM362 3177l5 6l-5 6h-6l-2 -12l-6 -8h6zM389 3085l-6 -49l2 -3l23 -24l43 8l18 6l20 2l19 8 l8 7l12 8v4h-2l-37 14l-22 19l-27 14l-20 6l-12 -4zM479 3105l4 -4l31 -10l2 4l4 12h-2l-2 2l-8 8l-21 5zM526 3089l2 -4l33 -11v2l-18 19h-15zM530 3117l31 -16l23 -12h6l10 16v15l-16 16l-45 22l-23 15l-47 22l-31 15l-55 26l-4 -4l-6 4l-54 29l-2 -4l-8 -29h10l17 -12 l41 -19l8 9l20 4l21 -4l14 -15l2 4l6 -6l3 -12l-5 -4v-8h2l13 -11l45 -20zM524 3220l17 45h-6l-5 4l-20 8v-6l-33 -65l6 -5l25 -8zM549 3246l-19 -28l-12 -29l31 -16l24 45l5 18l-5 6l-16 11h-8v-7zM498 3273v10h-2l-13 9l-10 4l-6 -9l-21 -47l-8 -14l4 -8h6l21 -4l10 28z M428 3232l33 72l-37 16l-35 -74l39 -16v2zM383 3261l27 59l-11 10h-14l-12 -6v-4l-6 -14l-5 -19l-12 -14v-8h4l25 -8zM340 3271l22 59l-12 2l-22 -55zM594 3154l22 35l2 10l-24 27h-10l-4 -20l-19 -27l-2 -16h2l6 -5l23 -12l4 2v6zM608 3154l-8 -18l10 -4v4l19 31l2 16h-6z M285 2704l77 10l21 10v6l-4 -2h-6l-4 6l30 41l33 25v6h-4l-10 -12l-56 -19l-47 -22l-16 -23zM389 2804l25 4l6 8l-2 9h-4l-4 2l-5 10h-10zM225 2315v-43l10 -15l33 -16l41 2l17 18v11l-13 12l-16 31h-12l-25 -2l-4 -9l-6 -28l12 -2l23 -4v6l-13 12l-2 -4l-4 -10h-4l-2 2 l-2 8l12 16h6l27 -28l-12 -19l-4 4h-39l-10 15l8 45l4 6l20 2l-2 4h-30zM362 2151l-43 -21l-6 -10l-4 -18l8 -11l11 -8l28 4l6 6v3l78 63l-53 10l-4 -4zM340 2177l4 -4l2 4h-6zM307 2153l-8 -6h6l8 6h-6zM291 2151l8 8l16 12l2 -2h2v4l-34 9l-17 -5h2l17 -12zM84 2433v-4 l53 -24l33 -23v-10l6 -25l-2 -2v-2l10 -20l-10 -117l23 -29l22 -30l6 16l23 31h10l2 -2l31 8l16 -8v2l-4 12l-4 4l-29 4l-2 -2l-28 10l-21 21l-12 57l-10 17v14l-13 23v10l-8 88l16 22h-4l-32 -12l-43 -14zM227 2112h-2v-6h2v6zM2 2069l16 4l-2 4l-8 2l-53 33l-19 -76h3 l34 14zM59 2096l31 55h-4l-16 -15l-17 -6l-4 -6l-18 -10v-10l-15 -4l-26 10l53 -31l4 4zM-16 2130l8 -6l-2 6h-6zM160 2272l6 45l-12 35l-29 26l-25 10l-37 11l-26 -15l-45 -49l-6 -18l-13 -27l-8 -33l-6 -16v-47l33 -17l16 -4l35 -14l59 61l21 11zM-57 1801l6 10l-4 6 l-13 39l-12 -16l-12 -21l4 -8l-6 -6l-2 -15h8l4 6h10l6 5h11zM59 1852v6l-22 16l-4 15l-6 30l4 23h-8l-9 -2l-22 -19l-15 5l-38 -41v-9l10 -24l10 -29l12 -12v2l-18 45l2 2l-2 16l6 13l6 -6l10 -43l9 -13l39 6l8 7h4l10 -3l8 15h6zM229 1950v4l-8 8l-8 11l2 4v12l-6 6l-4 47 l2 8l6 29l-4 4l-4 8l2 31l-4 8l-17 11h-12l-84 -140l-18 -18l-19 -17l-8 -14l-2 -51l29 -37l71 12zM238 2151l-9 -29l2 -2h4l9 4l-6 17l18 24l4 -6v-6l-10 -6l-2 -11h8h2l12 11l6 16h-4l-2 2l-22 4zM285 2106l-9 16h-6l-22 -10v-6l-2 -2l-11 -4l-4 -21h7l8 8zM250 2003 l53 70l-6 14h-6l-19 -6l-28 -16l-6 -15l-7 -77l7 -7h2l18 -14v10l-2 4zM332 2046l4 17l-21 2l-8 -15l-35 -41l7 -36l14 -41l6 -29l14 86zM350 1911l12 8h-8l-6 4zM350 1952l12 10l-8 4v5l-6 -21v-18zM403 1823h33l-12 4l-14 13h-5l-10 -7v-6h2zM457 1819l4 4h-10v-4h6z M461 1837v9l-19 12l-10 2l-8 -4v-6l12 -13h25zM451 1874h4v2h-4v-2zM489 2030l31 29l23 4l18 18l33 6l27 -6v6l-25 9l-41 4l-47 -13l-21 -14l-4 -10l-37 -45l-18 -19v-10v-8l4 -62l-4 62l8 8h2l19 4v2zM508 1989l20 -12l-10 12h-10zM610 1909v2h-2zM639 1731v22l-8 25l-4 82 l2 -74l-2 -45l8 -10h4zM680 1702l8 -4l-4 21l-8 59zM735 1667v11l-6 24l-14 154l-6 10h-2l4 -16l-2 -2l16 -150l4 -31h6zM735 1837v13v-13zM1214 1639v4h-8l-73 -16zM1196 1649l10 6l-10 4l-18 8l-7 5l-51 16l-69 35l-23 18l-43 17l-31 6l-10 6v8l-74 27l4 -6l-4 -7l-2 4 l-20 5v-5l2 -26l-2 -6h-4l-2 2l-11 45l-18 6v-4l16 -74l-6 -8h-2l-12 18l-16 78l-7 6h-8v-10l8 -6l5 -53l6 -31v-61l-4 -5l-7 5l-8 47l-10 45l-10 84h-6l8 -99l8 -106l33 -16l59 -15l57 4l195 23l39 8zM1083 1723l25 -15l33 -12l-33 21zM760 2026l-139 10l-31 10h-31 l-61 -37v-6h4l39 -20l6 -10l108 -41l17 -13l80 -43l49 -18l153 -70l54 -24l82 -33l81 -41l25 -14h4v2l-39 90l-49 88l-90 104l-47 29h-31l-27 6l-94 19l-26 -2zM676 2100l-37 36l-29 27l-14 6l-6 -6h-10l-15 -6l-24 -6l-58 -10l-10 -9l-35 -12l-39 -41l-32 -67l-13 -41l2 2 l11 4h2h4h4v16l18 53l19 27h4l20 20l56 39l4 -8l-11 -10l-14 -8l-45 -37l-18 -27l-11 -28l-12 -58h2v15l10 6h6l9 4l-4 18l8 15l71 82l27 10l2 -2l49 8l41 -2l21 -10v4l-8 8l-37 24v5l6 6l4 -4l14 -7l17 -16l26 -27l8 -10v-4l11 -10h6l8 -4v4l-2 18zM700 2261l19 43l-8 19 l-17 22l-55 31l-49 8l-6 -2l-11 -10v-18l-38 -43l-9 -21l-88 -96v-4h4l4 2l37 8l6 -8l-22 -13l12 -2l39 17l17 6l45 -6l36 -12l15 2l20 -19h8v4l9 8l2 11l20 34zM770 2352l8 2l-2 28v-10l-8 -8l-2 -12h4zM786 2456l5 16h-5v-4l-8 -4l-10 -6l-16 4l-2 -4l-5 4h-10l-59 -4 l-27 -4l-59 -19l-35 -18l-25 -18l-90 -11l-12 -4l-2 4h-2l-6 -6h-8l-5 6h3l2 11l14 49l12 63l-4 31l4 18l-8 7l-4 16h-6l-10 18l-3 17l-8 24l2 70h-4l-10 -8l-16 -6l-23 -62l21 19l2 -2v-7l-21 -22l-4 -19l-25 -34l-51 -60h-12l-21 -18l-6 -47l2 -11l-2 -2l6 -41l25 -47 l19 -4l20 -8l16 -12v-10l25 -35l4 -29h4l25 -10l6 -8l59 -7l51 58l35 41l6 35l-2 8l7 6l61 33l43 -4l55 -15l35 -22l12 -41l13 67l4 43l8 11l6 -9v-4zM461 2530v-6l-4 -7h-2v-10l-4 -12l4 -10l34 -45l27 -17h10l17 6v4l8 9l8 6l-39 20l-31 27l-12 18zM528 2503l2 -2l-2 -4 v-6l21 -8l18 -11l13 -10h4v2l-11 10v11l-22 18l-2 8l-14 2zM557 2536l2 -2h21l28 -15l19 -2l4 7l-10 6h-13l-10 6l-33 6zM487 2423l-39 43l-8 -33l-16 -38l45 16l29 6zM848 2354v4l-10 12l-7 18l-8 7l-2 10l-10 51l2 2v10l-2 4l2 2v11h-4l-16 -70l4 -31l14 -30l12 -7z M868 2493l-12 24l8 -43l6 -69l-6 -21h-2l-10 8l-8 23l-6 49l2 43l-2 4l-4 -59l8 -49l14 -37h6l2 4l6 25l9 20zM870 2548l41 23h-26l-11 -11zM963 2687l4 54l-9 41l-6 4l6 14l5 41l-41 94l-37 43l-21 8l-33 13l-86 18l-4 -2l-6 4l-92 8l-16 -2l45 -6l12 -12l-2 -2l-92 -2 l-2 2l-160 -17l-61 -18l-17 -6l-6 -10l-25 -9l-20 -22h6l43 -10l47 -31l51 -64l15 5l12 12l29 14l41 33l30 20l7 -6l-2 -2l-29 -22l12 4l29 18l6 -6l-2 -2v-4h4l2 4l31 6l37 4l16 -4v-4l-2 -2l-27 -4l-100 -23l-66 -36v-5l35 5l11 -11l22 -63l23 -41l34 -70l7 6l6 -6l-6 -4 l-13 -10l-4 2l-16 20l-8 2l4 -14l-4 -4l-2 4l-19 33h-8l-8 -6l-8 -8l-19 -5l-20 7l-9 10l-4 6l-4 23l17 22l2 14l-43 7l-7 4l7 6l28 6l25 -4v4l-10 12l-15 35l-16 6l-64 -61l2 -4h9l2 4l8 -8v-3l22 -4l11 -8v-8l-2 -2h-4l-3 2l-30 4v-2l-8 -49l6 -37l24 -49l70 -76h6v2l8 21 l2 20l4 6l37 2l49 -12l27 -10l14 -15l-8 -8l-22 -10l-31 -37h8l4 2l58 19l49 6l10 -6l25 2l26 14l53 80l33 49v6l8 8l9 11l12 73h-6l-33 -20l-59 -21l-48 -4l-10 -6l-84 -6l-51 6l-16 27l6 4l61 -6l140 10l26 10l62 17l61 16l2 -2v-4l-12 -10l-27 -5l-6 -81l-6 -7h-6 l-11 -18v-14l-6 -11l-41 -79h4l29 32l31 49l16 21l4 -2v-8l-4 -8l-6 -19h2l10 12l31 45zM1386 2919v8l-26 27v10l-12 12l-45 33l-37 18l-13 9l-20 4l-10 -4l-17 12h-10l-47 20l-53 21l-78 18l-80 10l-117 3l-14 -9l-6 -4h-33l-119 -22l-14 -11l-19 -10l-59 -35h10l33 4l8 5 h10l168 -9l31 -10l55 -26l25 -5l35 -32l47 -78l6 -21l-4 -2l-6 -51l-8 -12v-15l14 -18v-4l4 -8l-4 -8l4 -5v-10v-2v-18l6 4l23 37l18 22l27 47l71 68l62 25l39 16l69 10l62 -6zM483 2648l-22 29l-6 25h2l16 -31l16 -23l50 -10h2l2 -2l-2 -2l-35 4zM868 2683l2 -18v-4l-6 -6 l-26 -2l-31 -9v-6l16 -22v-8l-16 16h-6l-25 -29l-18 -18l-23 -10l-20 4l-6 10l6 27l-4 4l-19 -7l-12 -8l-4 4l18 13l-22 4v6l53 14l72 33l53 27l10 -2zM735 2548l-43 16l-16 17v6l18 -16l31 -11l41 4l2 3l2 -3zM625 2560h-9l-6 4l4 7h11l4 -7zM934 -338l192 152l-153 673 h-406l-178 -684l207 -141h-598l246 145l409 1481l-305 146h625l426 -1620l235 -152h-700zM946 602l-162 662l-180 -662h342zM1087 287l170 -459l-57 487l-78 80zM965 770l84 -80l32 109l-174 444zM1065 623l-39 -91l76 -63l35 90z" />
<glyph unicode="&#xca;" horiz-adv-x="1325" d="M1354 2907l10 -29l-66 24l-106 7l-56 -7l-45 -16l-39 -29l-22 -20l-12 -8l-47 -70l-29 -51l-8 -6l-11 -19l-12 -22l-67 -68v-4l22 -8l-80 -47l-2 -4v-6l17 -27l2 -33l12 -47l-21 -53l-12 -21l-37 -8l-10 -4l-16 10l-37 -6l-10 -14v-10l-41 -58l-17 -69l-20 -33v-4l18 -25 l2 -29l8 -34l52 -9l79 -14l41 -4l140 -20l8 -3l4 -14l31 -22l16 -13l12 -20l37 -41l62 -117l14 -43l27 -49l-4 -14l10 -27l-4 -2v-6l4 -2l22 2l4 -4l-4 -8h-20l-2 -2l2 -21l-2 -4l-10 25l-170 -27l-7 -6l-71 -6l-86 -7l-11 -2l-43 2h-8l-12 9l-25 8l-36 24l-11 5l-20 -5 l-129 105l-84 65l-10 9l-35 -9l-72 4l-22 9l-31 32l-10 23l-23 25l-18 4l-15 14l-2 16l-6 13l-6 4l-8 6h-8l-103 -96l-14 -6l-29 -7l-31 -14l-45 -8l-82 -25l-4 -4l-8 6l-41 -10l-2 2l4 10l6 33l15 29l16 24l37 43v7l90 67l17 10l53 78l47 92l-17 33v6v2h-8l-16 -22l-23 -56 l-43 -63l-69 -27l-6 -6l-19 -4l-26 -10l-15 -4h-2l4 41l23 78l6 16v14l-6 6l-10 13l-9 10l2 25l17 45v41v6l14 6l72 76l8 12v12l61 35l117 45l4 8l15 6l57 47l6 13l25 39l22 69v2l-47 7l-27 -9h-10l-4 2l25 47l6 13l24 24h9h2v4l-2 2l-66 -6h-10h-4l-17 33l-2 21l-8 4 l-12 47l-4 51l-8 43v6l-3 2l17 96l49 129l68 162l12 15l8 2l41 -2l70 -15l4 -6l28 -2l70 -37l49 -37l6 -4h7l4 2l63 -78l2 -12l10 -12l-2 -16l-10 -25l-8 -12v-4l2 -2l43 10l47 2l55 6l70 -2l55 2l19 -6l90 -12l82 -29l35 -21h4l2 4l-13 15l21 -4l33 -21h16l107 -67l24 -19 l4 -8v-10zM227 2788l68 8v16h-4l-2 -4l-11 4l-10 -6l-27 -2l-26 -8l-33 4l-4 6l-12 49l-13 60l-6 43l2 24l-2 11l2 22l8 55l35 101l2 12l9 16l22 62l35 69v11l8 6h8l66 -6l78 -31l63 -37l94 -82v-10l-20 -49l-17 -31h3l14 8l16 2v17l6 4l25 47l-12 24l-23 33l-33 29l-30 24 l-68 48l-49 10l-51 10l-60 8l-16 4l-8 -8l-25 -65l-28 -66l-35 -110l-29 -95l-2 -18l-4 -72l16 -63l13 -31l2 -18l6 -9l-2 -8l4 -18h12l27 4zM295 3019l-23 4l-4 -4l-2 -22l2 -4l23 10l4 6v10zM276 3048h6v4h-6v-4zM284 3076l33 33l21 13l-29 14l-14 -16l-11 2l-18 -13 l-8 -14l-6 -25h6l4 15l22 20l5 -6l-5 -8l-6 -21h6v4v2zM239 2986l-4 7v6l6 8l7 18l-7 2h-12l-14 -41l4 -4l18 -16l4 4v12zM266 2825l18 41l-8 6l-24 14l-31 -70h14zM291 2853l-7 -14l-6 -14l17 2v8l6 12l-2 8l-8 2v-4zM225 2849l14 45l-2 2l-24 6l-4 -14l-8 -12l-9 -29 l-8 -12v-12l4 -9h10l5 2zM184 2956l-16 -33h2l28 22l-8 11h-6zM166 2937l6 27l-12 6zM201 2907l-31 2l8 -45l4 -11zM194 2966l27 -10v8l-18 18l4 23h-6l-9 10l-26 10l-4 -8l-2 -29l6 -6h12zM188 3064l-10 -16v-10l23 -13l8 27l-11 12l5 4l4 43l18 21l2 16l10 19l21 -4l4 14 l6 18l-27 11l-10 -27l-6 -29l-16 -22l-11 -27zM180 3085l35 86l22 41l-12 6l-33 -88zM229 3095l19 6l2 16l-21 3l-2 -3l-2 -18l2 -4h2zM237 3085h-10l-6 -21l4 -4h4l8 6v19zM239 3132l27 -4l2 2v6l-10 10h-8l-11 -4v-10zM215 3027l-2 -4l2 2v2zM235 3040l19 10v6h-4l-9 -6 h-10v-10h4zM360 3179v10l-2 -6l-10 12l-2 4l-27 2l-10 -6l-25 -59h11v2l24 39l27 4l4 -4h8zM364 3142l-4 -14l8 -17h5l4 6l2 -6h12l4 6v13zM354 3150l-16 13h-8l-3 -17l21 -10l2 2zM284 3177l5 6l-5 6h-6l-2 -12l-6 -8h6zM311 3085l-6 -49l2 -3l23 -24l43 8l18 6l20 2l19 8 l8 7l12 8v4h-2l-37 14l-22 19l-27 14l-20 6l-12 -4zM401 3105l4 -4l31 -10l2 4l4 12h-2l-2 2l-8 8l-21 5zM448 3089l2 -4l33 -11v2l-18 19h-15zM452 3117l31 -16l23 -12h6l10 16v15l-16 16l-45 22l-23 15l-47 22l-31 15l-55 26l-4 -4l-6 4l-54 29l-2 -4l-8 -29h10l17 -12 l41 -19l8 9l20 4l21 -4l14 -15l2 4l6 -6l3 -12l-5 -4v-8h2l13 -11l45 -20zM446 3220l17 45h-6l-5 4l-20 8v-6l-33 -65l6 -5l25 -8zM471 3246l-19 -28l-12 -29l31 -16l24 45l5 18l-5 6l-16 11h-8v-7zM420 3273v10h-2l-13 9l-10 4l-6 -9l-21 -47l-8 -14l4 -8h6l21 -4l10 28z M350 3232l33 72l-37 16l-35 -74l39 -16v2zM305 3261l27 59l-11 10h-14l-12 -6v-4l-6 -14l-5 -19l-12 -14v-8h4l25 -8zM262 3271l22 59l-12 2l-22 -55zM516 3154l22 35l2 10l-24 27h-10l-4 -20l-19 -27l-2 -16h2l6 -5l23 -12l4 2v6zM530 3154l-8 -18l10 -4v4l19 31l2 16h-6z M207 2704l77 10l21 10v6l-4 -2h-6l-4 6l30 41l33 25v6h-4l-10 -12l-56 -19l-47 -22l-16 -23zM311 2804l25 4l6 8l-2 9h-4l-4 2l-5 10h-10zM147 2315v-43l10 -15l33 -16l41 2l17 18v11l-13 12l-16 31h-12l-25 -2l-4 -9l-6 -28l12 -2l23 -4v6l-13 12l-2 -4l-4 -10h-4l-2 2 l-2 8l12 16h6l27 -28l-12 -19l-4 4h-39l-10 15l8 45l4 6l20 2l-2 4h-30zM284 2151l-43 -21l-6 -10l-4 -18l8 -11l11 -8l28 4l6 6v3l78 63l-53 10l-4 -4zM262 2177l4 -4l2 4h-6zM229 2153l-8 -6h6l8 6h-6zM213 2151l8 8l16 12l2 -2h2v4l-34 9l-17 -5h2l17 -12zM6 2433v-4 l53 -24l33 -23v-10l6 -25l-2 -2v-2l10 -20l-10 -117l23 -29l22 -30l6 16l23 31h10l2 -2l31 8l16 -8v2l-4 12l-4 4l-29 4l-2 -2l-28 10l-21 21l-12 57l-10 17v14l-13 23v10l-8 88l16 22h-4l-32 -12l-43 -14zM149 2112h-2v-6h2v6zM-76 2069l16 4l-2 4l-8 2l-53 33l-19 -76h3 l34 14zM-19 2096l31 55h-4l-16 -15l-17 -6l-4 -6l-18 -10v-10l-15 -4l-26 10l53 -31l4 4zM-94 2130l8 -6l-2 6h-6zM82 2272l6 45l-12 35l-29 26l-25 10l-37 11l-26 -15l-45 -49l-6 -18l-13 -27l-8 -33l-6 -16v-47l33 -17l16 -4l35 -14l59 61l21 11zM-135 1801l6 10l-4 6 l-13 39l-12 -16l-12 -21l4 -8l-6 -6l-2 -15h8l4 6h10l6 5h11zM-19 1852v6l-22 16l-4 15l-6 30l4 23h-8l-9 -2l-22 -19l-15 5l-38 -41v-9l10 -24l10 -29l12 -12v2l-18 45l2 2l-2 16l6 13l6 -6l10 -43l9 -13l39 6l8 7h4l10 -3l8 15h6zM151 1950v4l-8 8l-8 11l2 4v12l-6 6 l-4 47l2 8l6 29l-4 4l-4 8l2 31l-4 8l-17 11h-12l-84 -140l-18 -18l-19 -17l-8 -14l-2 -51l29 -37l71 12zM160 2151l-9 -29l2 -2h4l9 4l-6 17l18 24l4 -6v-6l-10 -6l-2 -11h8h2l12 11l6 16h-4l-2 2l-22 4zM207 2106l-9 16h-6l-22 -10v-6l-2 -2l-11 -4l-4 -21h7l8 8z M172 2003l53 70l-6 14h-6l-19 -6l-28 -16l-6 -15l-7 -77l7 -7h2l18 -14v10l-2 4zM254 2046l4 17l-21 2l-8 -15l-35 -41l7 -36l14 -41l6 -29l14 86zM272 1911l12 8h-8l-6 4zM272 1952l12 10l-8 4v5l-6 -21v-18zM325 1823h33l-12 4l-14 13h-5l-10 -7v-6h2zM379 1819l4 4h-10 v-4h6zM383 1837v9l-19 12l-10 2l-8 -4v-6l12 -13h25zM373 1874h4v2h-4v-2zM411 2030l31 29l23 4l18 18l33 6l27 -6v6l-25 9l-41 4l-47 -13l-21 -14l-4 -10l-37 -45l-18 -19v-10v-8l4 -62l-4 62l8 8h2l19 4v2zM430 1989l20 -12l-10 12h-10zM532 1909v2h-2zM561 1731v22l-8 25 l-4 82l2 -74l-2 -45l8 -10h4zM602 1702l8 -4l-4 21l-8 59zM657 1667v11l-6 24l-14 154l-6 10h-2l4 -16l-2 -2l16 -150l4 -31h6zM657 1837v13v-13zM1136 1639v4h-8l-73 -16zM1118 1649l10 6l-10 4l-18 8l-7 5l-51 16l-69 35l-23 18l-43 17l-31 6l-10 6v8l-74 27l4 -6l-4 -7 l-2 4l-20 5v-5l2 -26l-2 -6h-4l-2 2l-11 45l-18 6v-4l16 -74l-6 -8h-2l-12 18l-16 78l-7 6h-8v-10l8 -6l5 -53l6 -31v-61l-4 -5l-7 5l-8 47l-10 45l-10 84h-6l8 -99l8 -106l33 -16l59 -15l57 4l195 23l39 8zM1005 1723l25 -15l33 -12l-33 21zM682 2026l-139 10l-31 10h-31 l-61 -37v-6h4l39 -20l6 -10l108 -41l17 -13l80 -43l49 -18l153 -70l54 -24l82 -33l81 -41l25 -14h4v2l-39 90l-49 88l-90 104l-47 29h-31l-27 6l-94 19l-26 -2zM598 2100l-37 36l-29 27l-14 6l-6 -6h-10l-15 -6l-24 -6l-58 -10l-10 -9l-35 -12l-39 -41l-32 -67l-13 -41l2 2 l11 4h2h4h4v16l18 53l19 27h4l20 20l56 39l4 -8l-11 -10l-14 -8l-45 -37l-18 -27l-11 -28l-12 -58h2v15l10 6h6l9 4l-4 18l8 15l71 82l27 10l2 -2l49 8l41 -2l21 -10v4l-8 8l-37 24v5l6 6l4 -4l14 -7l17 -16l26 -27l8 -10v-4l11 -10h6l8 -4v4l-2 18zM622 2261l19 43l-8 19 l-17 22l-55 31l-49 8l-6 -2l-11 -10v-18l-38 -43l-9 -21l-88 -96v-4h4l4 2l37 8l6 -8l-22 -13l12 -2l39 17l17 6l45 -6l36 -12l15 2l20 -19h8v4l9 8l2 11l20 34zM692 2352l8 2l-2 28v-10l-8 -8l-2 -12h4zM708 2456l5 16h-5v-4l-8 -4l-10 -6l-16 4l-2 -4l-5 4h-10l-59 -4 l-27 -4l-59 -19l-35 -18l-25 -18l-90 -11l-12 -4l-2 4h-2l-6 -6h-8l-5 6h3l2 11l14 49l12 63l-4 31l4 18l-8 7l-4 16h-6l-10 18l-3 17l-8 24l2 70h-4l-10 -8l-16 -6l-23 -62l21 19l2 -2v-7l-21 -22l-4 -19l-25 -34l-51 -60h-12l-21 -18l-6 -47l2 -11l-2 -2l6 -41l25 -47 l19 -4l20 -8l16 -12v-10l25 -35l4 -29h4l25 -10l6 -8l59 -7l51 58l35 41l6 35l-2 8l7 6l61 33l43 -4l55 -15l35 -22l12 -41l13 67l4 43l8 11l6 -9v-4zM383 2530v-6l-4 -7h-2v-10l-4 -12l4 -10l34 -45l27 -17h10l17 6v4l8 9l8 6l-39 20l-31 27l-12 18zM450 2503l2 -2l-2 -4 v-6l21 -8l18 -11l13 -10h4v2l-11 10v11l-22 18l-2 8l-14 2zM479 2536l2 -2h21l28 -15l19 -2l4 7l-10 6h-13l-10 6l-33 6zM409 2423l-39 43l-8 -33l-16 -38l45 16l29 6zM770 2354v4l-10 12l-7 18l-8 7l-2 10l-10 51l2 2v10l-2 4l2 2v11h-4l-16 -70l4 -31l14 -30l12 -7z M790 2493l-12 24l8 -43l6 -69l-6 -21h-2l-10 8l-8 23l-6 49l2 43l-2 4l-4 -59l8 -49l14 -37h6l2 4l6 25l9 20zM792 2548l41 23h-26l-11 -11zM885 2687l4 54l-9 41l-6 4l6 14l5 41l-41 94l-37 43l-21 8l-33 13l-86 18l-4 -2l-6 4l-92 8l-16 -2l45 -6l12 -12l-2 -2l-92 -2 l-2 2l-160 -17l-61 -18l-17 -6l-6 -10l-25 -9l-20 -22h6l43 -10l47 -31l51 -64l15 5l12 12l29 14l41 33l30 20l7 -6l-2 -2l-29 -22l12 4l29 18l6 -6l-2 -2v-4h4l2 4l31 6l37 4l16 -4v-4l-2 -2l-27 -4l-100 -23l-66 -36v-5l35 5l11 -11l22 -63l23 -41l34 -70l7 6l6 -6l-6 -4 l-13 -10l-4 2l-16 20l-8 2l4 -14l-4 -4l-2 4l-19 33h-8l-8 -6l-8 -8l-19 -5l-20 7l-9 10l-4 6l-4 23l17 22l2 14l-43 7l-7 4l7 6l28 6l25 -4v4l-10 12l-15 35l-16 6l-64 -61l2 -4h9l2 4l8 -8v-3l22 -4l11 -8v-8l-2 -2h-4l-3 2l-30 4v-2l-8 -49l6 -37l24 -49l70 -76h6v2l8 21 l2 20l4 6l37 2l49 -12l27 -10l14 -15l-8 -8l-22 -10l-31 -37h8l4 2l58 19l49 6l10 -6l25 2l26 14l53 80l33 49v6l8 8l9 11l12 73h-6l-33 -20l-59 -21l-48 -4l-10 -6l-84 -6l-51 6l-16 27l6 4l61 -6l140 10l26 10l62 17l61 16l2 -2v-4l-12 -10l-27 -5l-6 -81l-6 -7h-6 l-11 -18v-14l-6 -11l-41 -79h4l29 32l31 49l16 21l4 -2v-8l-4 -8l-6 -19h2l10 12l31 45zM1308 2919v8l-26 27v10l-12 12l-45 33l-37 18l-13 9l-20 4l-10 -4l-17 12h-10l-47 20l-53 21l-78 18l-80 10l-117 3l-14 -9l-6 -4h-33l-119 -22l-14 -11l-19 -10l-59 -35h10l33 4l8 5 h10l168 -9l31 -10l55 -26l25 -5l35 -32l47 -78l6 -21l-4 -2l-6 -51l-8 -12v-15l14 -18v-4l4 -8l-4 -8l4 -5v-10v-2v-18l6 4l23 37l18 22l27 47l71 68l62 25l39 16l69 10l62 -6zM405 2648l-22 29l-6 25h2l16 -31l16 -23l50 -10h2l2 -2l-2 -2l-35 4zM790 2683l2 -18v-4l-6 -6 l-26 -2l-31 -9v-6l16 -22v-8l-16 16h-6l-25 -29l-18 -18l-23 -10l-20 4l-6 10l6 27l-4 4l-19 -7l-12 -8l-4 4l18 13l-22 4v6l53 14l72 33l53 27l10 -2zM657 2548l-43 16l-16 17v6l18 -16l31 -11l41 4l2 3l2 -3zM547 2560h-9l-6 4l4 7h11l4 -7zM0 1434h1169l113 -420 l-291 305h-538v-717h362l141 275v-658l-137 268h-366v-692h553l278 279l-115 -412h-1165l205 139v1487zM272 305l54 -485l63 485l-57 96zM268 805l62 -98l59 98l-61 473zM330 637l-60 -78l60 -80l55 80z" />
<glyph unicode="&#xce;" horiz-adv-x="727" d="M1131 2907l10 -29l-66 24l-106 7l-56 -7l-45 -16l-39 -29l-22 -20l-12 -8l-47 -70l-29 -51l-8 -6l-11 -19l-12 -22l-67 -68v-4l22 -8l-80 -47l-2 -4v-6l17 -27l2 -33l12 -47l-21 -53l-12 -21l-37 -8l-10 -4l-16 10l-37 -6l-10 -14v-10l-41 -58l-17 -69l-20 -33v-4l18 -25 l2 -29l8 -34l52 -9l79 -14l41 -4l140 -20l8 -3l4 -14l31 -22l16 -13l12 -20l37 -41l62 -117l14 -43l27 -49l-4 -14l10 -27l-4 -2v-6l4 -2l22 2l4 -4l-4 -8h-20l-2 -2l2 -21l-2 -4l-10 25l-170 -27l-7 -6l-71 -6l-86 -7l-11 -2l-43 2h-8l-12 9l-25 8l-36 24l-11 5l-20 -5 l-129 105l-84 65l-10 9l-35 -9l-72 4l-22 9l-31 32l-10 23l-23 25l-18 4l-15 14l-2 16l-6 13l-6 4l-8 6h-8l-103 -96l-14 -6l-29 -7l-31 -14l-45 -8l-82 -25l-4 -4l-8 6l-41 -10l-2 2l4 10l6 33l15 29l16 24l37 43v7l90 67l17 10l53 78l47 92l-17 33v6v2h-8l-16 -22l-23 -56 l-43 -63l-69 -27l-6 -6l-19 -4l-26 -10l-15 -4h-2l4 41l23 78l6 16v14l-6 6l-10 13l-9 10l2 25l17 45v41v6l14 6l72 76l8 12v12l61 35l117 45l4 8l15 6l57 47l6 13l25 39l22 69v2l-47 7l-27 -9h-10l-4 2l25 47l6 13l24 24h9h2v4l-2 2l-66 -6h-10h-4l-17 33l-2 21l-8 4 l-12 47l-4 51l-8 43v6l-3 2l17 96l49 129l68 162l12 15l8 2l41 -2l70 -15l4 -6l28 -2l70 -37l49 -37l6 -4h7l4 2l63 -78l2 -12l10 -12l-2 -16l-10 -25l-8 -12v-4l2 -2l43 10l47 2l55 6l70 -2l55 2l19 -6l90 -12l82 -29l35 -21h4l2 4l-13 15l21 -4l33 -21h16l107 -67l24 -19 l4 -8v-10zM4 2788l68 8v16h-4l-2 -4l-11 4l-10 -6l-27 -2l-26 -8l-33 4l-4 6l-12 49l-13 60l-6 43l2 24l-2 11l2 22l8 55l35 101l2 12l9 16l22 62l35 69v11l8 6h8l66 -6l78 -31l63 -37l94 -82v-10l-20 -49l-17 -31h3l14 8l16 2v17l6 4l25 47l-12 24l-23 33l-33 29l-30 24 l-68 48l-49 10l-51 10l-60 8l-16 4l-8 -8l-25 -65l-28 -66l-35 -110l-29 -95l-2 -18l-4 -72l16 -63l13 -31l2 -18l6 -9l-2 -8l4 -18h12l27 4zM72 3019l-23 4l-4 -4l-2 -22l2 -4l23 10l4 6v10zM53 3048h6v4h-6v-4zM61 3076l33 33l21 13l-29 14l-14 -16l-11 2l-18 -13l-8 -14 l-6 -25h6l4 15l22 20l5 -6l-5 -8l-6 -21h6v4v2zM16 2986l-4 7v6l6 8l7 18l-7 2h-12l-14 -41l4 -4l18 -16l4 4v12zM43 2825l18 41l-8 6l-24 14l-31 -70h14zM68 2853l-7 -14l-6 -14l17 2v8l6 12l-2 8l-8 2v-4zM2 2849l14 45l-2 2l-24 6l-4 -14l-8 -12l-9 -29l-8 -12v-12l4 -9 h10l5 2zM-39 2956l-16 -33h2l28 22l-8 11h-6zM-57 2937l6 27l-12 6zM-22 2907l-31 2l8 -45l4 -11zM-29 2966l27 -10v8l-18 18l4 23h-6l-9 10l-26 10l-4 -8l-2 -29l6 -6h12zM-35 3064l-10 -16v-10l23 -13l8 27l-11 12l5 4l4 43l18 21l2 16l10 19l21 -4l4 14l6 18l-27 11 l-10 -27l-6 -29l-16 -22l-11 -27zM-43 3085l35 86l22 41l-12 6l-33 -88zM6 3095l19 6l2 16l-21 3l-2 -3l-2 -18l2 -4h2zM14 3085h-10l-6 -21l4 -4h4l8 6v19zM16 3132l27 -4l2 2v6l-10 10h-8l-11 -4v-10zM-8 3027l-2 -4l2 2v2zM12 3040l19 10v6h-4l-9 -6h-10v-10h4zM137 3179 v10l-2 -6l-10 12l-2 4l-27 2l-10 -6l-25 -59h11v2l24 39l27 4l4 -4h8zM141 3142l-4 -14l8 -17h5l4 6l2 -6h12l4 6v13zM131 3150l-16 13h-8l-3 -17l21 -10l2 2zM61 3177l5 6l-5 6h-6l-2 -12l-6 -8h6zM88 3085l-6 -49l2 -3l23 -24l43 8l18 6l20 2l19 8l8 7l12 8v4h-2l-37 14 l-22 19l-27 14l-20 6l-12 -4zM178 3105l4 -4l31 -10l2 4l4 12h-2l-2 2l-8 8l-21 5zM225 3089l2 -4l33 -11v2l-18 19h-15zM229 3117l31 -16l23 -12h6l10 16v15l-16 16l-45 22l-23 15l-47 22l-31 15l-55 26l-4 -4l-6 4l-54 29l-2 -4l-8 -29h10l17 -12l41 -19l8 9l20 4l21 -4 l14 -15l2 4l6 -6l3 -12l-5 -4v-8h2l13 -11l45 -20zM223 3220l17 45h-6l-5 4l-20 8v-6l-33 -65l6 -5l25 -8zM248 3246l-19 -28l-12 -29l31 -16l24 45l5 18l-5 6l-16 11h-8v-7zM197 3273v10h-2l-13 9l-10 4l-6 -9l-21 -47l-8 -14l4 -8h6l21 -4l10 28zM127 3232l33 72l-37 16 l-35 -74l39 -16v2zM82 3261l27 59l-11 10h-14l-12 -6v-4l-6 -14l-5 -19l-12 -14v-8h4l25 -8zM39 3271l22 59l-12 2l-22 -55zM293 3154l22 35l2 10l-24 27h-10l-4 -20l-19 -27l-2 -16h2l6 -5l23 -12l4 2v6zM307 3154l-8 -18l10 -4v4l19 31l2 16h-6zM-16 2704l77 10l21 10v6 l-4 -2h-6l-4 6l30 41l33 25v6h-4l-10 -12l-56 -19l-47 -22l-16 -23zM88 2804l25 4l6 8l-2 9h-4l-4 2l-5 10h-10zM-76 2315v-43l10 -15l33 -16l41 2l17 18v11l-13 12l-16 31h-12l-25 -2l-4 -9l-6 -28l12 -2l23 -4v6l-13 12l-2 -4l-4 -10h-4l-2 2l-2 8l12 16h6l27 -28l-12 -19 l-4 4h-39l-10 15l8 45l4 6l20 2l-2 4h-30zM61 2151l-43 -21l-6 -10l-4 -18l8 -11l11 -8l28 4l6 6v3l78 63l-53 10l-4 -4zM39 2177l4 -4l2 4h-6zM6 2153l-8 -6h6l8 6h-6zM-10 2151l8 8l16 12l2 -2h2v4l-34 9l-17 -5h2l17 -12zM-217 2433v-4l53 -24l33 -23v-10l6 -25l-2 -2v-2 l10 -20l-10 -117l23 -29l22 -30l6 16l23 31h10l2 -2l31 8l16 -8v2l-4 12l-4 4l-29 4l-2 -2l-28 10l-21 21l-12 57l-10 17v14l-13 23v10l-8 88l16 22h-4l-32 -12l-43 -14zM-74 2112h-2v-6h2v6zM-299 2069l16 4l-2 4l-8 2l-53 33l-19 -76h3l34 14zM-242 2096l31 55h-4l-16 -15 l-17 -6l-4 -6l-18 -10v-10l-15 -4l-26 10l53 -31l4 4zM-317 2130l8 -6l-2 6h-6zM-141 2272l6 45l-12 35l-29 26l-25 10l-37 11l-26 -15l-45 -49l-6 -18l-13 -27l-8 -33l-6 -16v-47l33 -17l16 -4l35 -14l59 61l21 11zM-358 1801l6 10l-4 6l-13 39l-12 -16l-12 -21l4 -8l-6 -6 l-2 -15h8l4 6h10l6 5h11zM-242 1852v6l-22 16l-4 15l-6 30l4 23h-8l-9 -2l-22 -19l-15 5l-38 -41v-9l10 -24l10 -29l12 -12v2l-18 45l2 2l-2 16l6 13l6 -6l10 -43l9 -13l39 6l8 7h4l10 -3l8 15h6zM-72 1950v4l-8 8l-8 11l2 4v12l-6 6l-4 47l2 8l6 29l-4 4l-4 8l2 31l-4 8 l-17 11h-12l-84 -140l-18 -18l-19 -17l-8 -14l-2 -51l29 -37l71 12zM-63 2151l-9 -29l2 -2h4l9 4l-6 17l18 24l4 -6v-6l-10 -6l-2 -11h8h2l12 11l6 16h-4l-2 2l-22 4zM-16 2106l-9 16h-6l-22 -10v-6l-2 -2l-11 -4l-4 -21h7l8 8zM-51 2003l53 70l-6 14h-6l-19 -6l-28 -16 l-6 -15l-7 -77l7 -7h2l18 -14v10l-2 4zM31 2046l4 17l-21 2l-8 -15l-35 -41l7 -36l14 -41l6 -29l14 86zM49 1911l12 8h-8l-6 4zM49 1952l12 10l-8 4v5l-6 -21v-18zM102 1823h33l-12 4l-14 13h-5l-10 -7v-6h2zM156 1819l4 4h-10v-4h6zM160 1837v9l-19 12l-10 2l-8 -4v-6 l12 -13h25zM150 1874h4v2h-4v-2zM188 2030l31 29l23 4l18 18l33 6l27 -6v6l-25 9l-41 4l-47 -13l-21 -14l-4 -10l-37 -45l-18 -19v-10v-8l4 -62l-4 62l8 8h2l19 4v2zM207 1989l20 -12l-10 12h-10zM309 1909v2h-2zM338 1731v22l-8 25l-4 82l2 -74l-2 -45l8 -10h4zM379 1702 l8 -4l-4 21l-8 59zM434 1667v11l-6 24l-14 154l-6 10h-2l4 -16l-2 -2l16 -150l4 -31h6zM434 1837v13v-13zM913 1639v4h-8l-73 -16zM895 1649l10 6l-10 4l-18 8l-7 5l-51 16l-69 35l-23 18l-43 17l-31 6l-10 6v8l-74 27l4 -6l-4 -7l-2 4l-20 5v-5l2 -26l-2 -6h-4l-2 2l-11 45 l-18 6v-4l16 -74l-6 -8h-2l-12 18l-16 78l-7 6h-8v-10l8 -6l5 -53l6 -31v-61l-4 -5l-7 5l-8 47l-10 45l-10 84h-6l8 -99l8 -106l33 -16l59 -15l57 4l195 23l39 8zM782 1723l25 -15l33 -12l-33 21zM459 2026l-139 10l-31 10h-31l-61 -37v-6h4l39 -20l6 -10l108 -41l17 -13 l80 -43l49 -18l153 -70l54 -24l82 -33l81 -41l25 -14h4v2l-39 90l-49 88l-90 104l-47 29h-31l-27 6l-94 19l-26 -2zM375 2100l-37 36l-29 27l-14 6l-6 -6h-10l-15 -6l-24 -6l-58 -10l-10 -9l-35 -12l-39 -41l-32 -67l-13 -41l2 2l11 4h2h4h4v16l18 53l19 27h4l20 20l56 39 l4 -8l-11 -10l-14 -8l-45 -37l-18 -27l-11 -28l-12 -58h2v15l10 6h6l9 4l-4 18l8 15l71 82l27 10l2 -2l49 8l41 -2l21 -10v4l-8 8l-37 24v5l6 6l4 -4l14 -7l17 -16l26 -27l8 -10v-4l11 -10h6l8 -4v4l-2 18zM399 2261l19 43l-8 19l-17 22l-55 31l-49 8l-6 -2l-11 -10v-18 l-38 -43l-9 -21l-88 -96v-4h4l4 2l37 8l6 -8l-22 -13l12 -2l39 17l17 6l45 -6l36 -12l15 2l20 -19h8v4l9 8l2 11l20 34zM469 2352l8 2l-2 28v-10l-8 -8l-2 -12h4zM485 2456l5 16h-5v-4l-8 -4l-10 -6l-16 4l-2 -4l-5 4h-10l-59 -4l-27 -4l-59 -19l-35 -18l-25 -18l-90 -11 l-12 -4l-2 4h-2l-6 -6h-8l-5 6h3l2 11l14 49l12 63l-4 31l4 18l-8 7l-4 16h-6l-10 18l-3 17l-8 24l2 70h-4l-10 -8l-16 -6l-23 -62l21 19l2 -2v-7l-21 -22l-4 -19l-25 -34l-51 -60h-12l-21 -18l-6 -47l2 -11l-2 -2l6 -41l25 -47l19 -4l20 -8l16 -12v-10l25 -35l4 -29h4 l25 -10l6 -8l59 -7l51 58l35 41l6 35l-2 8l7 6l61 33l43 -4l55 -15l35 -22l12 -41l13 67l4 43l8 11l6 -9v-4zM160 2530v-6l-4 -7h-2v-10l-4 -12l4 -10l34 -45l27 -17h10l17 6v4l8 9l8 6l-39 20l-31 27l-12 18zM227 2503l2 -2l-2 -4v-6l21 -8l18 -11l13 -10h4v2l-11 10v11 l-22 18l-2 8l-14 2zM256 2536l2 -2h21l28 -15l19 -2l4 7l-10 6h-13l-10 6l-33 6zM186 2423l-39 43l-8 -33l-16 -38l45 16l29 6zM547 2354v4l-10 12l-7 18l-8 7l-2 10l-10 51l2 2v10l-2 4l2 2v11h-4l-16 -70l4 -31l14 -30l12 -7zM567 2493l-12 24l8 -43l6 -69l-6 -21h-2 l-10 8l-8 23l-6 49l2 43l-2 4l-4 -59l8 -49l14 -37h6l2 4l6 25l9 20zM569 2548l41 23h-26l-11 -11zM662 2687l4 54l-9 41l-6 4l6 14l5 41l-41 94l-37 43l-21 8l-33 13l-86 18l-4 -2l-6 4l-92 8l-16 -2l45 -6l12 -12l-2 -2l-92 -2l-2 2l-160 -17l-61 -18l-17 -6l-6 -10 l-25 -9l-20 -22h6l43 -10l47 -31l51 -64l15 5l12 12l29 14l41 33l30 20l7 -6l-2 -2l-29 -22l12 4l29 18l6 -6l-2 -2v-4h4l2 4l31 6l37 4l16 -4v-4l-2 -2l-27 -4l-100 -23l-66 -36v-5l35 5l11 -11l22 -63l23 -41l34 -70l7 6l6 -6l-6 -4l-13 -10l-4 2l-16 20l-8 2l4 -14l-4 -4 l-2 4l-19 33h-8l-8 -6l-8 -8l-19 -5l-20 7l-9 10l-4 6l-4 23l17 22l2 14l-43 7l-7 4l7 6l28 6l25 -4v4l-10 12l-15 35l-16 6l-64 -61l2 -4h9l2 4l8 -8v-3l22 -4l11 -8v-8l-2 -2h-4l-3 2l-30 4v-2l-8 -49l6 -37l24 -49l70 -76h6v2l8 21l2 20l4 6l37 2l49 -12l27 -10l14 -15 l-8 -8l-22 -10l-31 -37h8l4 2l58 19l49 6l10 -6l25 2l26 14l53 80l33 49v6l8 8l9 11l12 73h-6l-33 -20l-59 -21l-48 -4l-10 -6l-84 -6l-51 6l-16 27l6 4l61 -6l140 10l26 10l62 17l61 16l2 -2v-4l-12 -10l-27 -5l-6 -81l-6 -7h-6l-11 -18v-14l-6 -11l-41 -79h4l29 32l31 49 l16 21l4 -2v-8l-4 -8l-6 -19h2l10 12l31 45zM1085 2919v8l-26 27v10l-12 12l-45 33l-37 18l-13 9l-20 4l-10 -4l-17 12h-10l-47 20l-53 21l-78 18l-80 10l-117 3l-14 -9l-6 -4h-33l-119 -22l-14 -11l-19 -10l-59 -35h10l33 4l8 5h10l168 -9l31 -10l55 -26l25 -5l35 -32 l47 -78l6 -21l-4 -2l-6 -51l-8 -12v-15l14 -18v-4l4 -8l-4 -8l4 -5v-10v-2v-18l6 4l23 37l18 22l27 47l71 68l62 25l39 16l69 10l62 -6zM182 2648l-22 29l-6 25h2l16 -31l16 -23l50 -10h2l2 -2l-2 -2l-35 4zM567 2683l2 -18v-4l-6 -6l-26 -2l-31 -9v-6l16 -22v-8l-16 16h-6 l-25 -29l-18 -18l-23 -10l-20 4l-6 10l6 27l-4 4l-19 -7l-12 -8l-4 4l18 13l-22 4v6l53 14l72 33l53 27l10 -2zM434 2548l-43 16l-16 17v6l18 -16l31 -11l41 4l2 3l2 -3zM324 2560h-9l-6 4l4 7h11l4 -7zM492 -190l233 -148h-727l244 148v1478l-244 146h725l-231 -146v-1478z M307 283l60 -486l61 486l-59 96zM303 782l62 -98l63 98l-61 473zM365 614l-60 -77l60 -80l63 80z" />
<glyph unicode="&#xd4;" horiz-adv-x="1554" d="M1496 2907l10 -29l-66 24l-106 7l-56 -7l-45 -16l-39 -29l-22 -20l-12 -8l-47 -70l-29 -51l-8 -6l-11 -19l-12 -22l-67 -68v-4l22 -8l-80 -47l-2 -4v-6l17 -27l2 -33l12 -47l-21 -53l-12 -21l-37 -8l-10 -4l-16 10l-37 -6l-10 -14v-10l-41 -58l-17 -69l-20 -33v-4l18 -25 l2 -29l8 -34l52 -9l79 -14l41 -4l140 -20l8 -3l4 -14l31 -22l16 -13l12 -20l37 -41l62 -117l14 -43l27 -49l-4 -14l10 -27l-4 -2v-6l4 -2l22 2l4 -4l-4 -8h-20l-2 -2l2 -21l-2 -4l-10 25l-170 -27l-7 -6l-71 -6l-86 -7l-11 -2l-43 2h-8l-12 9l-25 8l-36 24l-11 5l-20 -5 l-129 105l-84 65l-10 9l-35 -9l-72 4l-22 9l-31 32l-10 23l-23 25l-18 4l-15 14l-2 16l-6 13l-6 4l-8 6h-8l-103 -96l-14 -6l-29 -7l-31 -14l-45 -8l-82 -25l-4 -4l-8 6l-41 -10l-2 2l4 10l6 33l15 29l16 24l37 43v7l90 67l17 10l53 78l47 92l-17 33v6v2h-8l-16 -22l-23 -56 l-43 -63l-69 -27l-6 -6l-19 -4l-26 -10l-15 -4h-2l4 41l23 78l6 16v14l-6 6l-10 13l-9 10l2 25l17 45v41v6l14 6l72 76l8 12v12l61 35l117 45l4 8l15 6l57 47l6 13l25 39l22 69v2l-47 7l-27 -9h-10l-4 2l25 47l6 13l24 24h9h2v4l-2 2l-66 -6h-10h-4l-17 33l-2 21l-8 4 l-12 47l-4 51l-8 43v6l-3 2l17 96l49 129l68 162l12 15l8 2l41 -2l70 -15l4 -6l28 -2l70 -37l49 -37l6 -4h7l4 2l63 -78l2 -12l10 -12l-2 -16l-10 -25l-8 -12v-4l2 -2l43 10l47 2l55 6l70 -2l55 2l19 -6l90 -12l82 -29l35 -21h4l2 4l-13 15l21 -4l33 -21h16l107 -67l24 -19 l4 -8v-10zM369 2788l68 8v16h-4l-2 -4l-11 4l-10 -6l-27 -2l-26 -8l-33 4l-4 6l-12 49l-13 60l-6 43l2 24l-2 11l2 22l8 55l35 101l2 12l9 16l22 62l35 69v11l8 6h8l66 -6l78 -31l63 -37l94 -82v-10l-20 -49l-17 -31h3l14 8l16 2v17l6 4l25 47l-12 24l-23 33l-33 29l-30 24 l-68 48l-49 10l-51 10l-60 8l-16 4l-8 -8l-25 -65l-28 -66l-35 -110l-29 -95l-2 -18l-4 -72l16 -63l13 -31l2 -18l6 -9l-2 -8l4 -18h12l27 4zM437 3019l-23 4l-4 -4l-2 -22l2 -4l23 10l4 6v10zM418 3048h6v4h-6v-4zM426 3076l33 33l21 13l-29 14l-14 -16l-11 2l-18 -13 l-8 -14l-6 -25h6l4 15l22 20l5 -6l-5 -8l-6 -21h6v4v2zM381 2986l-4 7v6l6 8l7 18l-7 2h-12l-14 -41l4 -4l18 -16l4 4v12zM408 2825l18 41l-8 6l-24 14l-31 -70h14zM433 2853l-7 -14l-6 -14l17 2v8l6 12l-2 8l-8 2v-4zM367 2849l14 45l-2 2l-24 6l-4 -14l-8 -12l-9 -29 l-8 -12v-12l4 -9h10l5 2zM326 2956l-16 -33h2l28 22l-8 11h-6zM308 2937l6 27l-12 6zM343 2907l-31 2l8 -45l4 -11zM336 2966l27 -10v8l-18 18l4 23h-6l-9 10l-26 10l-4 -8l-2 -29l6 -6h12zM330 3064l-10 -16v-10l23 -13l8 27l-11 12l5 4l4 43l18 21l2 16l10 19l21 -4l4 14 l6 18l-27 11l-10 -27l-6 -29l-16 -22l-11 -27zM322 3085l35 86l22 41l-12 6l-33 -88zM371 3095l19 6l2 16l-21 3l-2 -3l-2 -18l2 -4h2zM379 3085h-10l-6 -21l4 -4h4l8 6v19zM381 3132l27 -4l2 2v6l-10 10h-8l-11 -4v-10zM357 3027l-2 -4l2 2v2zM377 3040l19 10v6h-4l-9 -6 h-10v-10h4zM502 3179v10l-2 -6l-10 12l-2 4l-27 2l-10 -6l-25 -59h11v2l24 39l27 4l4 -4h8zM506 3142l-4 -14l8 -17h5l4 6l2 -6h12l4 6v13zM496 3150l-16 13h-8l-3 -17l21 -10l2 2zM426 3177l5 6l-5 6h-6l-2 -12l-6 -8h6zM453 3085l-6 -49l2 -3l23 -24l43 8l18 6l20 2l19 8 l8 7l12 8v4h-2l-37 14l-22 19l-27 14l-20 6l-12 -4zM543 3105l4 -4l31 -10l2 4l4 12h-2l-2 2l-8 8l-21 5zM590 3089l2 -4l33 -11v2l-18 19h-15zM594 3117l31 -16l23 -12h6l10 16v15l-16 16l-45 22l-23 15l-47 22l-31 15l-55 26l-4 -4l-6 4l-54 29l-2 -4l-8 -29h10l17 -12 l41 -19l8 9l20 4l21 -4l14 -15l2 4l6 -6l3 -12l-5 -4v-8h2l13 -11l45 -20zM588 3220l17 45h-6l-5 4l-20 8v-6l-33 -65l6 -5l25 -8zM613 3246l-19 -28l-12 -29l31 -16l24 45l5 18l-5 6l-16 11h-8v-7zM562 3273v10h-2l-13 9l-10 4l-6 -9l-21 -47l-8 -14l4 -8h6l21 -4l10 28z M492 3232l33 72l-37 16l-35 -74l39 -16v2zM447 3261l27 59l-11 10h-14l-12 -6v-4l-6 -14l-5 -19l-12 -14v-8h4l25 -8zM404 3271l22 59l-12 2l-22 -55zM658 3154l22 35l2 10l-24 27h-10l-4 -20l-19 -27l-2 -16h2l6 -5l23 -12l4 2v6zM672 3154l-8 -18l10 -4v4l19 31l2 16h-6z M349 2704l77 10l21 10v6l-4 -2h-6l-4 6l30 41l33 25v6h-4l-10 -12l-56 -19l-47 -22l-16 -23zM453 2804l25 4l6 8l-2 9h-4l-4 2l-5 10h-10zM289 2315v-43l10 -15l33 -16l41 2l17 18v11l-13 12l-16 31h-12l-25 -2l-4 -9l-6 -28l12 -2l23 -4v6l-13 12l-2 -4l-4 -10h-4l-2 2 l-2 8l12 16h6l27 -28l-12 -19l-4 4h-39l-10 15l8 45l4 6l20 2l-2 4h-30zM426 2151l-43 -21l-6 -10l-4 -18l8 -11l11 -8l28 4l6 6v3l78 63l-53 10l-4 -4zM404 2177l4 -4l2 4h-6zM371 2153l-8 -6h6l8 6h-6zM355 2151l8 8l16 12l2 -2h2v4l-34 9l-17 -5h2l17 -12zM148 2433v-4 l53 -24l33 -23v-10l6 -25l-2 -2v-2l10 -20l-10 -117l23 -29l22 -30l6 16l23 31h10l2 -2l31 8l16 -8v2l-4 12l-4 4l-29 4l-2 -2l-28 10l-21 21l-12 57l-10 17v14l-13 23v10l-8 88l16 22h-4l-32 -12l-43 -14zM291 2112h-2v-6h2v6zM66 2069l16 4l-2 4l-8 2l-53 33l-19 -76h3 l34 14zM123 2096l31 55h-4l-16 -15l-17 -6l-4 -6l-18 -10v-10l-15 -4l-26 10l53 -31l4 4zM48 2130l8 -6l-2 6h-6zM224 2272l6 45l-12 35l-29 26l-25 10l-37 11l-26 -15l-45 -49l-6 -18l-13 -27l-8 -33l-6 -16v-47l33 -17l16 -4l35 -14l59 61l21 11zM7 1801l6 10l-4 6l-13 39 l-12 -16l-12 -21l4 -8l-6 -6l-2 -15h8l4 6h10l6 5h11zM123 1852v6l-22 16l-4 15l-6 30l4 23h-8l-9 -2l-22 -19l-15 5l-38 -41v-9l10 -24l10 -29l12 -12v2l-18 45l2 2l-2 16l6 13l6 -6l10 -43l9 -13l39 6l8 7h4l10 -3l8 15h6zM293 1950v4l-8 8l-8 11l2 4v12l-6 6l-4 47l2 8 l6 29l-4 4l-4 8l2 31l-4 8l-17 11h-12l-84 -140l-18 -18l-19 -17l-8 -14l-2 -51l29 -37l71 12zM302 2151l-9 -29l2 -2h4l9 4l-6 17l18 24l4 -6v-6l-10 -6l-2 -11h8h2l12 11l6 16h-4l-2 2l-22 4zM349 2106l-9 16h-6l-22 -10v-6l-2 -2l-11 -4l-4 -21h7l8 8zM314 2003l53 70 l-6 14h-6l-19 -6l-28 -16l-6 -15l-7 -77l7 -7h2l18 -14v10l-2 4zM396 2046l4 17l-21 2l-8 -15l-35 -41l7 -36l14 -41l6 -29l14 86zM414 1911l12 8h-8l-6 4zM414 1952l12 10l-8 4v5l-6 -21v-18zM467 1823h33l-12 4l-14 13h-5l-10 -7v-6h2zM521 1819l4 4h-10v-4h6zM525 1837v9 l-19 12l-10 2l-8 -4v-6l12 -13h25zM515 1874h4v2h-4v-2zM553 2030l31 29l23 4l18 18l33 6l27 -6v6l-25 9l-41 4l-47 -13l-21 -14l-4 -10l-37 -45l-18 -19v-10v-8l4 -62l-4 62l8 8h2l19 4v2zM572 1989l20 -12l-10 12h-10zM674 1909v2h-2zM703 1731v22l-8 25l-4 82l2 -74 l-2 -45l8 -10h4zM744 1702l8 -4l-4 21l-8 59zM799 1667v11l-6 24l-14 154l-6 10h-2l4 -16l-2 -2l16 -150l4 -31h6zM799 1837v13v-13zM1278 1639v4h-8l-73 -16zM1260 1649l10 6l-10 4l-18 8l-7 5l-51 16l-69 35l-23 18l-43 17l-31 6l-10 6v8l-74 27l4 -6l-4 -7l-2 4l-20 5v-5 l2 -26l-2 -6h-4l-2 2l-11 45l-18 6v-4l16 -74l-6 -8h-2l-12 18l-16 78l-7 6h-8v-10l8 -6l5 -53l6 -31v-61l-4 -5l-7 5l-8 47l-10 45l-10 84h-6l8 -99l8 -106l33 -16l59 -15l57 4l195 23l39 8zM1147 1723l25 -15l33 -12l-33 21zM824 2026l-139 10l-31 10h-31l-61 -37v-6h4 l39 -20l6 -10l108 -41l17 -13l80 -43l49 -18l153 -70l54 -24l82 -33l81 -41l25 -14h4v2l-39 90l-49 88l-90 104l-47 29h-31l-27 6l-94 19l-26 -2zM740 2100l-37 36l-29 27l-14 6l-6 -6h-10l-15 -6l-24 -6l-58 -10l-10 -9l-35 -12l-39 -41l-32 -67l-13 -41l2 2l11 4h2h4h4v16 l18 53l19 27h4l20 20l56 39l4 -8l-11 -10l-14 -8l-45 -37l-18 -27l-11 -28l-12 -58h2v15l10 6h6l9 4l-4 18l8 15l71 82l27 10l2 -2l49 8l41 -2l21 -10v4l-8 8l-37 24v5l6 6l4 -4l14 -7l17 -16l26 -27l8 -10v-4l11 -10h6l8 -4v4l-2 18zM764 2261l19 43l-8 19l-17 22l-55 31 l-49 8l-6 -2l-11 -10v-18l-38 -43l-9 -21l-88 -96v-4h4l4 2l37 8l6 -8l-22 -13l12 -2l39 17l17 6l45 -6l36 -12l15 2l20 -19h8v4l9 8l2 11l20 34zM834 2352l8 2l-2 28v-10l-8 -8l-2 -12h4zM850 2456l5 16h-5v-4l-8 -4l-10 -6l-16 4l-2 -4l-5 4h-10l-59 -4l-27 -4l-59 -19 l-35 -18l-25 -18l-90 -11l-12 -4l-2 4h-2l-6 -6h-8l-5 6h3l2 11l14 49l12 63l-4 31l4 18l-8 7l-4 16h-6l-10 18l-3 17l-8 24l2 70h-4l-10 -8l-16 -6l-23 -62l21 19l2 -2v-7l-21 -22l-4 -19l-25 -34l-51 -60h-12l-21 -18l-6 -47l2 -11l-2 -2l6 -41l25 -47l19 -4l20 -8l16 -12 v-10l25 -35l4 -29h4l25 -10l6 -8l59 -7l51 58l35 41l6 35l-2 8l7 6l61 33l43 -4l55 -15l35 -22l12 -41l13 67l4 43l8 11l6 -9v-4zM525 2530v-6l-4 -7h-2v-10l-4 -12l4 -10l34 -45l27 -17h10l17 6v4l8 9l8 6l-39 20l-31 27l-12 18zM592 2503l2 -2l-2 -4v-6l21 -8l18 -11 l13 -10h4v2l-11 10v11l-22 18l-2 8l-14 2zM621 2536l2 -2h21l28 -15l19 -2l4 7l-10 6h-13l-10 6l-33 6zM551 2423l-39 43l-8 -33l-16 -38l45 16l29 6zM912 2354v4l-10 12l-7 18l-8 7l-2 10l-10 51l2 2v10l-2 4l2 2v11h-4l-16 -70l4 -31l14 -30l12 -7zM932 2493l-12 24l8 -43 l6 -69l-6 -21h-2l-10 8l-8 23l-6 49l2 43l-2 4l-4 -59l8 -49l14 -37h6l2 4l6 25l9 20zM934 2548l41 23h-26l-11 -11zM1027 2687l4 54l-9 41l-6 4l6 14l5 41l-41 94l-37 43l-21 8l-33 13l-86 18l-4 -2l-6 4l-92 8l-16 -2l45 -6l12 -12l-2 -2l-92 -2l-2 2l-160 -17l-61 -18 l-17 -6l-6 -10l-25 -9l-20 -22h6l43 -10l47 -31l51 -64l15 5l12 12l29 14l41 33l30 20l7 -6l-2 -2l-29 -22l12 4l29 18l6 -6l-2 -2v-4h4l2 4l31 6l37 4l16 -4v-4l-2 -2l-27 -4l-100 -23l-66 -36v-5l35 5l11 -11l22 -63l23 -41l34 -70l7 6l6 -6l-6 -4l-13 -10l-4 2l-16 20 l-8 2l4 -14l-4 -4l-2 4l-19 33h-8l-8 -6l-8 -8l-19 -5l-20 7l-9 10l-4 6l-4 23l17 22l2 14l-43 7l-7 4l7 6l28 6l25 -4v4l-10 12l-15 35l-16 6l-64 -61l2 -4h9l2 4l8 -8v-3l22 -4l11 -8v-8l-2 -2h-4l-3 2l-30 4v-2l-8 -49l6 -37l24 -49l70 -76h6v2l8 21l2 20l4 6l37 2 l49 -12l27 -10l14 -15l-8 -8l-22 -10l-31 -37h8l4 2l58 19l49 6l10 -6l25 2l26 14l53 80l33 49v6l8 8l9 11l12 73h-6l-33 -20l-59 -21l-48 -4l-10 -6l-84 -6l-51 6l-16 27l6 4l61 -6l140 10l26 10l62 17l61 16l2 -2v-4l-12 -10l-27 -5l-6 -81l-6 -7h-6l-11 -18v-14l-6 -11 l-41 -79h4l29 32l31 49l16 21l4 -2v-8l-4 -8l-6 -19h2l10 12l31 45zM1450 2919v8l-26 27v10l-12 12l-45 33l-37 18l-13 9l-20 4l-10 -4l-17 12h-10l-47 20l-53 21l-78 18l-80 10l-117 3l-14 -9l-6 -4h-33l-119 -22l-14 -11l-19 -10l-59 -35h10l33 4l8 5h10l168 -9l31 -10 l55 -26l25 -5l35 -32l47 -78l6 -21l-4 -2l-6 -51l-8 -12v-15l14 -18v-4l4 -8l-4 -8l4 -5v-10v-2v-18l6 4l23 37l18 22l27 47l71 68l62 25l39 16l69 10l62 -6zM547 2648l-22 29l-6 25h2l16 -31l16 -23l50 -10h2l2 -2l-2 -2l-35 4zM932 2683l2 -18v-4l-6 -6l-26 -2l-31 -9v-6 l16 -22v-8l-16 16h-6l-25 -29l-18 -18l-23 -10l-20 4l-6 10l6 27l-4 4l-19 -7l-12 -8l-4 4l18 13l-22 4v6l53 14l72 33l53 27l10 -2zM799 2548l-43 16l-16 17v6l18 -16l31 -11l41 4l2 3l2 -3zM689 2560h-9l-6 4l4 7h11l4 -7zM1311 1106q66 -111 102.5 -255t36.5 -304 q0 -90 -14.5 -183.5t-41 -180.5t-64.5 -164.5t-83 -137.5q-98 -129 -234 -181t-288 -52q-154 0 -299 66.5t-250 191.5q-98 121 -137 287.5t-39 353.5q0 166 33 315.5t114 265.5q49 76 113 136.5t138.5 103.5t157.5 65.5t169 22.5q178 0 331 -93t255 -257zM723 -242 q117 2 203 64.5t143 169t86 249t29 306.5q0 166 -31 311.5t-91.5 255t-147.5 171.5q-84 60 -190 61h-7q-104 -2 -189.5 -65.5t-144.5 -171.5t-92 -252t-33 -310q0 -164 32 -307.5t91 -251t146 -169.5q84 -60 189 -61h7zM416 1268q-72 -43 -127.5 -98.5t-87.5 -100.5 q-12 -18 -28.5 -46t-32 -60.5t-28 -64.5t-14.5 -58l54 -99l63 99q8 68 19.5 118t23.5 84q8 25 25.5 55.5t40 61.5t46 60t46.5 49zM68 571l55 -79l59 79l-59 78zM403 -190q-43 41 -91 114.5t-72 145.5q-25 72 -30 120t-5 101l-64 98l-53 -98q6 -53 34 -124t66 -130 q41 -63 92 -123.5t123 -103.5zM1026 1268q20 -20 45 -49t47.5 -60t40 -61.5t25.5 -55.5q12 -35 23.5 -85t19.5 -117l63 -99l53 99q-4 27 -15 58.5t-26.5 64t-32 60.5t-28.5 46q-33 45 -88 100.5t-127 98.5zM1319 649l-59 -78l59 -79l55 79zM1038 -190q72 43 123 103t92 124 q39 59 67 130t34 124l-54 98l-63 -98q0 -53 -5 -101.5t-30 -119.5q-25 -72 -73 -145.5t-91 -114.5z" />
<glyph unicode="&#xdb;" horiz-adv-x="1497" d="M1502 2907l10 -29l-66 24l-106 7l-56 -7l-45 -16l-39 -29l-22 -20l-12 -8l-47 -70l-29 -51l-8 -6l-11 -19l-12 -22l-67 -68v-4l22 -8l-80 -47l-2 -4v-6l17 -27l2 -33l12 -47l-21 -53l-12 -21l-37 -8l-10 -4l-16 10l-37 -6l-10 -14v-10l-41 -58l-17 -69l-20 -33v-4l18 -25 l2 -29l8 -34l52 -9l79 -14l41 -4l140 -20l8 -3l4 -14l31 -22l16 -13l12 -20l37 -41l62 -117l14 -43l27 -49l-4 -14l10 -27l-4 -2v-6l4 -2l22 2l4 -4l-4 -8h-20l-2 -2l2 -21l-2 -4l-10 25l-170 -27l-7 -6l-71 -6l-86 -7l-11 -2l-43 2h-8l-12 9l-25 8l-36 24l-11 5l-20 -5 l-129 105l-84 65l-10 9l-35 -9l-72 4l-22 9l-31 32l-10 23l-23 25l-18 4l-15 14l-2 16l-6 13l-6 4l-8 6h-8l-103 -96l-14 -6l-29 -7l-31 -14l-45 -8l-82 -25l-4 -4l-8 6l-41 -10l-2 2l4 10l6 33l15 29l16 24l37 43v7l90 67l17 10l53 78l47 92l-17 33v6v2h-8l-16 -22l-23 -56 l-43 -63l-69 -27l-6 -6l-19 -4l-26 -10l-15 -4h-2l4 41l23 78l6 16v14l-6 6l-10 13l-9 10l2 25l17 45v41v6l14 6l72 76l8 12v12l61 35l117 45l4 8l15 6l57 47l6 13l25 39l22 69v2l-47 7l-27 -9h-10l-4 2l25 47l6 13l24 24h9h2v4l-2 2l-66 -6h-10h-4l-17 33l-2 21l-8 4 l-12 47l-4 51l-8 43v6l-3 2l17 96l49 129l68 162l12 15l8 2l41 -2l70 -15l4 -6l28 -2l70 -37l49 -37l6 -4h7l4 2l63 -78l2 -12l10 -12l-2 -16l-10 -25l-8 -12v-4l2 -2l43 10l47 2l55 6l70 -2l55 2l19 -6l90 -12l82 -29l35 -21h4l2 4l-13 15l21 -4l33 -21h16l107 -67l24 -19 l4 -8v-10zM375 2788l68 8v16h-4l-2 -4l-11 4l-10 -6l-27 -2l-26 -8l-33 4l-4 6l-12 49l-13 60l-6 43l2 24l-2 11l2 22l8 55l35 101l2 12l9 16l22 62l35 69v11l8 6h8l66 -6l78 -31l63 -37l94 -82v-10l-20 -49l-17 -31h3l14 8l16 2v17l6 4l25 47l-12 24l-23 33l-33 29l-30 24 l-68 48l-49 10l-51 10l-60 8l-16 4l-8 -8l-25 -65l-28 -66l-35 -110l-29 -95l-2 -18l-4 -72l16 -63l13 -31l2 -18l6 -9l-2 -8l4 -18h12l27 4zM443 3019l-23 4l-4 -4l-2 -22l2 -4l23 10l4 6v10zM424 3048h6v4h-6v-4zM432 3076l33 33l21 13l-29 14l-14 -16l-11 2l-18 -13 l-8 -14l-6 -25h6l4 15l22 20l5 -6l-5 -8l-6 -21h6v4v2zM387 2986l-4 7v6l6 8l7 18l-7 2h-12l-14 -41l4 -4l18 -16l4 4v12zM414 2825l18 41l-8 6l-24 14l-31 -70h14zM439 2853l-7 -14l-6 -14l17 2v8l6 12l-2 8l-8 2v-4zM373 2849l14 45l-2 2l-24 6l-4 -14l-8 -12l-9 -29 l-8 -12v-12l4 -9h10l5 2zM332 2956l-16 -33h2l28 22l-8 11h-6zM314 2937l6 27l-12 6zM349 2907l-31 2l8 -45l4 -11zM342 2966l27 -10v8l-18 18l4 23h-6l-9 10l-26 10l-4 -8l-2 -29l6 -6h12zM336 3064l-10 -16v-10l23 -13l8 27l-11 12l5 4l4 43l18 21l2 16l10 19l21 -4l4 14 l6 18l-27 11l-10 -27l-6 -29l-16 -22l-11 -27zM328 3085l35 86l22 41l-12 6l-33 -88zM377 3095l19 6l2 16l-21 3l-2 -3l-2 -18l2 -4h2zM385 3085h-10l-6 -21l4 -4h4l8 6v19zM387 3132l27 -4l2 2v6l-10 10h-8l-11 -4v-10zM363 3027l-2 -4l2 2v2zM383 3040l19 10v6h-4l-9 -6 h-10v-10h4zM508 3179v10l-2 -6l-10 12l-2 4l-27 2l-10 -6l-25 -59h11v2l24 39l27 4l4 -4h8zM512 3142l-4 -14l8 -17h5l4 6l2 -6h12l4 6v13zM502 3150l-16 13h-8l-3 -17l21 -10l2 2zM432 3177l5 6l-5 6h-6l-2 -12l-6 -8h6zM459 3085l-6 -49l2 -3l23 -24l43 8l18 6l20 2l19 8 l8 7l12 8v4h-2l-37 14l-22 19l-27 14l-20 6l-12 -4zM549 3105l4 -4l31 -10l2 4l4 12h-2l-2 2l-8 8l-21 5zM596 3089l2 -4l33 -11v2l-18 19h-15zM600 3117l31 -16l23 -12h6l10 16v15l-16 16l-45 22l-23 15l-47 22l-31 15l-55 26l-4 -4l-6 4l-54 29l-2 -4l-8 -29h10l17 -12 l41 -19l8 9l20 4l21 -4l14 -15l2 4l6 -6l3 -12l-5 -4v-8h2l13 -11l45 -20zM594 3220l17 45h-6l-5 4l-20 8v-6l-33 -65l6 -5l25 -8zM619 3246l-19 -28l-12 -29l31 -16l24 45l5 18l-5 6l-16 11h-8v-7zM568 3273v10h-2l-13 9l-10 4l-6 -9l-21 -47l-8 -14l4 -8h6l21 -4l10 28z M498 3232l33 72l-37 16l-35 -74l39 -16v2zM453 3261l27 59l-11 10h-14l-12 -6v-4l-6 -14l-5 -19l-12 -14v-8h4l25 -8zM410 3271l22 59l-12 2l-22 -55zM664 3154l22 35l2 10l-24 27h-10l-4 -20l-19 -27l-2 -16h2l6 -5l23 -12l4 2v6zM678 3154l-8 -18l10 -4v4l19 31l2 16h-6z M355 2704l77 10l21 10v6l-4 -2h-6l-4 6l30 41l33 25v6h-4l-10 -12l-56 -19l-47 -22l-16 -23zM459 2804l25 4l6 8l-2 9h-4l-4 2l-5 10h-10zM295 2315v-43l10 -15l33 -16l41 2l17 18v11l-13 12l-16 31h-12l-25 -2l-4 -9l-6 -28l12 -2l23 -4v6l-13 12l-2 -4l-4 -10h-4l-2 2 l-2 8l12 16h6l27 -28l-12 -19l-4 4h-39l-10 15l8 45l4 6l20 2l-2 4h-30zM432 2151l-43 -21l-6 -10l-4 -18l8 -11l11 -8l28 4l6 6v3l78 63l-53 10l-4 -4zM410 2177l4 -4l2 4h-6zM377 2153l-8 -6h6l8 6h-6zM361 2151l8 8l16 12l2 -2h2v4l-34 9l-17 -5h2l17 -12zM154 2433v-4 l53 -24l33 -23v-10l6 -25l-2 -2v-2l10 -20l-10 -117l23 -29l22 -30l6 16l23 31h10l2 -2l31 8l16 -8v2l-4 12l-4 4l-29 4l-2 -2l-28 10l-21 21l-12 57l-10 17v14l-13 23v10l-8 88l16 22h-4l-32 -12l-43 -14zM297 2112h-2v-6h2v6zM72 2069l16 4l-2 4l-8 2l-53 33l-19 -76h3 l34 14zM129 2096l31 55h-4l-16 -15l-17 -6l-4 -6l-18 -10v-10l-15 -4l-26 10l53 -31l4 4zM54 2130l8 -6l-2 6h-6zM230 2272l6 45l-12 35l-29 26l-25 10l-37 11l-26 -15l-45 -49l-6 -18l-13 -27l-8 -33l-6 -16v-47l33 -17l16 -4l35 -14l59 61l21 11zM13 1801l6 10l-4 6 l-13 39l-12 -16l-12 -21l4 -8l-6 -6l-2 -15h8l4 6h10l6 5h11zM129 1852v6l-22 16l-4 15l-6 30l4 23h-8l-9 -2l-22 -19l-15 5l-38 -41v-9l10 -24l10 -29l12 -12v2l-18 45l2 2l-2 16l6 13l6 -6l10 -43l9 -13l39 6l8 7h4l10 -3l8 15h6zM299 1950v4l-8 8l-8 11l2 4v12l-6 6 l-4 47l2 8l6 29l-4 4l-4 8l2 31l-4 8l-17 11h-12l-84 -140l-18 -18l-19 -17l-8 -14l-2 -51l29 -37l71 12zM308 2151l-9 -29l2 -2h4l9 4l-6 17l18 24l4 -6v-6l-10 -6l-2 -11h8h2l12 11l6 16h-4l-2 2l-22 4zM355 2106l-9 16h-6l-22 -10v-6l-2 -2l-11 -4l-4 -21h7l8 8z M320 2003l53 70l-6 14h-6l-19 -6l-28 -16l-6 -15l-7 -77l7 -7h2l18 -14v10l-2 4zM402 2046l4 17l-21 2l-8 -15l-35 -41l7 -36l14 -41l6 -29l14 86zM420 1911l12 8h-8l-6 4zM420 1952l12 10l-8 4v5l-6 -21v-18zM473 1823h33l-12 4l-14 13h-5l-10 -7v-6h2zM527 1819l4 4h-10 v-4h6zM531 1837v9l-19 12l-10 2l-8 -4v-6l12 -13h25zM521 1874h4v2h-4v-2zM559 2030l31 29l23 4l18 18l33 6l27 -6v6l-25 9l-41 4l-47 -13l-21 -14l-4 -10l-37 -45l-18 -19v-10v-8l4 -62l-4 62l8 8h2l19 4v2zM578 1989l20 -12l-10 12h-10zM680 1909v2h-2zM709 1731v22l-8 25 l-4 82l2 -74l-2 -45l8 -10h4zM750 1702l8 -4l-4 21l-8 59zM805 1667v11l-6 24l-14 154l-6 10h-2l4 -16l-2 -2l16 -150l4 -31h6zM805 1837v13v-13zM1284 1639v4h-8l-73 -16zM1266 1649l10 6l-10 4l-18 8l-7 5l-51 16l-69 35l-23 18l-43 17l-31 6l-10 6v8l-74 27l4 -6l-4 -7 l-2 4l-20 5v-5l2 -26l-2 -6h-4l-2 2l-11 45l-18 6v-4l16 -74l-6 -8h-2l-12 18l-16 78l-7 6h-8v-10l8 -6l5 -53l6 -31v-61l-4 -5l-7 5l-8 47l-10 45l-10 84h-6l8 -99l8 -106l33 -16l59 -15l57 4l195 23l39 8zM1153 1723l25 -15l33 -12l-33 21zM830 2026l-139 10l-31 10h-31 l-61 -37v-6h4l39 -20l6 -10l108 -41l17 -13l80 -43l49 -18l153 -70l54 -24l82 -33l81 -41l25 -14h4v2l-39 90l-49 88l-90 104l-47 29h-31l-27 6l-94 19l-26 -2zM746 2100l-37 36l-29 27l-14 6l-6 -6h-10l-15 -6l-24 -6l-58 -10l-10 -9l-35 -12l-39 -41l-32 -67l-13 -41l2 2 l11 4h2h4h4v16l18 53l19 27h4l20 20l56 39l4 -8l-11 -10l-14 -8l-45 -37l-18 -27l-11 -28l-12 -58h2v15l10 6h6l9 4l-4 18l8 15l71 82l27 10l2 -2l49 8l41 -2l21 -10v4l-8 8l-37 24v5l6 6l4 -4l14 -7l17 -16l26 -27l8 -10v-4l11 -10h6l8 -4v4l-2 18zM770 2261l19 43l-8 19 l-17 22l-55 31l-49 8l-6 -2l-11 -10v-18l-38 -43l-9 -21l-88 -96v-4h4l4 2l37 8l6 -8l-22 -13l12 -2l39 17l17 6l45 -6l36 -12l15 2l20 -19h8v4l9 8l2 11l20 34zM840 2352l8 2l-2 28v-10l-8 -8l-2 -12h4zM856 2456l5 16h-5v-4l-8 -4l-10 -6l-16 4l-2 -4l-5 4h-10l-59 -4 l-27 -4l-59 -19l-35 -18l-25 -18l-90 -11l-12 -4l-2 4h-2l-6 -6h-8l-5 6h3l2 11l14 49l12 63l-4 31l4 18l-8 7l-4 16h-6l-10 18l-3 17l-8 24l2 70h-4l-10 -8l-16 -6l-23 -62l21 19l2 -2v-7l-21 -22l-4 -19l-25 -34l-51 -60h-12l-21 -18l-6 -47l2 -11l-2 -2l6 -41l25 -47 l19 -4l20 -8l16 -12v-10l25 -35l4 -29h4l25 -10l6 -8l59 -7l51 58l35 41l6 35l-2 8l7 6l61 33l43 -4l55 -15l35 -22l12 -41l13 67l4 43l8 11l6 -9v-4zM531 2530v-6l-4 -7h-2v-10l-4 -12l4 -10l34 -45l27 -17h10l17 6v4l8 9l8 6l-39 20l-31 27l-12 18zM598 2503l2 -2l-2 -4 v-6l21 -8l18 -11l13 -10h4v2l-11 10v11l-22 18l-2 8l-14 2zM627 2536l2 -2h21l28 -15l19 -2l4 7l-10 6h-13l-10 6l-33 6zM557 2423l-39 43l-8 -33l-16 -38l45 16l29 6zM918 2354v4l-10 12l-7 18l-8 7l-2 10l-10 51l2 2v10l-2 4l2 2v11h-4l-16 -70l4 -31l14 -30l12 -7z M938 2493l-12 24l8 -43l6 -69l-6 -21h-2l-10 8l-8 23l-6 49l2 43l-2 4l-4 -59l8 -49l14 -37h6l2 4l6 25l9 20zM940 2548l41 23h-26l-11 -11zM1033 2687l4 54l-9 41l-6 4l6 14l5 41l-41 94l-37 43l-21 8l-33 13l-86 18l-4 -2l-6 4l-92 8l-16 -2l45 -6l12 -12l-2 -2l-92 -2 l-2 2l-160 -17l-61 -18l-17 -6l-6 -10l-25 -9l-20 -22h6l43 -10l47 -31l51 -64l15 5l12 12l29 14l41 33l30 20l7 -6l-2 -2l-29 -22l12 4l29 18l6 -6l-2 -2v-4h4l2 4l31 6l37 4l16 -4v-4l-2 -2l-27 -4l-100 -23l-66 -36v-5l35 5l11 -11l22 -63l23 -41l34 -70l7 6l6 -6l-6 -4 l-13 -10l-4 2l-16 20l-8 2l4 -14l-4 -4l-2 4l-19 33h-8l-8 -6l-8 -8l-19 -5l-20 7l-9 10l-4 6l-4 23l17 22l2 14l-43 7l-7 4l7 6l28 6l25 -4v4l-10 12l-15 35l-16 6l-64 -61l2 -4h9l2 4l8 -8v-3l22 -4l11 -8v-8l-2 -2h-4l-3 2l-30 4v-2l-8 -49l6 -37l24 -49l70 -76h6v2l8 21 l2 20l4 6l37 2l49 -12l27 -10l14 -15l-8 -8l-22 -10l-31 -37h8l4 2l58 19l49 6l10 -6l25 2l26 14l53 80l33 49v6l8 8l9 11l12 73h-6l-33 -20l-59 -21l-48 -4l-10 -6l-84 -6l-51 6l-16 27l6 4l61 -6l140 10l26 10l62 17l61 16l2 -2v-4l-12 -10l-27 -5l-6 -81l-6 -7h-6 l-11 -18v-14l-6 -11l-41 -79h4l29 32l31 49l16 21l4 -2v-8l-4 -8l-6 -19h2l10 12l31 45zM1456 2919v8l-26 27v10l-12 12l-45 33l-37 18l-13 9l-20 4l-10 -4l-17 12h-10l-47 20l-53 21l-78 18l-80 10l-117 3l-14 -9l-6 -4h-33l-119 -22l-14 -11l-19 -10l-59 -35h10l33 4l8 5 h10l168 -9l31 -10l55 -26l25 -5l35 -32l47 -78l6 -21l-4 -2l-6 -51l-8 -12v-15l14 -18v-4l4 -8l-4 -8l4 -5v-10v-2v-18l6 4l23 37l18 22l27 47l71 68l62 25l39 16l69 10l62 -6zM553 2648l-22 29l-6 25h2l16 -31l16 -23l50 -10h2l2 -2l-2 -2l-35 4zM938 2683l2 -18v-4l-6 -6 l-26 -2l-31 -9v-6l16 -22v-8l-16 16h-6l-25 -29l-18 -18l-23 -10l-20 4l-6 10l6 27l-4 4l-19 -7l-12 -8l-4 4l18 13l-22 4v6l53 14l72 33l53 27l10 -2zM805 2548l-43 16l-16 17v6l18 -16l31 -11l41 4l2 3l2 -3zM695 2560h-9l-6 4l4 7h11l4 -7zM664 1438l-195 -119v-1184 q2 -98 39 -174q14 -33 38.5 -64.5t61.5 -56t88.5 -39t118.5 -14.5q61 0 107.5 15.5t79 41t54 58t36.5 67.5q33 82 32 185v1161l-172 123h510l-184 -119v-1151v-20q0 -129 -49 -234q-23 -47 -58.5 -93t-91 -81t-131.5 -56.5t-176 -21.5q-115 0 -200 22.5t-146 58.5t-103 82 t-67 95q-59 113 -59 256v1137l-199 125h666zM274 827l62 -98l59 98l-61 473zM336 659l-60 -77l60 -80l55 80zM492 -176q-47 57 -70 123.5t-33 140.5q-5 34 -5 68q0 21 2 42q5 54 5 107l-59 98l-58 -98q0 -82 10.5 -143.5t32.5 -114.5q29 -70 74.5 -129t100.5 -94z" />
<glyph unicode="&#xe2;" horiz-adv-x="1069" d="M1227 2720l10 -29l-66 24l-106 7l-56 -7l-45 -16l-39 -29l-22 -20l-12 -8l-47 -70l-29 -51l-8 -6l-11 -19l-12 -22l-67 -68v-4l22 -8l-80 -47l-2 -4v-6l17 -27l2 -33l12 -47l-21 -53l-12 -21l-37 -8l-10 -4l-16 10l-37 -6l-10 -14v-10l-41 -58l-17 -69l-20 -33v-4l18 -25 l2 -29l8 -34l52 -9l79 -14l41 -4l140 -20l8 -3l4 -14l31 -22l16 -13l12 -20l37 -41l62 -117l14 -43l27 -49l-4 -14l10 -27l-4 -2v-6l4 -2l22 2l4 -4l-4 -8h-20l-2 -2l2 -21l-2 -4l-10 25l-170 -27l-7 -6l-71 -6l-86 -7l-11 -2l-43 2h-8l-12 9l-25 8l-36 24l-11 5l-20 -5 l-129 105l-84 65l-10 9l-35 -9l-72 4l-22 9l-31 32l-10 23l-23 25l-18 4l-15 14l-2 16l-6 13l-6 4l-8 6h-8l-103 -96l-14 -6l-29 -7l-31 -14l-45 -8l-82 -25l-4 -4l-8 6l-41 -10l-2 2l4 10l6 33l15 29l16 24l37 43v7l90 67l17 10l53 78l47 92l-17 33v6v2h-8l-16 -22l-23 -56 l-43 -63l-69 -27l-6 -6l-19 -4l-26 -10l-15 -4h-2l4 41l23 78l6 16v14l-6 6l-10 13l-9 10l2 25l17 45v41v6l14 6l72 76l8 12v12l61 35l117 45l4 8l15 6l57 47l6 13l25 39l22 69v2l-47 7l-27 -9h-10l-4 2l25 47l6 13l24 24h9h2v4l-2 2l-66 -6h-10h-4l-17 33l-2 21l-8 4 l-12 47l-4 51l-8 43v6l-3 2l17 96l49 129l68 162l12 15l8 2l41 -2l70 -15l4 -6l28 -2l70 -37l49 -37l6 -4h7l4 2l63 -78l2 -12l10 -12l-2 -16l-10 -25l-8 -12v-4l2 -2l43 10l47 2l55 6l70 -2l55 2l19 -6l90 -12l82 -29l35 -21h4l2 4l-13 15l21 -4l33 -21h16l107 -67l24 -19 l4 -8v-10zM100 2601l68 8v16h-4l-2 -4l-11 4l-10 -6l-27 -2l-26 -8l-33 4l-4 6l-12 49l-13 60l-6 43l2 24l-2 11l2 22l8 55l35 101l2 12l9 16l22 62l35 69v11l8 6h8l66 -6l78 -31l63 -37l94 -82v-10l-20 -49l-17 -31h3l14 8l16 2v17l6 4l25 47l-12 24l-23 33l-33 29l-30 24 l-68 48l-49 10l-51 10l-60 8l-16 4l-8 -8l-25 -65l-28 -66l-35 -110l-29 -95l-2 -18l-4 -72l16 -63l13 -31l2 -18l6 -9l-2 -8l4 -18h12l27 4zM168 2832l-23 4l-4 -4l-2 -22l2 -4l23 10l4 6v10zM149 2861h6v4h-6v-4zM157 2889l33 33l21 13l-29 14l-14 -16l-11 2l-18 -13 l-8 -14l-6 -25h6l4 15l22 20l5 -6l-5 -8l-6 -21h6v4v2zM112 2799l-4 7v6l6 8l7 18l-7 2h-12l-14 -41l4 -4l18 -16l4 4v12zM139 2638l18 41l-8 6l-24 14l-31 -70h14zM164 2666l-7 -14l-6 -14l17 2v8l6 12l-2 8l-8 2v-4zM98 2662l14 45l-2 2l-24 6l-4 -14l-8 -12l-9 -29 l-8 -12v-12l4 -9h10l5 2zM57 2769l-16 -33h2l28 22l-8 11h-6zM39 2750l6 27l-12 6zM74 2720l-31 2l8 -45l4 -11zM67 2779l27 -10v8l-18 18l4 23h-6l-9 10l-26 10l-4 -8l-2 -29l6 -6h12zM61 2877l-10 -16v-10l23 -13l8 27l-11 12l5 4l4 43l18 21l2 16l10 19l21 -4l4 14l6 18 l-27 11l-10 -27l-6 -29l-16 -22l-11 -27zM53 2898l35 86l22 41l-12 6l-33 -88zM102 2908l19 6l2 16l-21 3l-2 -3l-2 -18l2 -4h2zM110 2898h-10l-6 -21l4 -4h4l8 6v19zM112 2945l27 -4l2 2v6l-10 10h-8l-11 -4v-10zM88 2840l-2 -4l2 2v2zM108 2853l19 10v6h-4l-9 -6h-10v-10 h4zM233 2992v10l-2 -6l-10 12l-2 4l-27 2l-10 -6l-25 -59h11v2l24 39l27 4l4 -4h8zM237 2955l-4 -14l8 -17h5l4 6l2 -6h12l4 6v13zM227 2963l-16 13h-8l-3 -17l21 -10l2 2zM157 2990l5 6l-5 6h-6l-2 -12l-6 -8h6zM184 2898l-6 -49l2 -3l23 -24l43 8l18 6l20 2l19 8l8 7l12 8 v4h-2l-37 14l-22 19l-27 14l-20 6l-12 -4zM274 2918l4 -4l31 -10l2 4l4 12h-2l-2 2l-8 8l-21 5zM321 2902l2 -4l33 -11v2l-18 19h-15zM325 2930l31 -16l23 -12h6l10 16v15l-16 16l-45 22l-23 15l-47 22l-31 15l-55 26l-4 -4l-6 4l-54 29l-2 -4l-8 -29h10l17 -12l41 -19l8 9 l20 4l21 -4l14 -15l2 4l6 -6l3 -12l-5 -4v-8h2l13 -11l45 -20zM319 3033l17 45h-6l-5 4l-20 8v-6l-33 -65l6 -5l25 -8zM344 3059l-19 -28l-12 -29l31 -16l24 45l5 18l-5 6l-16 11h-8v-7zM293 3086v10h-2l-13 9l-10 4l-6 -9l-21 -47l-8 -14l4 -8h6l21 -4l10 28zM223 3045 l33 72l-37 16l-35 -74l39 -16v2zM178 3074l27 59l-11 10h-14l-12 -6v-4l-6 -14l-5 -19l-12 -14v-8h4l25 -8zM135 3084l22 59l-12 2l-22 -55zM389 2967l22 35l2 10l-24 27h-10l-4 -20l-19 -27l-2 -16h2l6 -5l23 -12l4 2v6zM403 2967l-8 -18l10 -4v4l19 31l2 16h-6zM80 2517 l77 10l21 10v6l-4 -2h-6l-4 6l30 41l33 25v6h-4l-10 -12l-56 -19l-47 -22l-16 -23zM184 2617l25 4l6 8l-2 9h-4l-4 2l-5 10h-10zM20 2128v-43l10 -15l33 -16l41 2l17 18v11l-13 12l-16 31h-12l-25 -2l-4 -9l-6 -28l12 -2l23 -4v6l-13 12l-2 -4l-4 -10h-4l-2 2l-2 8l12 16h6 l27 -28l-12 -19l-4 4h-39l-10 15l8 45l4 6l20 2l-2 4h-30zM157 1964l-43 -21l-6 -10l-4 -18l8 -11l11 -8l28 4l6 6v3l78 63l-53 10l-4 -4zM135 1990l4 -4l2 4h-6zM102 1966l-8 -6h6l8 6h-6zM86 1964l8 8l16 12l2 -2h2v4l-34 9l-17 -5h2l17 -12zM-121 2246v-4l53 -24l33 -23 v-10l6 -25l-2 -2v-2l10 -20l-10 -117l23 -29l22 -30l6 16l23 31h10l2 -2l31 8l16 -8v2l-4 12l-4 4l-29 4l-2 -2l-28 10l-21 21l-12 57l-10 17v14l-13 23v10l-8 88l16 22h-4l-32 -12l-43 -14zM22 1925h-2v-6h2v6zM-203 1882l16 4l-2 4l-8 2l-53 33l-19 -76h3l34 14z M-146 1909l31 55h-4l-16 -15l-17 -6l-4 -6l-18 -10v-10l-15 -4l-26 10l53 -31l4 4zM-221 1943l8 -6l-2 6h-6zM-45 2085l6 45l-12 35l-29 26l-25 10l-37 11l-26 -15l-45 -49l-6 -18l-13 -27l-8 -33l-6 -16v-47l33 -17l16 -4l35 -14l59 61l21 11zM-262 1614l6 10l-4 6l-13 39 l-12 -16l-12 -21l4 -8l-6 -6l-2 -15h8l4 6h10l6 5h11zM-146 1665v6l-22 16l-4 15l-6 30l4 23h-8l-9 -2l-22 -19l-15 5l-38 -41v-9l10 -24l10 -29l12 -12v2l-18 45l2 2l-2 16l6 13l6 -6l10 -43l9 -13l39 6l8 7h4l10 -3l8 15h6zM24 1763v4l-8 8l-8 11l2 4v12l-6 6l-4 47l2 8 l6 29l-4 4l-4 8l2 31l-4 8l-17 11h-12l-84 -140l-18 -18l-19 -17l-8 -14l-2 -51l29 -37l71 12zM33 1964l-9 -29l2 -2h4l9 4l-6 17l18 24l4 -6v-6l-10 -6l-2 -11h8h2l12 11l6 16h-4l-2 2l-22 4zM80 1919l-9 16h-6l-22 -10v-6l-2 -2l-11 -4l-4 -21h7l8 8zM45 1816l53 70l-6 14 h-6l-19 -6l-28 -16l-6 -15l-7 -77l7 -7h2l18 -14v10l-2 4zM127 1859l4 17l-21 2l-8 -15l-35 -41l7 -36l14 -41l6 -29l14 86zM145 1724l12 8h-8l-6 4zM145 1765l12 10l-8 4v5l-6 -21v-18zM198 1636h33l-12 4l-14 13h-5l-10 -7v-6h2zM252 1632l4 4h-10v-4h6zM256 1650v9 l-19 12l-10 2l-8 -4v-6l12 -13h25zM246 1687h4v2h-4v-2zM284 1843l31 29l23 4l18 18l33 6l27 -6v6l-25 9l-41 4l-47 -13l-21 -14l-4 -10l-37 -45l-18 -19v-10v-8l4 -62l-4 62l8 8h2l19 4v2zM303 1802l20 -12l-10 12h-10zM405 1722v2h-2zM434 1544v22l-8 25l-4 82l2 -74 l-2 -45l8 -10h4zM475 1515l8 -4l-4 21l-8 59zM530 1480v11l-6 24l-14 154l-6 10h-2l4 -16l-2 -2l16 -150l4 -31h6zM530 1650v13v-13zM1009 1452v4h-8l-73 -16zM991 1462l10 6l-10 4l-18 8l-7 5l-51 16l-69 35l-23 18l-43 17l-31 6l-10 6v8l-74 27l4 -6l-4 -7l-2 4l-20 5v-5 l2 -26l-2 -6h-4l-2 2l-11 45l-18 6v-4l16 -74l-6 -8h-2l-12 18l-16 78l-7 6h-8v-10l8 -6l5 -53l6 -31v-61l-4 -5l-7 5l-8 47l-10 45l-10 84h-6l8 -99l8 -106l33 -16l59 -15l57 4l195 23l39 8zM878 1536l25 -15l33 -12l-33 21zM555 1839l-139 10l-31 10h-31l-61 -37v-6h4 l39 -20l6 -10l108 -41l17 -13l80 -43l49 -18l153 -70l54 -24l82 -33l81 -41l25 -14h4v2l-39 90l-49 88l-90 104l-47 29h-31l-27 6l-94 19l-26 -2zM471 1913l-37 36l-29 27l-14 6l-6 -6h-10l-15 -6l-24 -6l-58 -10l-10 -9l-35 -12l-39 -41l-32 -67l-13 -41l2 2l11 4h2h4h4v16 l18 53l19 27h4l20 20l56 39l4 -8l-11 -10l-14 -8l-45 -37l-18 -27l-11 -28l-12 -58h2v15l10 6h6l9 4l-4 18l8 15l71 82l27 10l2 -2l49 8l41 -2l21 -10v4l-8 8l-37 24v5l6 6l4 -4l14 -7l17 -16l26 -27l8 -10v-4l11 -10h6l8 -4v4l-2 18zM495 2074l19 43l-8 19l-17 22l-55 31 l-49 8l-6 -2l-11 -10v-18l-38 -43l-9 -21l-88 -96v-4h4l4 2l37 8l6 -8l-22 -13l12 -2l39 17l17 6l45 -6l36 -12l15 2l20 -19h8v4l9 8l2 11l20 34zM565 2165l8 2l-2 28v-10l-8 -8l-2 -12h4zM581 2269l5 16h-5v-4l-8 -4l-10 -6l-16 4l-2 -4l-5 4h-10l-59 -4l-27 -4l-59 -19 l-35 -18l-25 -18l-90 -11l-12 -4l-2 4h-2l-6 -6h-8l-5 6h3l2 11l14 49l12 63l-4 31l4 18l-8 7l-4 16h-6l-10 18l-3 17l-8 24l2 70h-4l-10 -8l-16 -6l-23 -62l21 19l2 -2v-7l-21 -22l-4 -19l-25 -34l-51 -60h-12l-21 -18l-6 -47l2 -11l-2 -2l6 -41l25 -47l19 -4l20 -8l16 -12 v-10l25 -35l4 -29h4l25 -10l6 -8l59 -7l51 58l35 41l6 35l-2 8l7 6l61 33l43 -4l55 -15l35 -22l12 -41l13 67l4 43l8 11l6 -9v-4zM256 2343v-6l-4 -7h-2v-10l-4 -12l4 -10l34 -45l27 -17h10l17 6v4l8 9l8 6l-39 20l-31 27l-12 18zM323 2316l2 -2l-2 -4v-6l21 -8l18 -11 l13 -10h4v2l-11 10v11l-22 18l-2 8l-14 2zM352 2349l2 -2h21l28 -15l19 -2l4 7l-10 6h-13l-10 6l-33 6zM282 2236l-39 43l-8 -33l-16 -38l45 16l29 6zM643 2167v4l-10 12l-7 18l-8 7l-2 10l-10 51l2 2v10l-2 4l2 2v11h-4l-16 -70l4 -31l14 -30l12 -7zM663 2306l-12 24l8 -43 l6 -69l-6 -21h-2l-10 8l-8 23l-6 49l2 43l-2 4l-4 -59l8 -49l14 -37h6l2 4l6 25l9 20zM665 2361l41 23h-26l-11 -11zM758 2500l4 54l-9 41l-6 4l6 14l5 41l-41 94l-37 43l-21 8l-33 13l-86 18l-4 -2l-6 4l-92 8l-16 -2l45 -6l12 -12l-2 -2l-92 -2l-2 2l-160 -17l-61 -18 l-17 -6l-6 -10l-25 -9l-20 -22h6l43 -10l47 -31l51 -64l15 5l12 12l29 14l41 33l30 20l7 -6l-2 -2l-29 -22l12 4l29 18l6 -6l-2 -2v-4h4l2 4l31 6l37 4l16 -4v-4l-2 -2l-27 -4l-100 -23l-66 -36v-5l35 5l11 -11l22 -63l23 -41l34 -70l7 6l6 -6l-6 -4l-13 -10l-4 2l-16 20 l-8 2l4 -14l-4 -4l-2 4l-19 33h-8l-8 -6l-8 -8l-19 -5l-20 7l-9 10l-4 6l-4 23l17 22l2 14l-43 7l-7 4l7 6l28 6l25 -4v4l-10 12l-15 35l-16 6l-64 -61l2 -4h9l2 4l8 -8v-3l22 -4l11 -8v-8l-2 -2h-4l-3 2l-30 4v-2l-8 -49l6 -37l24 -49l70 -76h6v2l8 21l2 20l4 6l37 2 l49 -12l27 -10l14 -15l-8 -8l-22 -10l-31 -37h8l4 2l58 19l49 6l10 -6l25 2l26 14l53 80l33 49v6l8 8l9 11l12 73h-6l-33 -20l-59 -21l-48 -4l-10 -6l-84 -6l-51 6l-16 27l6 4l61 -6l140 10l26 10l62 17l61 16l2 -2v-4l-12 -10l-27 -5l-6 -81l-6 -7h-6l-11 -18v-14l-6 -11 l-41 -79h4l29 32l31 49l16 21l4 -2v-8l-4 -8l-6 -19h2l10 12l31 45zM1181 2732v8l-26 27v10l-12 12l-45 33l-37 18l-13 9l-20 4l-10 -4l-17 12h-10l-47 20l-53 21l-78 18l-80 10l-117 3l-14 -9l-6 -4h-33l-119 -22l-14 -11l-19 -10l-59 -35h10l33 4l8 5h10l168 -9l31 -10 l55 -26l25 -5l35 -32l47 -78l6 -21l-4 -2l-6 -51l-8 -12v-15l14 -18v-4l4 -8l-4 -8l4 -5v-10v-2v-18l6 4l23 37l18 22l27 47l71 68l62 25l39 16l69 10l62 -6zM278 2461l-22 29l-6 25h2l16 -31l16 -23l50 -10h2l2 -2l-2 -2l-35 4zM663 2496l2 -18v-4l-6 -6l-26 -2l-31 -9v-6 l16 -22v-8l-16 16h-6l-25 -29l-18 -18l-23 -10l-20 4l-6 10l6 27l-4 4l-19 -7l-12 -8l-4 4l18 13l-22 4v6l53 14l72 33l53 27l10 -2zM530 2361l-43 16l-16 17v6l18 -16l31 -11l41 4l2 3l2 -3zM420 2373h-9l-6 4l4 7h11l4 -7zM1051 0h-467l92 106l-66 320h-256l-84 -328 l109 -98h-381l143 106l285 1033l-129 102h319l316 -1151zM375 502h215l-109 434z" />
<glyph unicode="&#xea;" horiz-adv-x="768" d="M1133 2720l10 -29l-66 24l-106 7l-56 -7l-45 -16l-39 -29l-22 -20l-12 -8l-47 -70l-29 -51l-8 -6l-11 -19l-12 -22l-67 -68v-4l22 -8l-80 -47l-2 -4v-6l17 -27l2 -33l12 -47l-21 -53l-12 -21l-37 -8l-10 -4l-16 10l-37 -6l-10 -14v-10l-41 -58l-17 -69l-20 -33v-4l18 -25 l2 -29l8 -34l52 -9l79 -14l41 -4l140 -20l8 -3l4 -14l31 -22l16 -13l12 -20l37 -41l62 -117l14 -43l27 -49l-4 -14l10 -27l-4 -2v-6l4 -2l22 2l4 -4l-4 -8h-20l-2 -2l2 -21l-2 -4l-10 25l-170 -27l-7 -6l-71 -6l-86 -7l-11 -2l-43 2h-8l-12 9l-25 8l-36 24l-11 5l-20 -5 l-129 105l-84 65l-10 9l-35 -9l-72 4l-22 9l-31 32l-10 23l-23 25l-18 4l-15 14l-2 16l-6 13l-6 4l-8 6h-8l-103 -96l-14 -6l-29 -7l-31 -14l-45 -8l-82 -25l-4 -4l-8 6l-41 -10l-2 2l4 10l6 33l15 29l16 24l37 43v7l90 67l17 10l53 78l47 92l-17 33v6v2h-8l-16 -22l-23 -56 l-43 -63l-69 -27l-6 -6l-19 -4l-26 -10l-15 -4h-2l4 41l23 78l6 16v14l-6 6l-10 13l-9 10l2 25l17 45v41v6l14 6l72 76l8 12v12l61 35l117 45l4 8l15 6l57 47l6 13l25 39l22 69v2l-47 7l-27 -9h-10l-4 2l25 47l6 13l24 24h9h2v4l-2 2l-66 -6h-10h-4l-17 33l-2 21l-8 4 l-12 47l-4 51l-8 43v6l-3 2l17 96l49 129l68 162l12 15l8 2l41 -2l70 -15l4 -6l28 -2l70 -37l49 -37l6 -4h7l4 2l63 -78l2 -12l10 -12l-2 -16l-10 -25l-8 -12v-4l2 -2l43 10l47 2l55 6l70 -2l55 2l19 -6l90 -12l82 -29l35 -21h4l2 4l-13 15l21 -4l33 -21h16l107 -67l24 -19 l4 -8v-10zM6 2601l68 8v16h-4l-2 -4l-11 4l-10 -6l-27 -2l-26 -8l-33 4l-4 6l-12 49l-13 60l-6 43l2 24l-2 11l2 22l8 55l35 101l2 12l9 16l22 62l35 69v11l8 6h8l66 -6l78 -31l63 -37l94 -82v-10l-20 -49l-17 -31h3l14 8l16 2v17l6 4l25 47l-12 24l-23 33l-33 29l-30 24 l-68 48l-49 10l-51 10l-60 8l-16 4l-8 -8l-25 -65l-28 -66l-35 -110l-29 -95l-2 -18l-4 -72l16 -63l13 -31l2 -18l6 -9l-2 -8l4 -18h12l27 4zM74 2832l-23 4l-4 -4l-2 -22l2 -4l23 10l4 6v10zM55 2861h6v4h-6v-4zM63 2889l33 33l21 13l-29 14l-14 -16l-11 2l-18 -13l-8 -14 l-6 -25h6l4 15l22 20l5 -6l-5 -8l-6 -21h6v4v2zM18 2799l-4 7v6l6 8l7 18l-7 2h-12l-14 -41l4 -4l18 -16l4 4v12zM45 2638l18 41l-8 6l-24 14l-31 -70h14zM70 2666l-7 -14l-6 -14l17 2v8l6 12l-2 8l-8 2v-4zM4 2662l14 45l-2 2l-24 6l-4 -14l-8 -12l-9 -29l-8 -12v-12l4 -9 h10l5 2zM-37 2769l-16 -33h2l28 22l-8 11h-6zM-55 2750l6 27l-12 6zM-20 2720l-31 2l8 -45l4 -11zM-27 2779l27 -10v8l-18 18l4 23h-6l-9 10l-26 10l-4 -8l-2 -29l6 -6h12zM-33 2877l-10 -16v-10l23 -13l8 27l-11 12l5 4l4 43l18 21l2 16l10 19l21 -4l4 14l6 18l-27 11 l-10 -27l-6 -29l-16 -22l-11 -27zM-41 2898l35 86l22 41l-12 6l-33 -88zM8 2908l19 6l2 16l-21 3l-2 -3l-2 -18l2 -4h2zM16 2898h-10l-6 -21l4 -4h4l8 6v19zM18 2945l27 -4l2 2v6l-10 10h-8l-11 -4v-10zM-6 2840l-2 -4l2 2v2zM14 2853l19 10v6h-4l-9 -6h-10v-10h4zM139 2992 v10l-2 -6l-10 12l-2 4l-27 2l-10 -6l-25 -59h11v2l24 39l27 4l4 -4h8zM143 2955l-4 -14l8 -17h5l4 6l2 -6h12l4 6v13zM133 2963l-16 13h-8l-3 -17l21 -10l2 2zM63 2990l5 6l-5 6h-6l-2 -12l-6 -8h6zM90 2898l-6 -49l2 -3l23 -24l43 8l18 6l20 2l19 8l8 7l12 8v4h-2l-37 14 l-22 19l-27 14l-20 6l-12 -4zM180 2918l4 -4l31 -10l2 4l4 12h-2l-2 2l-8 8l-21 5zM227 2902l2 -4l33 -11v2l-18 19h-15zM231 2930l31 -16l23 -12h6l10 16v15l-16 16l-45 22l-23 15l-47 22l-31 15l-55 26l-4 -4l-6 4l-54 29l-2 -4l-8 -29h10l17 -12l41 -19l8 9l20 4l21 -4 l14 -15l2 4l6 -6l3 -12l-5 -4v-8h2l13 -11l45 -20zM225 3033l17 45h-6l-5 4l-20 8v-6l-33 -65l6 -5l25 -8zM250 3059l-19 -28l-12 -29l31 -16l24 45l5 18l-5 6l-16 11h-8v-7zM199 3086v10h-2l-13 9l-10 4l-6 -9l-21 -47l-8 -14l4 -8h6l21 -4l10 28zM129 3045l33 72l-37 16 l-35 -74l39 -16v2zM84 3074l27 59l-11 10h-14l-12 -6v-4l-6 -14l-5 -19l-12 -14v-8h4l25 -8zM41 3084l22 59l-12 2l-22 -55zM295 2967l22 35l2 10l-24 27h-10l-4 -20l-19 -27l-2 -16h2l6 -5l23 -12l4 2v6zM309 2967l-8 -18l10 -4v4l19 31l2 16h-6zM-14 2517l77 10l21 10v6 l-4 -2h-6l-4 6l30 41l33 25v6h-4l-10 -12l-56 -19l-47 -22l-16 -23zM90 2617l25 4l6 8l-2 9h-4l-4 2l-5 10h-10zM-74 2128v-43l10 -15l33 -16l41 2l17 18v11l-13 12l-16 31h-12l-25 -2l-4 -9l-6 -28l12 -2l23 -4v6l-13 12l-2 -4l-4 -10h-4l-2 2l-2 8l12 16h6l27 -28l-12 -19 l-4 4h-39l-10 15l8 45l4 6l20 2l-2 4h-30zM63 1964l-43 -21l-6 -10l-4 -18l8 -11l11 -8l28 4l6 6v3l78 63l-53 10l-4 -4zM41 1990l4 -4l2 4h-6zM8 1966l-8 -6h6l8 6h-6zM-8 1964l8 8l16 12l2 -2h2v4l-34 9l-17 -5h2l17 -12zM-215 2246v-4l53 -24l33 -23v-10l6 -25l-2 -2v-2 l10 -20l-10 -117l23 -29l22 -30l6 16l23 31h10l2 -2l31 8l16 -8v2l-4 12l-4 4l-29 4l-2 -2l-28 10l-21 21l-12 57l-10 17v14l-13 23v10l-8 88l16 22h-4l-32 -12l-43 -14zM-72 1925h-2v-6h2v6zM-297 1882l16 4l-2 4l-8 2l-53 33l-19 -76h3l34 14zM-240 1909l31 55h-4l-16 -15 l-17 -6l-4 -6l-18 -10v-10l-15 -4l-26 10l53 -31l4 4zM-315 1943l8 -6l-2 6h-6zM-139 2085l6 45l-12 35l-29 26l-25 10l-37 11l-26 -15l-45 -49l-6 -18l-13 -27l-8 -33l-6 -16v-47l33 -17l16 -4l35 -14l59 61l21 11zM-356 1614l6 10l-4 6l-13 39l-12 -16l-12 -21l4 -8l-6 -6 l-2 -15h8l4 6h10l6 5h11zM-240 1665v6l-22 16l-4 15l-6 30l4 23h-8l-9 -2l-22 -19l-15 5l-38 -41v-9l10 -24l10 -29l12 -12v2l-18 45l2 2l-2 16l6 13l6 -6l10 -43l9 -13l39 6l8 7h4l10 -3l8 15h6zM-70 1763v4l-8 8l-8 11l2 4v12l-6 6l-4 47l2 8l6 29l-4 4l-4 8l2 31l-4 8 l-17 11h-12l-84 -140l-18 -18l-19 -17l-8 -14l-2 -51l29 -37l71 12zM-61 1964l-9 -29l2 -2h4l9 4l-6 17l18 24l4 -6v-6l-10 -6l-2 -11h8h2l12 11l6 16h-4l-2 2l-22 4zM-14 1919l-9 16h-6l-22 -10v-6l-2 -2l-11 -4l-4 -21h7l8 8zM-49 1816l53 70l-6 14h-6l-19 -6l-28 -16 l-6 -15l-7 -77l7 -7h2l18 -14v10l-2 4zM33 1859l4 17l-21 2l-8 -15l-35 -41l7 -36l14 -41l6 -29l14 86zM51 1724l12 8h-8l-6 4zM51 1765l12 10l-8 4v5l-6 -21v-18zM104 1636h33l-12 4l-14 13h-5l-10 -7v-6h2zM158 1632l4 4h-10v-4h6zM162 1650v9l-19 12l-10 2l-8 -4v-6 l12 -13h25zM152 1687h4v2h-4v-2zM190 1843l31 29l23 4l18 18l33 6l27 -6v6l-25 9l-41 4l-47 -13l-21 -14l-4 -10l-37 -45l-18 -19v-10v-8l4 -62l-4 62l8 8h2l19 4v2zM209 1802l20 -12l-10 12h-10zM311 1722v2h-2zM340 1544v22l-8 25l-4 82l2 -74l-2 -45l8 -10h4zM381 1515 l8 -4l-4 21l-8 59zM436 1480v11l-6 24l-14 154l-6 10h-2l4 -16l-2 -2l16 -150l4 -31h6zM436 1650v13v-13zM915 1452v4h-8l-73 -16zM897 1462l10 6l-10 4l-18 8l-7 5l-51 16l-69 35l-23 18l-43 17l-31 6l-10 6v8l-74 27l4 -6l-4 -7l-2 4l-20 5v-5l2 -26l-2 -6h-4l-2 2l-11 45 l-18 6v-4l16 -74l-6 -8h-2l-12 18l-16 78l-7 6h-8v-10l8 -6l5 -53l6 -31v-61l-4 -5l-7 5l-8 47l-10 45l-10 84h-6l8 -99l8 -106l33 -16l59 -15l57 4l195 23l39 8zM784 1536l25 -15l33 -12l-33 21zM461 1839l-139 10l-31 10h-31l-61 -37v-6h4l39 -20l6 -10l108 -41l17 -13 l80 -43l49 -18l153 -70l54 -24l82 -33l81 -41l25 -14h4v2l-39 90l-49 88l-90 104l-47 29h-31l-27 6l-94 19l-26 -2zM377 1913l-37 36l-29 27l-14 6l-6 -6h-10l-15 -6l-24 -6l-58 -10l-10 -9l-35 -12l-39 -41l-32 -67l-13 -41l2 2l11 4h2h4h4v16l18 53l19 27h4l20 20l56 39 l4 -8l-11 -10l-14 -8l-45 -37l-18 -27l-11 -28l-12 -58h2v15l10 6h6l9 4l-4 18l8 15l71 82l27 10l2 -2l49 8l41 -2l21 -10v4l-8 8l-37 24v5l6 6l4 -4l14 -7l17 -16l26 -27l8 -10v-4l11 -10h6l8 -4v4l-2 18zM401 2074l19 43l-8 19l-17 22l-55 31l-49 8l-6 -2l-11 -10v-18 l-38 -43l-9 -21l-88 -96v-4h4l4 2l37 8l6 -8l-22 -13l12 -2l39 17l17 6l45 -6l36 -12l15 2l20 -19h8v4l9 8l2 11l20 34zM471 2165l8 2l-2 28v-10l-8 -8l-2 -12h4zM487 2269l5 16h-5v-4l-8 -4l-10 -6l-16 4l-2 -4l-5 4h-10l-59 -4l-27 -4l-59 -19l-35 -18l-25 -18l-90 -11 l-12 -4l-2 4h-2l-6 -6h-8l-5 6h3l2 11l14 49l12 63l-4 31l4 18l-8 7l-4 16h-6l-10 18l-3 17l-8 24l2 70h-4l-10 -8l-16 -6l-23 -62l21 19l2 -2v-7l-21 -22l-4 -19l-25 -34l-51 -60h-12l-21 -18l-6 -47l2 -11l-2 -2l6 -41l25 -47l19 -4l20 -8l16 -12v-10l25 -35l4 -29h4 l25 -10l6 -8l59 -7l51 58l35 41l6 35l-2 8l7 6l61 33l43 -4l55 -15l35 -22l12 -41l13 67l4 43l8 11l6 -9v-4zM162 2343v-6l-4 -7h-2v-10l-4 -12l4 -10l34 -45l27 -17h10l17 6v4l8 9l8 6l-39 20l-31 27l-12 18zM229 2316l2 -2l-2 -4v-6l21 -8l18 -11l13 -10h4v2l-11 10v11 l-22 18l-2 8l-14 2zM258 2349l2 -2h21l28 -15l19 -2l4 7l-10 6h-13l-10 6l-33 6zM188 2236l-39 43l-8 -33l-16 -38l45 16l29 6zM549 2167v4l-10 12l-7 18l-8 7l-2 10l-10 51l2 2v10l-2 4l2 2v11h-4l-16 -70l4 -31l14 -30l12 -7zM569 2306l-12 24l8 -43l6 -69l-6 -21h-2 l-10 8l-8 23l-6 49l2 43l-2 4l-4 -59l8 -49l14 -37h6l2 4l6 25l9 20zM571 2361l41 23h-26l-11 -11zM664 2500l4 54l-9 41l-6 4l6 14l5 41l-41 94l-37 43l-21 8l-33 13l-86 18l-4 -2l-6 4l-92 8l-16 -2l45 -6l12 -12l-2 -2l-92 -2l-2 2l-160 -17l-61 -18l-17 -6l-6 -10 l-25 -9l-20 -22h6l43 -10l47 -31l51 -64l15 5l12 12l29 14l41 33l30 20l7 -6l-2 -2l-29 -22l12 4l29 18l6 -6l-2 -2v-4h4l2 4l31 6l37 4l16 -4v-4l-2 -2l-27 -4l-100 -23l-66 -36v-5l35 5l11 -11l22 -63l23 -41l34 -70l7 6l6 -6l-6 -4l-13 -10l-4 2l-16 20l-8 2l4 -14l-4 -4 l-2 4l-19 33h-8l-8 -6l-8 -8l-19 -5l-20 7l-9 10l-4 6l-4 23l17 22l2 14l-43 7l-7 4l7 6l28 6l25 -4v4l-10 12l-15 35l-16 6l-64 -61l2 -4h9l2 4l8 -8v-3l22 -4l11 -8v-8l-2 -2h-4l-3 2l-30 4v-2l-8 -49l6 -37l24 -49l70 -76h6v2l8 21l2 20l4 6l37 2l49 -12l27 -10l14 -15 l-8 -8l-22 -10l-31 -37h8l4 2l58 19l49 6l10 -6l25 2l26 14l53 80l33 49v6l8 8l9 11l12 73h-6l-33 -20l-59 -21l-48 -4l-10 -6l-84 -6l-51 6l-16 27l6 4l61 -6l140 10l26 10l62 17l61 16l2 -2v-4l-12 -10l-27 -5l-6 -81l-6 -7h-6l-11 -18v-14l-6 -11l-41 -79h4l29 32l31 49 l16 21l4 -2v-8l-4 -8l-6 -19h2l10 12l31 45zM1087 2732v8l-26 27v10l-12 12l-45 33l-37 18l-13 9l-20 4l-10 -4l-17 12h-10l-47 20l-53 21l-78 18l-80 10l-117 3l-14 -9l-6 -4h-33l-119 -22l-14 -11l-19 -10l-59 -35h10l33 4l8 5h10l168 -9l31 -10l55 -26l25 -5l35 -32 l47 -78l6 -21l-4 -2l-6 -51l-8 -12v-15l14 -18v-4l4 -8l-4 -8l4 -5v-10v-2v-18l6 4l23 37l18 22l27 47l71 68l62 25l39 16l69 10l62 -6zM184 2461l-22 29l-6 25h2l16 -31l16 -23l50 -10h2l2 -2l-2 -2l-35 4zM569 2496l2 -18v-4l-6 -6l-26 -2l-31 -9v-6l16 -22v-8l-16 16h-6 l-25 -29l-18 -18l-23 -10l-20 4l-6 10l6 27l-4 4l-19 -7l-12 -8l-4 4l18 13l-22 4v6l53 14l72 33l53 27l10 -2zM436 2361l-43 16l-16 17v6l18 -16l31 -11l41 4l2 3l2 -3zM326 2373h-9l-6 4l4 7h11l4 -7zM2 1239h719v-438l-150 370h-243v-495h145l98 147v-370l-94 137h-149 v-496h252l141 463v-557h-719l90 78v1081z" />
<glyph unicode="&#xee;" horiz-adv-x="473" d="M986 2720l10 -29l-66 24l-106 7l-56 -7l-45 -16l-39 -29l-22 -20l-12 -8l-47 -70l-29 -51l-8 -6l-11 -19l-12 -22l-67 -68v-4l22 -8l-80 -47l-2 -4v-6l17 -27l2 -33l12 -47l-21 -53l-12 -21l-37 -8l-10 -4l-16 10l-37 -6l-10 -14v-10l-41 -58l-17 -69l-20 -33v-4l18 -25 l2 -29l8 -34l52 -9l79 -14l41 -4l140 -20l8 -3l4 -14l31 -22l16 -13l12 -20l37 -41l62 -117l14 -43l27 -49l-4 -14l10 -27l-4 -2v-6l4 -2l22 2l4 -4l-4 -8h-20l-2 -2l2 -21l-2 -4l-10 25l-170 -27l-7 -6l-71 -6l-86 -7l-11 -2l-43 2h-8l-12 9l-25 8l-36 24l-11 5l-20 -5 l-129 105l-84 65l-10 9l-35 -9l-72 4l-22 9l-31 32l-10 23l-23 25l-18 4l-15 14l-2 16l-6 13l-6 4l-8 6h-8l-103 -96l-14 -6l-29 -7l-31 -14l-45 -8l-82 -25l-4 -4l-8 6l-41 -10l-2 2l4 10l6 33l15 29l16 24l37 43v7l90 67l17 10l53 78l47 92l-17 33v6v2h-8l-16 -22l-23 -56 l-43 -63l-69 -27l-6 -6l-19 -4l-26 -10l-15 -4h-2l4 41l23 78l6 16v14l-6 6l-10 13l-9 10l2 25l17 45v41v6l14 6l72 76l8 12v12l61 35l117 45l4 8l15 6l57 47l6 13l25 39l22 69v2l-47 7l-27 -9h-10l-4 2l25 47l6 13l24 24h9h2v4l-2 2l-66 -6h-10h-4l-17 33l-2 21l-8 4 l-12 47l-4 51l-8 43v6l-3 2l17 96l49 129l68 162l12 15l8 2l41 -2l70 -15l4 -6l28 -2l70 -37l49 -37l6 -4h7l4 2l63 -78l2 -12l10 -12l-2 -16l-10 -25l-8 -12v-4l2 -2l43 10l47 2l55 6l70 -2l55 2l19 -6l90 -12l82 -29l35 -21h4l2 4l-13 15l21 -4l33 -21h16l107 -67l24 -19 l4 -8v-10zM-141 2601l68 8v16h-4l-2 -4l-11 4l-10 -6l-27 -2l-26 -8l-33 4l-4 6l-12 49l-13 60l-6 43l2 24l-2 11l2 22l8 55l35 101l2 12l9 16l22 62l35 69v11l8 6h8l66 -6l78 -31l63 -37l94 -82v-10l-20 -49l-17 -31h3l14 8l16 2v17l6 4l25 47l-12 24l-23 33l-33 29l-30 24 l-68 48l-49 10l-51 10l-60 8l-16 4l-8 -8l-25 -65l-28 -66l-35 -110l-29 -95l-2 -18l-4 -72l16 -63l13 -31l2 -18l6 -9l-2 -8l4 -18h12l27 4zM-73 2832l-23 4l-4 -4l-2 -22l2 -4l23 10l4 6v10zM-92 2861h6v4h-6v-4zM-84 2889l33 33l21 13l-29 14l-14 -16l-11 2l-18 -13 l-8 -14l-6 -25h6l4 15l22 20l5 -6l-5 -8l-6 -21h6v4v2zM-129 2799l-4 7v6l6 8l7 18l-7 2h-12l-14 -41l4 -4l18 -16l4 4v12zM-102 2638l18 41l-8 6l-24 14l-31 -70h14zM-77 2666l-7 -14l-6 -14l17 2v8l6 12l-2 8l-8 2v-4zM-143 2662l14 45l-2 2l-24 6l-4 -14l-8 -12l-9 -29 l-8 -12v-12l4 -9h10l5 2zM-184 2769l-16 -33h2l28 22l-8 11h-6zM-202 2750l6 27l-12 6zM-167 2720l-31 2l8 -45l4 -11zM-174 2779l27 -10v8l-18 18l4 23h-6l-9 10l-26 10l-4 -8l-2 -29l6 -6h12zM-180 2877l-10 -16v-10l23 -13l8 27l-11 12l5 4l4 43l18 21l2 16l10 19l21 -4 l4 14l6 18l-27 11l-10 -27l-6 -29l-16 -22l-11 -27zM-188 2898l35 86l22 41l-12 6l-33 -88zM-139 2908l19 6l2 16l-21 3l-2 -3l-2 -18l2 -4h2zM-131 2898h-10l-6 -21l4 -4h4l8 6v19zM-129 2945l27 -4l2 2v6l-10 10h-8l-11 -4v-10zM-153 2840l-2 -4l2 2v2zM-133 2853l19 10v6 h-4l-9 -6h-10v-10h4zM-8 2992v10l-2 -6l-10 12l-2 4l-27 2l-10 -6l-25 -59h11v2l24 39l27 4l4 -4h8zM-4 2955l-4 -14l8 -17h5l4 6l2 -6h12l4 6v13zM-14 2963l-16 13h-8l-3 -17l21 -10l2 2zM-84 2990l5 6l-5 6h-6l-2 -12l-6 -8h6zM-57 2898l-6 -49l2 -3l23 -24l43 8l18 6 l20 2l19 8l8 7l12 8v4h-2l-37 14l-22 19l-27 14l-20 6l-12 -4zM33 2918l4 -4l31 -10l2 4l4 12h-2l-2 2l-8 8l-21 5zM80 2902l2 -4l33 -11v2l-18 19h-15zM84 2930l31 -16l23 -12h6l10 16v15l-16 16l-45 22l-23 15l-47 22l-31 15l-55 26l-4 -4l-6 4l-54 29l-2 -4l-8 -29h10 l17 -12l41 -19l8 9l20 4l21 -4l14 -15l2 4l6 -6l3 -12l-5 -4v-8h2l13 -11l45 -20zM78 3033l17 45h-6l-5 4l-20 8v-6l-33 -65l6 -5l25 -8zM103 3059l-19 -28l-12 -29l31 -16l24 45l5 18l-5 6l-16 11h-8v-7zM52 3086v10h-2l-13 9l-10 4l-6 -9l-21 -47l-8 -14l4 -8h6l21 -4 l10 28zM-18 3045l33 72l-37 16l-35 -74l39 -16v2zM-63 3074l27 59l-11 10h-14l-12 -6v-4l-6 -14l-5 -19l-12 -14v-8h4l25 -8zM-106 3084l22 59l-12 2l-22 -55zM148 2967l22 35l2 10l-24 27h-10l-4 -20l-19 -27l-2 -16h2l6 -5l23 -12l4 2v6zM162 2967l-8 -18l10 -4v4l19 31 l2 16h-6zM-161 2517l77 10l21 10v6l-4 -2h-6l-4 6l30 41l33 25v6h-4l-10 -12l-56 -19l-47 -22l-16 -23zM-57 2617l25 4l6 8l-2 9h-4l-4 2l-5 10h-10zM-221 2128v-43l10 -15l33 -16l41 2l17 18v11l-13 12l-16 31h-12l-25 -2l-4 -9l-6 -28l12 -2l23 -4v6l-13 12l-2 -4l-4 -10 h-4l-2 2l-2 8l12 16h6l27 -28l-12 -19l-4 4h-39l-10 15l8 45l4 6l20 2l-2 4h-30zM-84 1964l-43 -21l-6 -10l-4 -18l8 -11l11 -8l28 4l6 6v3l78 63l-53 10l-4 -4zM-106 1990l4 -4l2 4h-6zM-139 1966l-8 -6h6l8 6h-6zM-155 1964l8 8l16 12l2 -2h2v4l-34 9l-17 -5h2l17 -12z M-362 2246v-4l53 -24l33 -23v-10l6 -25l-2 -2v-2l10 -20l-10 -117l23 -29l22 -30l6 16l23 31h10l2 -2l31 8l16 -8v2l-4 12l-4 4l-29 4l-2 -2l-28 10l-21 21l-12 57l-10 17v14l-13 23v10l-8 88l16 22h-4l-32 -12l-43 -14zM-219 1925h-2v-6h2v6zM-444 1882l16 4l-2 4l-8 2 l-53 33l-19 -76h3l34 14zM-387 1909l31 55h-4l-16 -15l-17 -6l-4 -6l-18 -10v-10l-15 -4l-26 10l53 -31l4 4zM-462 1943l8 -6l-2 6h-6zM-286 2085l6 45l-12 35l-29 26l-25 10l-37 11l-26 -15l-45 -49l-6 -18l-13 -27l-8 -33l-6 -16v-47l33 -17l16 -4l35 -14l59 61l21 11z M-503 1614l6 10l-4 6l-13 39l-12 -16l-12 -21l4 -8l-6 -6l-2 -15h8l4 6h10l6 5h11zM-387 1665v6l-22 16l-4 15l-6 30l4 23h-8l-9 -2l-22 -19l-15 5l-38 -41v-9l10 -24l10 -29l12 -12v2l-18 45l2 2l-2 16l6 13l6 -6l10 -43l9 -13l39 6l8 7h4l10 -3l8 15h6zM-217 1763v4l-8 8 l-8 11l2 4v12l-6 6l-4 47l2 8l6 29l-4 4l-4 8l2 31l-4 8l-17 11h-12l-84 -140l-18 -18l-19 -17l-8 -14l-2 -51l29 -37l71 12zM-208 1964l-9 -29l2 -2h4l9 4l-6 17l18 24l4 -6v-6l-10 -6l-2 -11h8h2l12 11l6 16h-4l-2 2l-22 4zM-161 1919l-9 16h-6l-22 -10v-6l-2 -2l-11 -4 l-4 -21h7l8 8zM-196 1816l53 70l-6 14h-6l-19 -6l-28 -16l-6 -15l-7 -77l7 -7h2l18 -14v10l-2 4zM-114 1859l4 17l-21 2l-8 -15l-35 -41l7 -36l14 -41l6 -29l14 86zM-96 1724l12 8h-8l-6 4zM-96 1765l12 10l-8 4v5l-6 -21v-18zM-43 1636h33l-12 4l-14 13h-5l-10 -7v-6h2z M11 1632l4 4h-10v-4h6zM15 1650v9l-19 12l-10 2l-8 -4v-6l12 -13h25zM5 1687h4v2h-4v-2zM43 1843l31 29l23 4l18 18l33 6l27 -6v6l-25 9l-41 4l-47 -13l-21 -14l-4 -10l-37 -45l-18 -19v-10v-8l4 -62l-4 62l8 8h2l19 4v2zM62 1802l20 -12l-10 12h-10zM164 1722v2h-2z M193 1544v22l-8 25l-4 82l2 -74l-2 -45l8 -10h4zM234 1515l8 -4l-4 21l-8 59zM289 1480v11l-6 24l-14 154l-6 10h-2l4 -16l-2 -2l16 -150l4 -31h6zM289 1650v13v-13zM768 1452v4h-8l-73 -16zM750 1462l10 6l-10 4l-18 8l-7 5l-51 16l-69 35l-23 18l-43 17l-31 6l-10 6v8 l-74 27l4 -6l-4 -7l-2 4l-20 5v-5l2 -26l-2 -6h-4l-2 2l-11 45l-18 6v-4l16 -74l-6 -8h-2l-12 18l-16 78l-7 6h-8v-10l8 -6l5 -53l6 -31v-61l-4 -5l-7 5l-8 47l-10 45l-10 84h-6l8 -99l8 -106l33 -16l59 -15l57 4l195 23l39 8zM637 1536l25 -15l33 -12l-33 21zM314 1839 l-139 10l-31 10h-31l-61 -37v-6h4l39 -20l6 -10l108 -41l17 -13l80 -43l49 -18l153 -70l54 -24l82 -33l81 -41l25 -14h4v2l-39 90l-49 88l-90 104l-47 29h-31l-27 6l-94 19l-26 -2zM230 1913l-37 36l-29 27l-14 6l-6 -6h-10l-15 -6l-24 -6l-58 -10l-10 -9l-35 -12l-39 -41 l-32 -67l-13 -41l2 2l11 4h2h4h4v16l18 53l19 27h4l20 20l56 39l4 -8l-11 -10l-14 -8l-45 -37l-18 -27l-11 -28l-12 -58h2v15l10 6h6l9 4l-4 18l8 15l71 82l27 10l2 -2l49 8l41 -2l21 -10v4l-8 8l-37 24v5l6 6l4 -4l14 -7l17 -16l26 -27l8 -10v-4l11 -10h6l8 -4v4l-2 18z M254 2074l19 43l-8 19l-17 22l-55 31l-49 8l-6 -2l-11 -10v-18l-38 -43l-9 -21l-88 -96v-4h4l4 2l37 8l6 -8l-22 -13l12 -2l39 17l17 6l45 -6l36 -12l15 2l20 -19h8v4l9 8l2 11l20 34zM324 2165l8 2l-2 28v-10l-8 -8l-2 -12h4zM340 2269l5 16h-5v-4l-8 -4l-10 -6l-16 4 l-2 -4l-5 4h-10l-59 -4l-27 -4l-59 -19l-35 -18l-25 -18l-90 -11l-12 -4l-2 4h-2l-6 -6h-8l-5 6h3l2 11l14 49l12 63l-4 31l4 18l-8 7l-4 16h-6l-10 18l-3 17l-8 24l2 70h-4l-10 -8l-16 -6l-23 -62l21 19l2 -2v-7l-21 -22l-4 -19l-25 -34l-51 -60h-12l-21 -18l-6 -47l2 -11 l-2 -2l6 -41l25 -47l19 -4l20 -8l16 -12v-10l25 -35l4 -29h4l25 -10l6 -8l59 -7l51 58l35 41l6 35l-2 8l7 6l61 33l43 -4l55 -15l35 -22l12 -41l13 67l4 43l8 11l6 -9v-4zM15 2343v-6l-4 -7h-2v-10l-4 -12l4 -10l34 -45l27 -17h10l17 6v4l8 9l8 6l-39 20l-31 27l-12 18z M82 2316l2 -2l-2 -4v-6l21 -8l18 -11l13 -10h4v2l-11 10v11l-22 18l-2 8l-14 2zM111 2349l2 -2h21l28 -15l19 -2l4 7l-10 6h-13l-10 6l-33 6zM41 2236l-39 43l-8 -33l-16 -38l45 16l29 6zM402 2167v4l-10 12l-7 18l-8 7l-2 10l-10 51l2 2v10l-2 4l2 2v11h-4l-16 -70l4 -31 l14 -30l12 -7zM422 2306l-12 24l8 -43l6 -69l-6 -21h-2l-10 8l-8 23l-6 49l2 43l-2 4l-4 -59l8 -49l14 -37h6l2 4l6 25l9 20zM424 2361l41 23h-26l-11 -11zM517 2500l4 54l-9 41l-6 4l6 14l5 41l-41 94l-37 43l-21 8l-33 13l-86 18l-4 -2l-6 4l-92 8l-16 -2l45 -6l12 -12 l-2 -2l-92 -2l-2 2l-160 -17l-61 -18l-17 -6l-6 -10l-25 -9l-20 -22h6l43 -10l47 -31l51 -64l15 5l12 12l29 14l41 33l30 20l7 -6l-2 -2l-29 -22l12 4l29 18l6 -6l-2 -2v-4h4l2 4l31 6l37 4l16 -4v-4l-2 -2l-27 -4l-100 -23l-66 -36v-5l35 5l11 -11l22 -63l23 -41l34 -70 l7 6l6 -6l-6 -4l-13 -10l-4 2l-16 20l-8 2l4 -14l-4 -4l-2 4l-19 33h-8l-8 -6l-8 -8l-19 -5l-20 7l-9 10l-4 6l-4 23l17 22l2 14l-43 7l-7 4l7 6l28 6l25 -4v4l-10 12l-15 35l-16 6l-64 -61l2 -4h9l2 4l8 -8v-3l22 -4l11 -8v-8l-2 -2h-4l-3 2l-30 4v-2l-8 -49l6 -37l24 -49 l70 -76h6v2l8 21l2 20l4 6l37 2l49 -12l27 -10l14 -15l-8 -8l-22 -10l-31 -37h8l4 2l58 19l49 6l10 -6l25 2l26 14l53 80l33 49v6l8 8l9 11l12 73h-6l-33 -20l-59 -21l-48 -4l-10 -6l-84 -6l-51 6l-16 27l6 4l61 -6l140 10l26 10l62 17l61 16l2 -2v-4l-12 -10l-27 -5l-6 -81 l-6 -7h-6l-11 -18v-14l-6 -11l-41 -79h4l29 32l31 49l16 21l4 -2v-8l-4 -8l-6 -19h2l10 12l31 45zM940 2732v8l-26 27v10l-12 12l-45 33l-37 18l-13 9l-20 4l-10 -4l-17 12h-10l-47 20l-53 21l-78 18l-80 10l-117 3l-14 -9l-6 -4h-33l-119 -22l-14 -11l-19 -10l-59 -35h10 l33 4l8 5h10l168 -9l31 -10l55 -26l25 -5l35 -32l47 -78l6 -21l-4 -2l-6 -51l-8 -12v-15l14 -18v-4l4 -8l-4 -8l4 -5v-10v-2v-18l6 4l23 37l18 22l27 47l71 68l62 25l39 16l69 10l62 -6zM37 2461l-22 29l-6 25h2l16 -31l16 -23l50 -10h2l2 -2l-2 -2l-35 4zM422 2496l2 -18 v-4l-6 -6l-26 -2l-31 -9v-6l16 -22v-8l-16 16h-6l-25 -29l-18 -18l-23 -10l-20 4l-6 10l6 27l-4 4l-19 -7l-12 -8l-4 4l18 13l-22 4v6l53 14l72 33l53 27l10 -2zM289 2361l-43 16l-16 17v6l18 -16l31 -11l41 4l2 3l2 -3zM179 2373h-9l-6 4l4 7h11l4 -7zM2 1239h428l-86 -61 v-1090l88 -88h-422l88 84v1087z" />
<glyph unicode="&#xf4;" horiz-adv-x="880" d="M1197 2720l10 -29l-66 24l-106 7l-56 -7l-45 -16l-39 -29l-22 -20l-12 -8l-47 -70l-29 -51l-8 -6l-11 -19l-12 -22l-67 -68v-4l22 -8l-80 -47l-2 -4v-6l17 -27l2 -33l12 -47l-21 -53l-12 -21l-37 -8l-10 -4l-16 10l-37 -6l-10 -14v-10l-41 -58l-17 -69l-20 -33v-4l18 -25 l2 -29l8 -34l52 -9l79 -14l41 -4l140 -20l8 -3l4 -14l31 -22l16 -13l12 -20l37 -41l62 -117l14 -43l27 -49l-4 -14l10 -27l-4 -2v-6l4 -2l22 2l4 -4l-4 -8h-20l-2 -2l2 -21l-2 -4l-10 25l-170 -27l-7 -6l-71 -6l-86 -7l-11 -2l-43 2h-8l-12 9l-25 8l-36 24l-11 5l-20 -5 l-129 105l-84 65l-10 9l-35 -9l-72 4l-22 9l-31 32l-10 23l-23 25l-18 4l-15 14l-2 16l-6 13l-6 4l-8 6h-8l-103 -96l-14 -6l-29 -7l-31 -14l-45 -8l-82 -25l-4 -4l-8 6l-41 -10l-2 2l4 10l6 33l15 29l16 24l37 43v7l90 67l17 10l53 78l47 92l-17 33v6v2h-8l-16 -22l-23 -56 l-43 -63l-69 -27l-6 -6l-19 -4l-26 -10l-15 -4h-2l4 41l23 78l6 16v14l-6 6l-10 13l-9 10l2 25l17 45v41v6l14 6l72 76l8 12v12l61 35l117 45l4 8l15 6l57 47l6 13l25 39l22 69v2l-47 7l-27 -9h-10l-4 2l25 47l6 13l24 24h9h2v4l-2 2l-66 -6h-10h-4l-17 33l-2 21l-8 4 l-12 47l-4 51l-8 43v6l-3 2l17 96l49 129l68 162l12 15l8 2l41 -2l70 -15l4 -6l28 -2l70 -37l49 -37l6 -4h7l4 2l63 -78l2 -12l10 -12l-2 -16l-10 -25l-8 -12v-4l2 -2l43 10l47 2l55 6l70 -2l55 2l19 -6l90 -12l82 -29l35 -21h4l2 4l-13 15l21 -4l33 -21h16l107 -67l24 -19 l4 -8v-10zM70 2601l68 8v16h-4l-2 -4l-11 4l-10 -6l-27 -2l-26 -8l-33 4l-4 6l-12 49l-13 60l-6 43l2 24l-2 11l2 22l8 55l35 101l2 12l9 16l22 62l35 69v11l8 6h8l66 -6l78 -31l63 -37l94 -82v-10l-20 -49l-17 -31h3l14 8l16 2v17l6 4l25 47l-12 24l-23 33l-33 29l-30 24 l-68 48l-49 10l-51 10l-60 8l-16 4l-8 -8l-25 -65l-28 -66l-35 -110l-29 -95l-2 -18l-4 -72l16 -63l13 -31l2 -18l6 -9l-2 -8l4 -18h12l27 4zM138 2832l-23 4l-4 -4l-2 -22l2 -4l23 10l4 6v10zM119 2861h6v4h-6v-4zM127 2889l33 33l21 13l-29 14l-14 -16l-11 2l-18 -13 l-8 -14l-6 -25h6l4 15l22 20l5 -6l-5 -8l-6 -21h6v4v2zM82 2799l-4 7v6l6 8l7 18l-7 2h-12l-14 -41l4 -4l18 -16l4 4v12zM109 2638l18 41l-8 6l-24 14l-31 -70h14zM134 2666l-7 -14l-6 -14l17 2v8l6 12l-2 8l-8 2v-4zM68 2662l14 45l-2 2l-24 6l-4 -14l-8 -12l-9 -29l-8 -12 v-12l4 -9h10l5 2zM27 2769l-16 -33h2l28 22l-8 11h-6zM9 2750l6 27l-12 6zM44 2720l-31 2l8 -45l4 -11zM37 2779l27 -10v8l-18 18l4 23h-6l-9 10l-26 10l-4 -8l-2 -29l6 -6h12zM31 2877l-10 -16v-10l23 -13l8 27l-11 12l5 4l4 43l18 21l2 16l10 19l21 -4l4 14l6 18l-27 11 l-10 -27l-6 -29l-16 -22l-11 -27zM23 2898l35 86l22 41l-12 6l-33 -88zM72 2908l19 6l2 16l-21 3l-2 -3l-2 -18l2 -4h2zM80 2898h-10l-6 -21l4 -4h4l8 6v19zM82 2945l27 -4l2 2v6l-10 10h-8l-11 -4v-10zM58 2840l-2 -4l2 2v2zM78 2853l19 10v6h-4l-9 -6h-10v-10h4zM203 2992 v10l-2 -6l-10 12l-2 4l-27 2l-10 -6l-25 -59h11v2l24 39l27 4l4 -4h8zM207 2955l-4 -14l8 -17h5l4 6l2 -6h12l4 6v13zM197 2963l-16 13h-8l-3 -17l21 -10l2 2zM127 2990l5 6l-5 6h-6l-2 -12l-6 -8h6zM154 2898l-6 -49l2 -3l23 -24l43 8l18 6l20 2l19 8l8 7l12 8v4h-2l-37 14 l-22 19l-27 14l-20 6l-12 -4zM244 2918l4 -4l31 -10l2 4l4 12h-2l-2 2l-8 8l-21 5zM291 2902l2 -4l33 -11v2l-18 19h-15zM295 2930l31 -16l23 -12h6l10 16v15l-16 16l-45 22l-23 15l-47 22l-31 15l-55 26l-4 -4l-6 4l-54 29l-2 -4l-8 -29h10l17 -12l41 -19l8 9l20 4l21 -4 l14 -15l2 4l6 -6l3 -12l-5 -4v-8h2l13 -11l45 -20zM289 3033l17 45h-6l-5 4l-20 8v-6l-33 -65l6 -5l25 -8zM314 3059l-19 -28l-12 -29l31 -16l24 45l5 18l-5 6l-16 11h-8v-7zM263 3086v10h-2l-13 9l-10 4l-6 -9l-21 -47l-8 -14l4 -8h6l21 -4l10 28zM193 3045l33 72l-37 16 l-35 -74l39 -16v2zM148 3074l27 59l-11 10h-14l-12 -6v-4l-6 -14l-5 -19l-12 -14v-8h4l25 -8zM105 3084l22 59l-12 2l-22 -55zM359 2967l22 35l2 10l-24 27h-10l-4 -20l-19 -27l-2 -16h2l6 -5l23 -12l4 2v6zM373 2967l-8 -18l10 -4v4l19 31l2 16h-6zM50 2517l77 10l21 10v6 l-4 -2h-6l-4 6l30 41l33 25v6h-4l-10 -12l-56 -19l-47 -22l-16 -23zM154 2617l25 4l6 8l-2 9h-4l-4 2l-5 10h-10zM-10 2128v-43l10 -15l33 -16l41 2l17 18v11l-13 12l-16 31h-12l-25 -2l-4 -9l-6 -28l12 -2l23 -4v6l-13 12l-2 -4l-4 -10h-4l-2 2l-2 8l12 16h6l27 -28 l-12 -19l-4 4h-39l-10 15l8 45l4 6l20 2l-2 4h-30zM127 1964l-43 -21l-6 -10l-4 -18l8 -11l11 -8l28 4l6 6v3l78 63l-53 10l-4 -4zM105 1990l4 -4l2 4h-6zM72 1966l-8 -6h6l8 6h-6zM56 1964l8 8l16 12l2 -2h2v4l-34 9l-17 -5h2l17 -12zM-151 2246v-4l53 -24l33 -23v-10 l6 -25l-2 -2v-2l10 -20l-10 -117l23 -29l22 -30l6 16l23 31h10l2 -2l31 8l16 -8v2l-4 12l-4 4l-29 4l-2 -2l-28 10l-21 21l-12 57l-10 17v14l-13 23v10l-8 88l16 22h-4l-32 -12l-43 -14zM-8 1925h-2v-6h2v6zM-233 1882l16 4l-2 4l-8 2l-53 33l-19 -76h3l34 14zM-176 1909 l31 55h-4l-16 -15l-17 -6l-4 -6l-18 -10v-10l-15 -4l-26 10l53 -31l4 4zM-251 1943l8 -6l-2 6h-6zM-75 2085l6 45l-12 35l-29 26l-25 10l-37 11l-26 -15l-45 -49l-6 -18l-13 -27l-8 -33l-6 -16v-47l33 -17l16 -4l35 -14l59 61l21 11zM-292 1614l6 10l-4 6l-13 39l-12 -16 l-12 -21l4 -8l-6 -6l-2 -15h8l4 6h10l6 5h11zM-176 1665v6l-22 16l-4 15l-6 30l4 23h-8l-9 -2l-22 -19l-15 5l-38 -41v-9l10 -24l10 -29l12 -12v2l-18 45l2 2l-2 16l6 13l6 -6l10 -43l9 -13l39 6l8 7h4l10 -3l8 15h6zM-6 1763v4l-8 8l-8 11l2 4v12l-6 6l-4 47l2 8l6 29l-4 4 l-4 8l2 31l-4 8l-17 11h-12l-84 -140l-18 -18l-19 -17l-8 -14l-2 -51l29 -37l71 12zM3 1964l-9 -29l2 -2h4l9 4l-6 17l18 24l4 -6v-6l-10 -6l-2 -11h8h2l12 11l6 16h-4l-2 2l-22 4zM50 1919l-9 16h-6l-22 -10v-6l-2 -2l-11 -4l-4 -21h7l8 8zM15 1816l53 70l-6 14h-6l-19 -6 l-28 -16l-6 -15l-7 -77l7 -7h2l18 -14v10l-2 4zM97 1859l4 17l-21 2l-8 -15l-35 -41l7 -36l14 -41l6 -29l14 86zM115 1724l12 8h-8l-6 4zM115 1765l12 10l-8 4v5l-6 -21v-18zM168 1636h33l-12 4l-14 13h-5l-10 -7v-6h2zM222 1632l4 4h-10v-4h6zM226 1650v9l-19 12l-10 2 l-8 -4v-6l12 -13h25zM216 1687h4v2h-4v-2zM254 1843l31 29l23 4l18 18l33 6l27 -6v6l-25 9l-41 4l-47 -13l-21 -14l-4 -10l-37 -45l-18 -19v-10v-8l4 -62l-4 62l8 8h2l19 4v2zM273 1802l20 -12l-10 12h-10zM375 1722v2h-2zM404 1544v22l-8 25l-4 82l2 -74l-2 -45l8 -10h4z M445 1515l8 -4l-4 21l-8 59zM500 1480v11l-6 24l-14 154l-6 10h-2l4 -16l-2 -2l16 -150l4 -31h6zM500 1650v13v-13zM979 1452v4h-8l-73 -16zM961 1462l10 6l-10 4l-18 8l-7 5l-51 16l-69 35l-23 18l-43 17l-31 6l-10 6v8l-74 27l4 -6l-4 -7l-2 4l-20 5v-5l2 -26l-2 -6h-4 l-2 2l-11 45l-18 6v-4l16 -74l-6 -8h-2l-12 18l-16 78l-7 6h-8v-10l8 -6l5 -53l6 -31v-61l-4 -5l-7 5l-8 47l-10 45l-10 84h-6l8 -99l8 -106l33 -16l59 -15l57 4l195 23l39 8zM848 1536l25 -15l33 -12l-33 21zM525 1839l-139 10l-31 10h-31l-61 -37v-6h4l39 -20l6 -10 l108 -41l17 -13l80 -43l49 -18l153 -70l54 -24l82 -33l81 -41l25 -14h4v2l-39 90l-49 88l-90 104l-47 29h-31l-27 6l-94 19l-26 -2zM441 1913l-37 36l-29 27l-14 6l-6 -6h-10l-15 -6l-24 -6l-58 -10l-10 -9l-35 -12l-39 -41l-32 -67l-13 -41l2 2l11 4h2h4h4v16l18 53l19 27 h4l20 20l56 39l4 -8l-11 -10l-14 -8l-45 -37l-18 -27l-11 -28l-12 -58h2v15l10 6h6l9 4l-4 18l8 15l71 82l27 10l2 -2l49 8l41 -2l21 -10v4l-8 8l-37 24v5l6 6l4 -4l14 -7l17 -16l26 -27l8 -10v-4l11 -10h6l8 -4v4l-2 18zM465 2074l19 43l-8 19l-17 22l-55 31l-49 8l-6 -2 l-11 -10v-18l-38 -43l-9 -21l-88 -96v-4h4l4 2l37 8l6 -8l-22 -13l12 -2l39 17l17 6l45 -6l36 -12l15 2l20 -19h8v4l9 8l2 11l20 34zM535 2165l8 2l-2 28v-10l-8 -8l-2 -12h4zM551 2269l5 16h-5v-4l-8 -4l-10 -6l-16 4l-2 -4l-5 4h-10l-59 -4l-27 -4l-59 -19l-35 -18 l-25 -18l-90 -11l-12 -4l-2 4h-2l-6 -6h-8l-5 6h3l2 11l14 49l12 63l-4 31l4 18l-8 7l-4 16h-6l-10 18l-3 17l-8 24l2 70h-4l-10 -8l-16 -6l-23 -62l21 19l2 -2v-7l-21 -22l-4 -19l-25 -34l-51 -60h-12l-21 -18l-6 -47l2 -11l-2 -2l6 -41l25 -47l19 -4l20 -8l16 -12v-10 l25 -35l4 -29h4l25 -10l6 -8l59 -7l51 58l35 41l6 35l-2 8l7 6l61 33l43 -4l55 -15l35 -22l12 -41l13 67l4 43l8 11l6 -9v-4zM226 2343v-6l-4 -7h-2v-10l-4 -12l4 -10l34 -45l27 -17h10l17 6v4l8 9l8 6l-39 20l-31 27l-12 18zM293 2316l2 -2l-2 -4v-6l21 -8l18 -11l13 -10h4 v2l-11 10v11l-22 18l-2 8l-14 2zM322 2349l2 -2h21l28 -15l19 -2l4 7l-10 6h-13l-10 6l-33 6zM252 2236l-39 43l-8 -33l-16 -38l45 16l29 6zM613 2167v4l-10 12l-7 18l-8 7l-2 10l-10 51l2 2v10l-2 4l2 2v11h-4l-16 -70l4 -31l14 -30l12 -7zM633 2306l-12 24l8 -43l6 -69 l-6 -21h-2l-10 8l-8 23l-6 49l2 43l-2 4l-4 -59l8 -49l14 -37h6l2 4l6 25l9 20zM635 2361l41 23h-26l-11 -11zM728 2500l4 54l-9 41l-6 4l6 14l5 41l-41 94l-37 43l-21 8l-33 13l-86 18l-4 -2l-6 4l-92 8l-16 -2l45 -6l12 -12l-2 -2l-92 -2l-2 2l-160 -17l-61 -18l-17 -6 l-6 -10l-25 -9l-20 -22h6l43 -10l47 -31l51 -64l15 5l12 12l29 14l41 33l30 20l7 -6l-2 -2l-29 -22l12 4l29 18l6 -6l-2 -2v-4h4l2 4l31 6l37 4l16 -4v-4l-2 -2l-27 -4l-100 -23l-66 -36v-5l35 5l11 -11l22 -63l23 -41l34 -70l7 6l6 -6l-6 -4l-13 -10l-4 2l-16 20l-8 2 l4 -14l-4 -4l-2 4l-19 33h-8l-8 -6l-8 -8l-19 -5l-20 7l-9 10l-4 6l-4 23l17 22l2 14l-43 7l-7 4l7 6l28 6l25 -4v4l-10 12l-15 35l-16 6l-64 -61l2 -4h9l2 4l8 -8v-3l22 -4l11 -8v-8l-2 -2h-4l-3 2l-30 4v-2l-8 -49l6 -37l24 -49l70 -76h6v2l8 21l2 20l4 6l37 2l49 -12 l27 -10l14 -15l-8 -8l-22 -10l-31 -37h8l4 2l58 19l49 6l10 -6l25 2l26 14l53 80l33 49v6l8 8l9 11l12 73h-6l-33 -20l-59 -21l-48 -4l-10 -6l-84 -6l-51 6l-16 27l6 4l61 -6l140 10l26 10l62 17l61 16l2 -2v-4l-12 -10l-27 -5l-6 -81l-6 -7h-6l-11 -18v-14l-6 -11l-41 -79 h4l29 32l31 49l16 21l4 -2v-8l-4 -8l-6 -19h2l10 12l31 45zM1151 2732v8l-26 27v10l-12 12l-45 33l-37 18l-13 9l-20 4l-10 -4l-17 12h-10l-47 20l-53 21l-78 18l-80 10l-117 3l-14 -9l-6 -4h-33l-119 -22l-14 -11l-19 -10l-59 -35h10l33 4l8 5h10l168 -9l31 -10l55 -26 l25 -5l35 -32l47 -78l6 -21l-4 -2l-6 -51l-8 -12v-15l14 -18v-4l4 -8l-4 -8l4 -5v-10v-2v-18l6 4l23 37l18 22l27 47l71 68l62 25l39 16l69 10l62 -6zM248 2461l-22 29l-6 25h2l16 -31l16 -23l50 -10h2l2 -2l-2 -2l-35 4zM633 2496l2 -18v-4l-6 -6l-26 -2l-31 -9v-6l16 -22 v-8l-16 16h-6l-25 -29l-18 -18l-23 -10l-20 4l-6 10l6 27l-4 4l-19 -7l-12 -8l-4 4l18 13l-22 4v6l53 14l72 33l53 27l10 -2zM500 2361l-43 16l-16 17v6l18 -16l31 -11l41 4l2 3l2 -3zM390 2373h-9l-6 4l4 7h11l4 -7zM770 1020q41 -80 61.5 -183.5t20.5 -215.5 q0 -66 -8 -132.5t-23.5 -129t-38 -118t-49.5 -98.5q-57 -92 -137 -129t-170 -37t-176 47.5t-146 137.5q-59 86 -81.5 205.5t-22.5 253.5q0 119 19.5 224t66.5 191q59 109 148.5 171.5t191.5 62.5q104 0 194.5 -66.5t149.5 -183.5zM424 68q45 0 83 43t65.5 116.5t44 175 t16.5 218.5q0 119 -16.5 220t-45 177t-66.5 119t-83 43q-43 0 -83 -43t-68.5 -119t-46 -177.5t-17.5 -219.5q0 -117 17.5 -218.5t47 -175t69.5 -116.5t83 -43z" />
<glyph unicode="&#xfb;" horiz-adv-x="821" d="M1170 2720l10 -29l-66 24l-106 7l-56 -7l-45 -16l-39 -29l-22 -20l-12 -8l-47 -70l-29 -51l-8 -6l-11 -19l-12 -22l-67 -68v-4l22 -8l-80 -47l-2 -4v-6l17 -27l2 -33l12 -47l-21 -53l-12 -21l-37 -8l-10 -4l-16 10l-37 -6l-10 -14v-10l-41 -58l-17 -69l-20 -33v-4l18 -25 l2 -29l8 -34l52 -9l79 -14l41 -4l140 -20l8 -3l4 -14l31 -22l16 -13l12 -20l37 -41l62 -117l14 -43l27 -49l-4 -14l10 -27l-4 -2v-6l4 -2l22 2l4 -4l-4 -8h-20l-2 -2l2 -21l-2 -4l-10 25l-170 -27l-7 -6l-71 -6l-86 -7l-11 -2l-43 2h-8l-12 9l-25 8l-36 24l-11 5l-20 -5 l-129 105l-84 65l-10 9l-35 -9l-72 4l-22 9l-31 32l-10 23l-23 25l-18 4l-15 14l-2 16l-6 13l-6 4l-8 6h-8l-103 -96l-14 -6l-29 -7l-31 -14l-45 -8l-82 -25l-4 -4l-8 6l-41 -10l-2 2l4 10l6 33l15 29l16 24l37 43v7l90 67l17 10l53 78l47 92l-17 33v6v2h-8l-16 -22l-23 -56 l-43 -63l-69 -27l-6 -6l-19 -4l-26 -10l-15 -4h-2l4 41l23 78l6 16v14l-6 6l-10 13l-9 10l2 25l17 45v41v6l14 6l72 76l8 12v12l61 35l117 45l4 8l15 6l57 47l6 13l25 39l22 69v2l-47 7l-27 -9h-10l-4 2l25 47l6 13l24 24h9h2v4l-2 2l-66 -6h-10h-4l-17 33l-2 21l-8 4 l-12 47l-4 51l-8 43v6l-3 2l17 96l49 129l68 162l12 15l8 2l41 -2l70 -15l4 -6l28 -2l70 -37l49 -37l6 -4h7l4 2l63 -78l2 -12l10 -12l-2 -16l-10 -25l-8 -12v-4l2 -2l43 10l47 2l55 6l70 -2l55 2l19 -6l90 -12l82 -29l35 -21h4l2 4l-13 15l21 -4l33 -21h16l107 -67l24 -19 l4 -8v-10zM43 2601l68 8v16h-4l-2 -4l-11 4l-10 -6l-27 -2l-26 -8l-33 4l-4 6l-12 49l-13 60l-6 43l2 24l-2 11l2 22l8 55l35 101l2 12l9 16l22 62l35 69v11l8 6h8l66 -6l78 -31l63 -37l94 -82v-10l-20 -49l-17 -31h3l14 8l16 2v17l6 4l25 47l-12 24l-23 33l-33 29l-30 24 l-68 48l-49 10l-51 10l-60 8l-16 4l-8 -8l-25 -65l-28 -66l-35 -110l-29 -95l-2 -18l-4 -72l16 -63l13 -31l2 -18l6 -9l-2 -8l4 -18h12l27 4zM111 2832l-23 4l-4 -4l-2 -22l2 -4l23 10l4 6v10zM92 2861h6v4h-6v-4zM100 2889l33 33l21 13l-29 14l-14 -16l-11 2l-18 -13 l-8 -14l-6 -25h6l4 15l22 20l5 -6l-5 -8l-6 -21h6v4v2zM55 2799l-4 7v6l6 8l7 18l-7 2h-12l-14 -41l4 -4l18 -16l4 4v12zM82 2638l18 41l-8 6l-24 14l-31 -70h14zM107 2666l-7 -14l-6 -14l17 2v8l6 12l-2 8l-8 2v-4zM41 2662l14 45l-2 2l-24 6l-4 -14l-8 -12l-9 -29l-8 -12 v-12l4 -9h10l5 2zM0 2769l-16 -33h2l28 22l-8 11h-6zM-18 2750l6 27l-12 6zM17 2720l-31 2l8 -45l4 -11zM10 2779l27 -10v8l-18 18l4 23h-6l-9 10l-26 10l-4 -8l-2 -29l6 -6h12zM4 2877l-10 -16v-10l23 -13l8 27l-11 12l5 4l4 43l18 21l2 16l10 19l21 -4l4 14l6 18l-27 11 l-10 -27l-6 -29l-16 -22l-11 -27zM-4 2898l35 86l22 41l-12 6l-33 -88zM45 2908l19 6l2 16l-21 3l-2 -3l-2 -18l2 -4h2zM53 2898h-10l-6 -21l4 -4h4l8 6v19zM55 2945l27 -4l2 2v6l-10 10h-8l-11 -4v-10zM31 2840l-2 -4l2 2v2zM51 2853l19 10v6h-4l-9 -6h-10v-10h4zM176 2992 v10l-2 -6l-10 12l-2 4l-27 2l-10 -6l-25 -59h11v2l24 39l27 4l4 -4h8zM180 2955l-4 -14l8 -17h5l4 6l2 -6h12l4 6v13zM170 2963l-16 13h-8l-3 -17l21 -10l2 2zM100 2990l5 6l-5 6h-6l-2 -12l-6 -8h6zM127 2898l-6 -49l2 -3l23 -24l43 8l18 6l20 2l19 8l8 7l12 8v4h-2l-37 14 l-22 19l-27 14l-20 6l-12 -4zM217 2918l4 -4l31 -10l2 4l4 12h-2l-2 2l-8 8l-21 5zM264 2902l2 -4l33 -11v2l-18 19h-15zM268 2930l31 -16l23 -12h6l10 16v15l-16 16l-45 22l-23 15l-47 22l-31 15l-55 26l-4 -4l-6 4l-54 29l-2 -4l-8 -29h10l17 -12l41 -19l8 9l20 4l21 -4 l14 -15l2 4l6 -6l3 -12l-5 -4v-8h2l13 -11l45 -20zM262 3033l17 45h-6l-5 4l-20 8v-6l-33 -65l6 -5l25 -8zM287 3059l-19 -28l-12 -29l31 -16l24 45l5 18l-5 6l-16 11h-8v-7zM236 3086v10h-2l-13 9l-10 4l-6 -9l-21 -47l-8 -14l4 -8h6l21 -4l10 28zM166 3045l33 72l-37 16 l-35 -74l39 -16v2zM121 3074l27 59l-11 10h-14l-12 -6v-4l-6 -14l-5 -19l-12 -14v-8h4l25 -8zM78 3084l22 59l-12 2l-22 -55zM332 2967l22 35l2 10l-24 27h-10l-4 -20l-19 -27l-2 -16h2l6 -5l23 -12l4 2v6zM346 2967l-8 -18l10 -4v4l19 31l2 16h-6zM23 2517l77 10l21 10v6 l-4 -2h-6l-4 6l30 41l33 25v6h-4l-10 -12l-56 -19l-47 -22l-16 -23zM127 2617l25 4l6 8l-2 9h-4l-4 2l-5 10h-10zM-37 2128v-43l10 -15l33 -16l41 2l17 18v11l-13 12l-16 31h-12l-25 -2l-4 -9l-6 -28l12 -2l23 -4v6l-13 12l-2 -4l-4 -10h-4l-2 2l-2 8l12 16h6l27 -28 l-12 -19l-4 4h-39l-10 15l8 45l4 6l20 2l-2 4h-30zM100 1964l-43 -21l-6 -10l-4 -18l8 -11l11 -8l28 4l6 6v3l78 63l-53 10l-4 -4zM78 1990l4 -4l2 4h-6zM45 1966l-8 -6h6l8 6h-6zM29 1964l8 8l16 12l2 -2h2v4l-34 9l-17 -5h2l17 -12zM-178 2246v-4l53 -24l33 -23v-10l6 -25 l-2 -2v-2l10 -20l-10 -117l23 -29l22 -30l6 16l23 31h10l2 -2l31 8l16 -8v2l-4 12l-4 4l-29 4l-2 -2l-28 10l-21 21l-12 57l-10 17v14l-13 23v10l-8 88l16 22h-4l-32 -12l-43 -14zM-35 1925h-2v-6h2v6zM-260 1882l16 4l-2 4l-8 2l-53 33l-19 -76h3l34 14zM-203 1909l31 55 h-4l-16 -15l-17 -6l-4 -6l-18 -10v-10l-15 -4l-26 10l53 -31l4 4zM-278 1943l8 -6l-2 6h-6zM-102 2085l6 45l-12 35l-29 26l-25 10l-37 11l-26 -15l-45 -49l-6 -18l-13 -27l-8 -33l-6 -16v-47l33 -17l16 -4l35 -14l59 61l21 11zM-319 1614l6 10l-4 6l-13 39l-12 -16l-12 -21 l4 -8l-6 -6l-2 -15h8l4 6h10l6 5h11zM-203 1665v6l-22 16l-4 15l-6 30l4 23h-8l-9 -2l-22 -19l-15 5l-38 -41v-9l10 -24l10 -29l12 -12v2l-18 45l2 2l-2 16l6 13l6 -6l10 -43l9 -13l39 6l8 7h4l10 -3l8 15h6zM-33 1763v4l-8 8l-8 11l2 4v12l-6 6l-4 47l2 8l6 29l-4 4l-4 8 l2 31l-4 8l-17 11h-12l-84 -140l-18 -18l-19 -17l-8 -14l-2 -51l29 -37l71 12zM-24 1964l-9 -29l2 -2h4l9 4l-6 17l18 24l4 -6v-6l-10 -6l-2 -11h8h2l12 11l6 16h-4l-2 2l-22 4zM23 1919l-9 16h-6l-22 -10v-6l-2 -2l-11 -4l-4 -21h7l8 8zM-12 1816l53 70l-6 14h-6l-19 -6 l-28 -16l-6 -15l-7 -77l7 -7h2l18 -14v10l-2 4zM70 1859l4 17l-21 2l-8 -15l-35 -41l7 -36l14 -41l6 -29l14 86zM88 1724l12 8h-8l-6 4zM88 1765l12 10l-8 4v5l-6 -21v-18zM141 1636h33l-12 4l-14 13h-5l-10 -7v-6h2zM195 1632l4 4h-10v-4h6zM199 1650v9l-19 12l-10 2l-8 -4 v-6l12 -13h25zM189 1687h4v2h-4v-2zM227 1843l31 29l23 4l18 18l33 6l27 -6v6l-25 9l-41 4l-47 -13l-21 -14l-4 -10l-37 -45l-18 -19v-10v-8l4 -62l-4 62l8 8h2l19 4v2zM246 1802l20 -12l-10 12h-10zM348 1722v2h-2zM377 1544v22l-8 25l-4 82l2 -74l-2 -45l8 -10h4z M418 1515l8 -4l-4 21l-8 59zM473 1480v11l-6 24l-14 154l-6 10h-2l4 -16l-2 -2l16 -150l4 -31h6zM473 1650v13v-13zM952 1452v4h-8l-73 -16zM934 1462l10 6l-10 4l-18 8l-7 5l-51 16l-69 35l-23 18l-43 17l-31 6l-10 6v8l-74 27l4 -6l-4 -7l-2 4l-20 5v-5l2 -26l-2 -6h-4 l-2 2l-11 45l-18 6v-4l16 -74l-6 -8h-2l-12 18l-16 78l-7 6h-8v-10l8 -6l5 -53l6 -31v-61l-4 -5l-7 5l-8 47l-10 45l-10 84h-6l8 -99l8 -106l33 -16l59 -15l57 4l195 23l39 8zM821 1536l25 -15l33 -12l-33 21zM498 1839l-139 10l-31 10h-31l-61 -37v-6h4l39 -20l6 -10 l108 -41l17 -13l80 -43l49 -18l153 -70l54 -24l82 -33l81 -41l25 -14h4v2l-39 90l-49 88l-90 104l-47 29h-31l-27 6l-94 19l-26 -2zM414 1913l-37 36l-29 27l-14 6l-6 -6h-10l-15 -6l-24 -6l-58 -10l-10 -9l-35 -12l-39 -41l-32 -67l-13 -41l2 2l11 4h2h4h4v16l18 53l19 27 h4l20 20l56 39l4 -8l-11 -10l-14 -8l-45 -37l-18 -27l-11 -28l-12 -58h2v15l10 6h6l9 4l-4 18l8 15l71 82l27 10l2 -2l49 8l41 -2l21 -10v4l-8 8l-37 24v5l6 6l4 -4l14 -7l17 -16l26 -27l8 -10v-4l11 -10h6l8 -4v4l-2 18zM438 2074l19 43l-8 19l-17 22l-55 31l-49 8l-6 -2 l-11 -10v-18l-38 -43l-9 -21l-88 -96v-4h4l4 2l37 8l6 -8l-22 -13l12 -2l39 17l17 6l45 -6l36 -12l15 2l20 -19h8v4l9 8l2 11l20 34zM508 2165l8 2l-2 28v-10l-8 -8l-2 -12h4zM524 2269l5 16h-5v-4l-8 -4l-10 -6l-16 4l-2 -4l-5 4h-10l-59 -4l-27 -4l-59 -19l-35 -18 l-25 -18l-90 -11l-12 -4l-2 4h-2l-6 -6h-8l-5 6h3l2 11l14 49l12 63l-4 31l4 18l-8 7l-4 16h-6l-10 18l-3 17l-8 24l2 70h-4l-10 -8l-16 -6l-23 -62l21 19l2 -2v-7l-21 -22l-4 -19l-25 -34l-51 -60h-12l-21 -18l-6 -47l2 -11l-2 -2l6 -41l25 -47l19 -4l20 -8l16 -12v-10 l25 -35l4 -29h4l25 -10l6 -8l59 -7l51 58l35 41l6 35l-2 8l7 6l61 33l43 -4l55 -15l35 -22l12 -41l13 67l4 43l8 11l6 -9v-4zM199 2343v-6l-4 -7h-2v-10l-4 -12l4 -10l34 -45l27 -17h10l17 6v4l8 9l8 6l-39 20l-31 27l-12 18zM266 2316l2 -2l-2 -4v-6l21 -8l18 -11l13 -10h4 v2l-11 10v11l-22 18l-2 8l-14 2zM295 2349l2 -2h21l28 -15l19 -2l4 7l-10 6h-13l-10 6l-33 6zM225 2236l-39 43l-8 -33l-16 -38l45 16l29 6zM586 2167v4l-10 12l-7 18l-8 7l-2 10l-10 51l2 2v10l-2 4l2 2v11h-4l-16 -70l4 -31l14 -30l12 -7zM606 2306l-12 24l8 -43l6 -69 l-6 -21h-2l-10 8l-8 23l-6 49l2 43l-2 4l-4 -59l8 -49l14 -37h6l2 4l6 25l9 20zM608 2361l41 23h-26l-11 -11zM701 2500l4 54l-9 41l-6 4l6 14l5 41l-41 94l-37 43l-21 8l-33 13l-86 18l-4 -2l-6 4l-92 8l-16 -2l45 -6l12 -12l-2 -2l-92 -2l-2 2l-160 -17l-61 -18l-17 -6 l-6 -10l-25 -9l-20 -22h6l43 -10l47 -31l51 -64l15 5l12 12l29 14l41 33l30 20l7 -6l-2 -2l-29 -22l12 4l29 18l6 -6l-2 -2v-4h4l2 4l31 6l37 4l16 -4v-4l-2 -2l-27 -4l-100 -23l-66 -36v-5l35 5l11 -11l22 -63l23 -41l34 -70l7 6l6 -6l-6 -4l-13 -10l-4 2l-16 20l-8 2 l4 -14l-4 -4l-2 4l-19 33h-8l-8 -6l-8 -8l-19 -5l-20 7l-9 10l-4 6l-4 23l17 22l2 14l-43 7l-7 4l7 6l28 6l25 -4v4l-10 12l-15 35l-16 6l-64 -61l2 -4h9l2 4l8 -8v-3l22 -4l11 -8v-8l-2 -2h-4l-3 2l-30 4v-2l-8 -49l6 -37l24 -49l70 -76h6v2l8 21l2 20l4 6l37 2l49 -12 l27 -10l14 -15l-8 -8l-22 -10l-31 -37h8l4 2l58 19l49 6l10 -6l25 2l26 14l53 80l33 49v6l8 8l9 11l12 73h-6l-33 -20l-59 -21l-48 -4l-10 -6l-84 -6l-51 6l-16 27l6 4l61 -6l140 10l26 10l62 17l61 16l2 -2v-4l-12 -10l-27 -5l-6 -81l-6 -7h-6l-11 -18v-14l-6 -11l-41 -79 h4l29 32l31 49l16 21l4 -2v-8l-4 -8l-6 -19h2l10 12l31 45zM1124 2732v8l-26 27v10l-12 12l-45 33l-37 18l-13 9l-20 4l-10 -4l-17 12h-10l-47 20l-53 21l-78 18l-80 10l-117 3l-14 -9l-6 -4h-33l-119 -22l-14 -11l-19 -10l-59 -35h10l33 4l8 5h10l168 -9l31 -10l55 -26 l25 -5l35 -32l47 -78l6 -21l-4 -2l-6 -51l-8 -12v-15l14 -18v-4l4 -8l-4 -8l4 -5v-10v-2v-18l6 4l23 37l18 22l27 47l71 68l62 25l39 16l69 10l62 -6zM221 2461l-22 29l-6 25h2l16 -31l16 -23l50 -10h2l2 -2l-2 -2l-35 4zM606 2496l2 -18v-4l-6 -6l-26 -2l-31 -9v-6l16 -22 v-8l-16 16h-6l-25 -29l-18 -18l-23 -10l-20 4l-6 10l6 27l-4 4l-19 -7l-12 -8l-4 4l18 13l-22 4v6l53 14l72 33l53 27l10 -2zM473 2361l-43 16l-16 17v6l18 -16l31 -11l41 4l2 3l2 -3zM363 2373h-9l-6 4l4 7h11l4 -7zM406 1239l-82 -78v-831q0 -61 10 -109 q10 -41 32.5 -73.5t69.5 -32.5q55 0 83 34.5t38 77.5q12 51 12 115v817l-75 80h303l-82 -78v-809v-12q0 -91 -29 -164q-12 -33 -34.5 -64.5t-56.5 -56t-80 -40t-109 -15.5t-110.5 15.5t-81.5 40t-56.5 56t-34.5 66.5q-29 71 -29 158v22v799l-94 82h406z" />
<glyph unicode="&#x152;" horiz-adv-x="2879" d="M1554 1434h1169l113 -420l-291 305h-538v-717h362l141 275v-658l-137 268h-366v-692h553l278 279l-115 -412h-1165l205 139v1487zM1826 305l54 -485l63 485l-57 96zM1822 805l62 -98l59 98l-61 473zM1884 637l-60 -78l60 -80l55 80zM1311 1106q66 -111 102.5 -255 t36.5 -304q0 -90 -14.5 -183.5t-41 -180.5t-64.5 -164.5t-83 -137.5q-98 -129 -234 -181t-288 -52q-154 0 -299 66.5t-250 191.5q-98 121 -137 287.5t-39 353.5q0 166 33 315.5t114 265.5q49 76 113 136.5t138.5 103.5t157.5 65.5t169 22.5q178 0 331 -93t255 -257z M723 -242q117 2 203 64.5t143 169t86 249t29 306.5q0 166 -31 311.5t-91.5 255t-147.5 171.5q-84 60 -190 61h-7q-104 -2 -189.5 -65.5t-144.5 -171.5t-92 -252t-33 -310q0 -164 32 -307.5t91 -251t146 -169.5q84 -60 189 -61h7zM416 1268q-72 -43 -127.5 -98.5 t-87.5 -100.5q-12 -18 -28.5 -46t-32 -60.5t-28 -64.5t-14.5 -58l54 -99l63 99q8 68 19.5 118t23.5 84q8 25 25.5 55.5t40 61.5t46 60t46.5 49zM68 571l55 -79l59 79l-59 78zM403 -190q-43 41 -91 114.5t-72 145.5q-25 72 -30 120t-5 101l-64 98l-53 -98q6 -53 34 -124 t66 -130q41 -63 92 -123.5t123 -103.5zM1026 1268q20 -20 45 -49t47.5 -60t40 -61.5t25.5 -55.5q12 -35 23.5 -85t19.5 -117l63 -99l53 99q-4 27 -15 58.5t-26.5 64t-32 60.5t-28.5 46q-33 45 -88 100.5t-127 98.5zM1319 649l-59 -78l59 -79l55 79zM1038 -190q72 43 123 103 t92 124q39 59 67 130t34 124l-54 98l-63 -98q0 -53 -5 -101.5t-30 -119.5q-25 -72 -73 -145.5t-91 -114.5z" />
<glyph unicode="&#x153;" horiz-adv-x="1648" d="M883 1239h719v-438l-150 370h-243v-495h145l98 147v-370l-94 137h-149v-496h252l141 463v-557h-719l90 78v1081zM770 1020q41 -80 61.5 -183.5t20.5 -215.5q0 -66 -8 -132.5t-23.5 -129t-38 -118t-49.5 -98.5q-57 -92 -137 -129t-170 -37t-176 47.5t-146 137.5 q-59 86 -81.5 205.5t-22.5 253.5q0 119 19.5 224t66.5 191q59 109 148.5 171.5t191.5 62.5q104 0 194.5 -66.5t149.5 -183.5zM424 68q45 0 83 43t65.5 116.5t44 175t16.5 218.5q0 119 -16.5 220t-45 177t-66.5 119t-83 43q-43 0 -83 -43t-68.5 -119t-46 -177.5t-17.5 -219.5 q0 -117 17.5 -218.5t47 -175t69.5 -116.5t83 -43z" />
<glyph unicode="&#x2c6;" horiz-adv-x="1615" d="M1559 961l10 -29l-66 24l-106 7l-56 -7l-45 -16l-39 -29l-22 -20l-12 -8l-47 -70l-29 -51l-8 -6l-11 -19l-12 -22l-67 -68v-4l22 -8l-80 -47l-2 -4v-6l17 -27l2 -33l12 -47l-21 -53l-12 -21l-37 -8l-10 -4l-16 10l-37 -6l-10 -14v-10l-41 -58l-17 -69l-20 -33v-4l18 -25 l2 -29l8 -34l52 -9l79 -14l41 -4l140 -20l8 -3l4 -14l31 -22l16 -13l12 -20l37 -41l62 -117l14 -43l27 -49l-4 -14l10 -27l-4 -2v-6l4 -2l22 2l4 -4l-4 -8h-20l-2 -2l2 -21l-2 -4l-10 25l-170 -27l-7 -6l-71 -6l-86 -7l-11 -2l-43 2h-8l-12 9l-25 8l-36 24l-11 5l-20 -5 l-129 105l-84 65l-10 9l-35 -9l-72 4l-22 9l-31 32l-10 23l-23 25l-18 4l-15 14l-2 16l-6 13l-6 4l-8 6h-8l-103 -96l-14 -6l-29 -7l-31 -14l-45 -8l-82 -25l-4 -4l-8 6l-41 -10l-2 2l4 10l6 33l15 29l16 24l37 43v7l90 67l17 10l53 78l47 92l-17 33v6v2h-8l-16 -22l-23 -56 l-43 -63l-69 -27l-6 -6l-19 -4l-26 -10l-15 -4h-2l4 41l23 78l6 16v14l-6 6l-10 13l-9 10l2 25l17 45v41v6l14 6l72 76l8 12v12l61 35l117 45l4 8l15 6l57 47l6 13l25 39l22 69v2l-47 7l-27 -9h-10l-4 2l25 47l6 13l24 24h9h2v4l-2 2l-66 -6h-10h-4l-17 33l-2 21l-8 4 l-12 47l-4 51l-8 43v6l-3 2l17 96l49 129l68 162l12 15l8 2l41 -2l70 -15l4 -6l28 -2l70 -37l49 -37l6 -4h7l4 2l63 -78l2 -12l10 -12l-2 -16l-10 -25l-8 -12v-4l2 -2l43 10l47 2l55 6l70 -2l55 2l19 -6l90 -12l82 -29l35 -21h4l2 4l-13 15l21 -4l33 -21h16l107 -67l24 -19 l4 -8v-10zM432 842l68 8v16h-4l-2 -4l-11 4l-10 -6l-27 -2l-26 -8l-33 4l-4 6l-12 49l-13 60l-6 43l2 24l-2 11l2 22l8 55l35 101l2 12l9 16l22 62l35 69v11l8 6h8l66 -6l78 -31l63 -37l94 -82v-10l-20 -49l-17 -31h3l14 8l16 2v17l6 4l25 47l-12 24l-23 33l-33 29l-30 24 l-68 48l-49 10l-51 10l-60 8l-16 4l-8 -8l-25 -65l-28 -66l-35 -110l-29 -95l-2 -18l-4 -72l16 -63l13 -31l2 -18l6 -9l-2 -8l4 -18h12l27 4zM500 1073l-23 4l-4 -4l-2 -22l2 -4l23 10l4 6v10zM481 1102h6v4h-6v-4zM489 1130l33 33l21 13l-29 14l-14 -16l-11 2l-18 -13 l-8 -14l-6 -25h6l4 15l22 20l5 -6l-5 -8l-6 -21h6v4v2zM444 1040l-4 7v6l6 8l7 18l-7 2h-12l-14 -41l4 -4l18 -16l4 4v12zM471 879l18 41l-8 6l-24 14l-31 -70h14zM496 907l-7 -14l-6 -14l17 2v8l6 12l-2 8l-8 2v-4zM430 903l14 45l-2 2l-24 6l-4 -14l-8 -12l-9 -29l-8 -12 v-12l4 -9h10l5 2zM389 1010l-16 -33h2l28 22l-8 11h-6zM371 991l6 27l-12 6zM406 961l-31 2l8 -45l4 -11zM399 1020l27 -10v8l-18 18l4 23h-6l-9 10l-26 10l-4 -8l-2 -29l6 -6h12zM393 1118l-10 -16v-10l23 -13l8 27l-11 12l5 4l4 43l18 21l2 16l10 19l21 -4l4 14l6 18 l-27 11l-10 -27l-6 -29l-16 -22l-11 -27zM385 1139l35 86l22 41l-12 6l-33 -88zM434 1149l19 6l2 16l-21 3l-2 -3l-2 -18l2 -4h2zM442 1139h-10l-6 -21l4 -4h4l8 6v19zM444 1186l27 -4l2 2v6l-10 10h-8l-11 -4v-10zM420 1081l-2 -4l2 2v2zM440 1094l19 10v6h-4l-9 -6h-10 v-10h4zM565 1233v10l-2 -6l-10 12l-2 4l-27 2l-10 -6l-25 -59h11v2l24 39l27 4l4 -4h8zM569 1196l-4 -14l8 -17h5l4 6l2 -6h12l4 6v13zM559 1204l-16 13h-8l-3 -17l21 -10l2 2zM489 1231l5 6l-5 6h-6l-2 -12l-6 -8h6zM516 1139l-6 -49l2 -3l23 -24l43 8l18 6l20 2l19 8l8 7 l12 8v4h-2l-37 14l-22 19l-27 14l-20 6l-12 -4zM606 1159l4 -4l31 -10l2 4l4 12h-2l-2 2l-8 8l-21 5zM653 1143l2 -4l33 -11v2l-18 19h-15zM657 1171l31 -16l23 -12h6l10 16v15l-16 16l-45 22l-23 15l-47 22l-31 15l-55 26l-4 -4l-6 4l-54 29l-2 -4l-8 -29h10l17 -12l41 -19 l8 9l20 4l21 -4l14 -15l2 4l6 -6l3 -12l-5 -4v-8h2l13 -11l45 -20zM651 1274l17 45h-6l-5 4l-20 8v-6l-33 -65l6 -5l25 -8zM676 1300l-19 -28l-12 -29l31 -16l24 45l5 18l-5 6l-16 11h-8v-7zM625 1327v10h-2l-13 9l-10 4l-6 -9l-21 -47l-8 -14l4 -8h6l21 -4l10 28zM555 1286 l33 72l-37 16l-35 -74l39 -16v2zM510 1315l27 59l-11 10h-14l-12 -6v-4l-6 -14l-5 -19l-12 -14v-8h4l25 -8zM467 1325l22 59l-12 2l-22 -55zM721 1208l22 35l2 10l-24 27h-10l-4 -20l-19 -27l-2 -16h2l6 -5l23 -12l4 2v6zM735 1208l-8 -18l10 -4v4l19 31l2 16h-6zM412 758 l77 10l21 10v6l-4 -2h-6l-4 6l30 41l33 25v6h-4l-10 -12l-56 -19l-47 -22l-16 -23zM516 858l25 4l6 8l-2 9h-4l-4 2l-5 10h-10zM352 369v-43l10 -15l33 -16l41 2l17 18v11l-13 12l-16 31h-12l-25 -2l-4 -9l-6 -28l12 -2l23 -4v6l-13 12l-2 -4l-4 -10h-4l-2 2l-2 8l12 16h6 l27 -28l-12 -19l-4 4h-39l-10 15l8 45l4 6l20 2l-2 4h-30zM489 205l-43 -21l-6 -10l-4 -18l8 -11l11 -8l28 4l6 6v3l78 63l-53 10l-4 -4zM467 231l4 -4l2 4h-6zM434 207l-8 -6h6l8 6h-6zM418 205l8 8l16 12l2 -2h2v4l-34 9l-17 -5h2l17 -12zM211 487v-4l53 -24l33 -23v-10 l6 -25l-2 -2v-2l10 -20l-10 -117l23 -29l22 -30l6 16l23 31h10l2 -2l31 8l16 -8v2l-4 12l-4 4l-29 4l-2 -2l-28 10l-21 21l-12 57l-10 17v14l-13 23v10l-8 88l16 22h-4l-32 -12l-43 -14zM354 166h-2v-6h2v6zM129 123l16 4l-2 4l-8 2l-53 33l-19 -76h3l34 14zM186 150l31 55 h-4l-16 -15l-17 -6l-4 -6l-18 -10v-10l-15 -4l-26 10l53 -31l4 4zM111 184l8 -6l-2 6h-6zM287 326l6 45l-12 35l-29 26l-25 10l-37 11l-26 -15l-45 -49l-6 -18l-13 -27l-8 -33l-6 -16v-47l33 -17l16 -4l35 -14l59 61l21 11zM70 -145l6 10l-4 6l-13 39l-12 -16l-12 -21l4 -8 l-6 -6l-2 -15h8l4 6h10l6 5h11zM186 -94v6l-22 16l-4 15l-6 30l4 23h-8l-9 -2l-22 -19l-15 5l-38 -41v-9l10 -24l10 -29l12 -12v2l-18 45l2 2l-2 16l6 13l6 -6l10 -43l9 -13l39 6l8 7h4l10 -3l8 15h6zM356 4v4l-8 8l-8 11l2 4v12l-6 6l-4 47l2 8l6 29l-4 4l-4 8l2 31l-4 8 l-17 11h-12l-84 -140l-18 -18l-19 -17l-8 -14l-2 -51l29 -37l71 12zM365 205l-9 -29l2 -2h4l9 4l-6 17l18 24l4 -6v-6l-10 -6l-2 -11h8h2l12 11l6 16h-4l-2 2l-22 4zM412 160l-9 16h-6l-22 -10v-6l-2 -2l-11 -4l-4 -21h7l8 8zM377 57l53 70l-6 14h-6l-19 -6l-28 -16l-6 -15 l-7 -77l7 -7h2l18 -14v10l-2 4zM459 100l4 17l-21 2l-8 -15l-35 -41l7 -36l14 -41l6 -29l14 86zM477 -35l12 8h-8l-6 4zM477 6l12 10l-8 4v5l-6 -21v-18zM530 -123h33l-12 4l-14 13h-5l-10 -7v-6h2zM584 -127l4 4h-10v-4h6zM588 -109v9l-19 12l-10 2l-8 -4v-6l12 -13h25z M578 -72h4v2h-4v-2zM616 84l31 29l23 4l18 18l33 6l27 -6v6l-25 9l-41 4l-47 -13l-21 -14l-4 -10l-37 -45l-18 -19v-10v-8l4 -62l-4 62l8 8h2l19 4v2zM635 43l20 -12l-10 12h-10zM737 -37v2h-2zM766 -215v22l-8 25l-4 82l2 -74l-2 -45l8 -10h4zM807 -244l8 -4l-4 21l-8 59z M862 -279v11l-6 24l-14 154l-6 10h-2l4 -16l-2 -2l16 -150l4 -31h6zM862 -109v13v-13zM1341 -307v4h-8l-73 -16zM1323 -297l10 6l-10 4l-18 8l-7 5l-51 16l-69 35l-23 18l-43 17l-31 6l-10 6v8l-74 27l4 -6l-4 -7l-2 4l-20 5v-5l2 -26l-2 -6h-4l-2 2l-11 45l-18 6v-4l16 -74 l-6 -8h-2l-12 18l-16 78l-7 6h-8v-10l8 -6l5 -53l6 -31v-61l-4 -5l-7 5l-8 47l-10 45l-10 84h-6l8 -99l8 -106l33 -16l59 -15l57 4l195 23l39 8zM1210 -223l25 -15l33 -12l-33 21zM887 80l-139 10l-31 10h-31l-61 -37v-6h4l39 -20l6 -10l108 -41l17 -13l80 -43l49 -18 l153 -70l54 -24l82 -33l81 -41l25 -14h4v2l-39 90l-49 88l-90 104l-47 29h-31l-27 6l-94 19l-26 -2zM803 154l-37 36l-29 27l-14 6l-6 -6h-10l-15 -6l-24 -6l-58 -10l-10 -9l-35 -12l-39 -41l-32 -67l-13 -41l2 2l11 4h2h4h4v16l18 53l19 27h4l20 20l56 39l4 -8l-11 -10 l-14 -8l-45 -37l-18 -27l-11 -28l-12 -58h2v15l10 6h6l9 4l-4 18l8 15l71 82l27 10l2 -2l49 8l41 -2l21 -10v4l-8 8l-37 24v5l6 6l4 -4l14 -7l17 -16l26 -27l8 -10v-4l11 -10h6l8 -4v4l-2 18zM827 315l19 43l-8 19l-17 22l-55 31l-49 8l-6 -2l-11 -10v-18l-38 -43l-9 -21 l-88 -96v-4h4l4 2l37 8l6 -8l-22 -13l12 -2l39 17l17 6l45 -6l36 -12l15 2l20 -19h8v4l9 8l2 11l20 34zM897 406l8 2l-2 28v-10l-8 -8l-2 -12h4zM913 510l5 16h-5v-4l-8 -4l-10 -6l-16 4l-2 -4l-5 4h-10l-59 -4l-27 -4l-59 -19l-35 -18l-25 -18l-90 -11l-12 -4l-2 4h-2 l-6 -6h-8l-5 6h3l2 11l14 49l12 63l-4 31l4 18l-8 7l-4 16h-6l-10 18l-3 17l-8 24l2 70h-4l-10 -8l-16 -6l-23 -62l21 19l2 -2v-7l-21 -22l-4 -19l-25 -34l-51 -60h-12l-21 -18l-6 -47l2 -11l-2 -2l6 -41l25 -47l19 -4l20 -8l16 -12v-10l25 -35l4 -29h4l25 -10l6 -8l59 -7 l51 58l35 41l6 35l-2 8l7 6l61 33l43 -4l55 -15l35 -22l12 -41l13 67l4 43l8 11l6 -9v-4zM588 584v-6l-4 -7h-2v-10l-4 -12l4 -10l34 -45l27 -17h10l17 6v4l8 9l8 6l-39 20l-31 27l-12 18zM655 557l2 -2l-2 -4v-6l21 -8l18 -11l13 -10h4v2l-11 10v11l-22 18l-2 8l-14 2z M684 590l2 -2h21l28 -15l19 -2l4 7l-10 6h-13l-10 6l-33 6zM614 477l-39 43l-8 -33l-16 -38l45 16l29 6zM975 408v4l-10 12l-7 18l-8 7l-2 10l-10 51l2 2v10l-2 4l2 2v11h-4l-16 -70l4 -31l14 -30l12 -7zM995 547l-12 24l8 -43l6 -69l-6 -21h-2l-10 8l-8 23l-6 49l2 43l-2 4 l-4 -59l8 -49l14 -37h6l2 4l6 25l9 20zM997 602l41 23h-26l-11 -11zM1090 741l4 54l-9 41l-6 4l6 14l5 41l-41 94l-37 43l-21 8l-33 13l-86 18l-4 -2l-6 4l-92 8l-16 -2l45 -6l12 -12l-2 -2l-92 -2l-2 2l-160 -17l-61 -18l-17 -6l-6 -10l-25 -9l-20 -22h6l43 -10l47 -31 l51 -64l15 5l12 12l29 14l41 33l30 20l7 -6l-2 -2l-29 -22l12 4l29 18l6 -6l-2 -2v-4h4l2 4l31 6l37 4l16 -4v-4l-2 -2l-27 -4l-100 -23l-66 -36v-5l35 5l11 -11l22 -63l23 -41l34 -70l7 6l6 -6l-6 -4l-13 -10l-4 2l-16 20l-8 2l4 -14l-4 -4l-2 4l-19 33h-8l-8 -6l-8 -8 l-19 -5l-20 7l-9 10l-4 6l-4 23l17 22l2 14l-43 7l-7 4l7 6l28 6l25 -4v4l-10 12l-15 35l-16 6l-64 -61l2 -4h9l2 4l8 -8v-3l22 -4l11 -8v-8l-2 -2h-4l-3 2l-30 4v-2l-8 -49l6 -37l24 -49l70 -76h6v2l8 21l2 20l4 6l37 2l49 -12l27 -10l14 -15l-8 -8l-22 -10l-31 -37h8l4 2 l58 19l49 6l10 -6l25 2l26 14l53 80l33 49v6l8 8l9 11l12 73h-6l-33 -20l-59 -21l-48 -4l-10 -6l-84 -6l-51 6l-16 27l6 4l61 -6l140 10l26 10l62 17l61 16l2 -2v-4l-12 -10l-27 -5l-6 -81l-6 -7h-6l-11 -18v-14l-6 -11l-41 -79h4l29 32l31 49l16 21l4 -2v-8l-4 -8l-6 -19h2 l10 12l31 45zM1513 973v8l-26 27v10l-12 12l-45 33l-37 18l-13 9l-20 4l-10 -4l-17 12h-10l-47 20l-53 21l-78 18l-80 10l-117 3l-14 -9l-6 -4h-33l-119 -22l-14 -11l-19 -10l-59 -35h10l33 4l8 5h10l168 -9l31 -10l55 -26l25 -5l35 -32l47 -78l6 -21l-4 -2l-6 -51l-8 -12 v-15l14 -18v-4l4 -8l-4 -8l4 -5v-10v-2v-18l6 4l23 37l18 22l27 47l71 68l62 25l39 16l69 10l62 -6zM610 702l-22 29l-6 25h2l16 -31l16 -23l50 -10h2l2 -2l-2 -2l-35 4zM995 737l2 -18v-4l-6 -6l-26 -2l-31 -9v-6l16 -22v-8l-16 16h-6l-25 -29l-18 -18l-23 -10l-20 4l-6 10 l6 27l-4 4l-19 -7l-12 -8l-4 4l18 13l-22 4v6l53 14l72 33l53 27l10 -2zM862 602l-43 16l-16 17v6l18 -16l31 -11l41 4l2 3l2 -3zM752 614h-9l-6 4l4 7h11l4 -7z" />
<glyph unicode="&#x2000;" horiz-adv-x="1689" />
<glyph unicode="&#x2001;" horiz-adv-x="3381" />
<glyph unicode="&#x2002;" horiz-adv-x="1689" />
<glyph unicode="&#x2003;" horiz-adv-x="3381" />
<glyph unicode="&#x2004;" horiz-adv-x="1126" />
<glyph unicode="&#x2005;" horiz-adv-x="843" />
<glyph unicode="&#x2006;" horiz-adv-x="563" />
<glyph unicode="&#x2007;" horiz-adv-x="563" />
<glyph unicode="&#x2008;" horiz-adv-x="421" />
<glyph unicode="&#x2009;" horiz-adv-x="675" />
<glyph unicode="&#x200a;" horiz-adv-x="186" />
<glyph unicode="&#x2010;" d="M119 598l510 -2v-166h-510v168z" />
<glyph unicode="&#x2011;" d="M119 598l510 -2v-166h-510v168z" />
<glyph unicode="&#x2012;" d="M119 598l510 -2v-166h-510v168z" />
<glyph unicode="&#x2013;" horiz-adv-x="1024" d="M119 430v168h825v-168h-825z" />
<glyph unicode="&#x2014;" horiz-adv-x="2048" d="M119 430v168h1849v-168h-1849z" />
<glyph unicode="&#x2019;" horiz-adv-x="190" d="M145 1438l-43 -355h-69l-33 355h145z" />
<glyph unicode="&#x201c;" horiz-adv-x="425" d="M145 1438l-43 -355h-69l-33 355h145zM381 1438l-43 -355h-70l-32 355h145z" />
<glyph unicode="&#x201d;" horiz-adv-x="425" d="M145 1438l-43 -355h-69l-33 355h145zM381 1438l-43 -355h-70l-32 355h145z" />
<glyph unicode="&#x2026;" horiz-adv-x="1044" d="M778 176h170v-176h-170v176zM430 176h170v-176h-170v176zM82 176h170v-176h-170v176z" />
<glyph unicode="&#x202f;" horiz-adv-x="675" />
<glyph unicode="&#x2039;" horiz-adv-x="1196" d="M1079 1001l-837 -335l837 -340v-113l-954 397v109l954 391v-109z" />
<glyph unicode="&#x203a;" horiz-adv-x="1200" d="M121 1110l954 -391v-109l-954 -397v113l837 340l-837 335v109z" />
<glyph unicode="&#x205f;" horiz-adv-x="843" />
<glyph unicode="&#x2122;" horiz-adv-x="3659" d="M1696 -338l205 125v1522l-207 125h420l549 -1274l550 1274h412l-223 -125v-1530l211 -117h-651l194 117v1159l-579 -1276l-517 1276v-1147l185 -129h-549zM3228 283l59 -486l62 486l-60 96zM3224 782l61 -98l64 98l-62 473zM3285 614l-59 -77l59 -80l64 80zM2378 352 l237 -430l-129 471l-88 70zM2183 811l97 -70l16 113l-242 414zM2306 678l-26 -94l86 -52l20 93zM6 1032l199 402h1321l174 -402l-361 285h-356v-1518l205 -137h-660l215 133v1522h-376zM807 326l53 -486l64 486l-58 96zM803 825l61 -98l60 98l-62 473zM864 657l-59 -77 l59 -80l56 80z" />
<glyph unicode="&#xe000;" horiz-adv-x="1240" d="M0 1240h1240v-1240h-1240v1240z" />
<glyph unicode="&#xfb01;" horiz-adv-x="1241" d="M770 1239h428l-86 -61v-1090l88 -88h-422l88 84v1087zM2 1239h719v-438l-150 370h-243v-495h145l98 147v-370l-94 137h-149v-506l98 -84h-424l90 78v1081z" />
<glyph unicode="&#xfb02;" horiz-adv-x="1427" d="M1399 0h-631l100 76v1081l-100 82h442l-98 -70v-1089h141l146 455v-535zM2 1239h719v-438l-150 370h-243v-495h145l98 147v-370l-94 137h-149v-506l98 -84h-424l90 78v1081z" />
<glyph unicode="&#xfb03;" horiz-adv-x="2009" d="M1538 1239h428l-86 -61v-1090l88 -88h-422l88 84v1087zM770 1239h719v-438l-150 370h-243v-495h145l98 147v-370l-94 137h-149v-506l98 -84h-424l90 78v1081zM2 1239h719v-438l-150 370h-243v-495h145l98 147v-370l-94 137h-149v-506l98 -84h-424l90 78v1081z" />
<glyph unicode="&#xfb04;" horiz-adv-x="2195" d="M2167 0h-631l100 76v1081l-100 82h442l-98 -70v-1089h141l146 455v-535zM770 1239h719v-438l-150 370h-243v-495h145l98 147v-370l-94 137h-149v-506l98 -84h-424l90 78v1081zM2 1239h719v-438l-150 370h-243v-495h145l98 147v-370l-94 137h-149v-506l98 -84h-424l90 78 v1081z" />
</font>
</defs>
</svg>
